<svg width="324" height="36" viewBox="0 0 324 36" fill="none" xmlns="http://www.w3.org/2000/svg">
    <path
        d="M0.623 35V0.169997H6.987V15.478L13.867 0.169997H19.93L13.265 15.736L20.618 35H14.297L8.449 19.133L6.987 21.799V35H0.623ZM22.4957 35L29.4617 0.169997H36.2557L43.2217 35H37.3307L35.9547 26.959H29.8917L28.4727 35H22.4957ZM30.5367 22.917H35.2667L32.9017 8.297L30.5367 22.917ZM47.4746 35V0.169997H53.8386V30.614H62.2666V35H47.4746ZM64.5602 35L71.5262 0.169997H78.3202L85.2862 35H79.3952L78.0192 26.959H71.9562L70.5372 35H64.5602ZM72.6012 22.917H77.3312L74.9662 8.297L72.6012 22.917ZM89.539 35V0.169997H95.903V15.478L102.783 0.169997H108.846L102.181 15.736L109.534 35H103.213L97.365 19.133L95.903 21.799V35H89.539ZM122.637 35.473C120.057 35.473 118.05 35 116.617 34.054C115.183 33.108 114.194 31.7607 113.65 30.012C113.105 28.2633 112.833 26.1707 112.833 23.734V0.169997H119.025V24.465C119.025 25.5543 119.096 26.5863 119.24 27.561C119.383 28.507 119.713 29.281 120.229 29.883C120.773 30.4563 121.576 30.743 122.637 30.743C123.755 30.743 124.557 30.4563 125.045 29.883C125.561 29.281 125.89 28.507 126.034 27.561C126.206 26.5863 126.292 25.5543 126.292 24.465V0.169997H132.441V23.734C132.441 26.1707 132.168 28.2633 131.624 30.012C131.079 31.7607 130.09 33.108 128.657 34.054C127.252 35 125.245 35.473 122.637 35.473ZM138.196 35V0.169997H142.625L151.096 20.036V0.169997H156.342V35H152.128L143.614 14.188V35H138.196ZM160.185 35.86V31.388C161.102 31.388 161.862 31.3307 162.464 31.216C163.066 31.1013 163.525 30.9007 163.84 30.614C164.184 30.2987 164.428 29.8543 164.571 29.281C164.714 28.679 164.786 27.9193 164.786 27.002V0.169997H171.107V27.26C171.107 29.2093 170.878 30.829 170.419 32.119C169.96 33.3803 169.158 34.3263 168.011 34.957C166.893 35.559 165.302 35.86 163.238 35.86H160.185ZM188.273 35L188.875 0.169997H195.454L200.399 24.293L205.559 0.169997H211.923L212.568 35H207.838L207.322 10.791L202.377 35H198.55L193.519 10.705L193.046 35H188.273ZM216.699 35L223.665 0.169997H230.459L237.425 35H231.534L230.158 26.959H224.095L222.676 35H216.699ZM224.74 22.917H229.47L227.105 8.297L224.74 22.917ZM241.678 35V0.169997H246.107L254.578 20.036V0.169997H259.824V35H255.61L247.096 14.188V35H241.678ZM265.859 35V0.169997H274.072C276.91 0.169997 279.118 0.556997 280.694 1.331C282.3 2.105 283.432 3.29466 284.091 4.9C284.779 6.50533 285.123 8.54066 285.123 11.006V23.734C285.123 26.2567 284.779 28.3637 284.091 30.055C283.432 31.7177 282.314 32.9647 280.737 33.796C279.189 34.5987 277.054 35 274.33 35H265.859ZM272.223 30.571H274.158C275.62 30.571 276.667 30.313 277.297 29.797C277.928 29.281 278.315 28.5357 278.458 27.561C278.602 26.5577 278.673 25.3393 278.673 23.906V10.576C278.673 9.17133 278.573 8.039 278.372 7.179C278.172 6.319 277.756 5.68833 277.125 5.287C276.495 4.88566 275.477 4.685 274.072 4.685H272.223V30.571ZM290.717 35V0.169997H296.995V35H290.717ZM303.137 35V0.169997H311.479C313.829 0.169997 315.807 0.456665 317.413 1.03C319.047 1.57467 320.279 2.52067 321.111 3.868C321.971 5.21533 322.401 7.05 322.401 9.372C322.401 10.7767 322.272 12.038 322.014 13.156C321.756 14.274 321.311 15.2343 320.681 16.037C320.079 16.811 319.233 17.413 318.144 17.843L323.003 35H316.639L312.425 19.047H309.501V35H303.137ZM309.501 15.048H311.479C312.711 15.048 313.686 14.876 314.403 14.532C315.148 14.1593 315.678 13.586 315.994 12.812C316.309 12.0093 316.467 10.9917 316.467 9.759C316.467 8.01033 316.137 6.706 315.478 5.846C314.847 4.95733 313.629 4.513 311.823 4.513H309.501V15.048Z"
        fill="white" fill-opacity="0.19" />
</svg>
