<svg width="71" height="71" viewBox="0 0 71 71" fill="none" xmlns="http://www.w3.org/2000/svg">
<rect x="13" width="50" height="51" rx="25" fill="#008ABD"/>
<path d="M50.4281 11.6606C44.5759 15.5044 37.8101 21.7848 32.1206 28.6572C31.7136 29.1548 31.4241 29.4208 31.3608 29.3865C31.2975 29.3522 29.3437 28.0566 27.0101 26.5122L22.7678 23.7067L22.5327 23.8697C22.406 23.9555 21.7819 24.5217 21.1487 25.1309L20 26.2291L21.4111 28.0738C24.8573 32.5696 28.7196 37.8805 30.4472 40.4801C30.9719 41.2781 31.4332 41.9644 31.4693 41.9988C31.5055 42.0331 31.9759 41.3553 32.5186 40.4973C37.4663 32.5438 43.6804 24.0498 48.6734 18.3786C50.7266 16.0449 51.595 15.144 53.8834 12.9905L56 11H53.7116L51.4231 11.0086L50.4281 11.6606Z" fill="white"/>
<rect y="48" width="71" height="21" rx="4" fill="#008ABD"/>
<path d="M25.46 63L23.562 59.555H23.029V63H20.806V53.874H24.537C25.2563 53.874 25.8673 53.9997 26.37 54.251C26.8813 54.5023 27.2627 54.849 27.514 55.291C27.7653 55.7243 27.891 56.2097 27.891 56.747C27.891 57.3537 27.7177 57.8953 27.371 58.372C27.033 58.8487 26.5303 59.1867 25.863 59.386L27.969 63H25.46ZM23.029 57.982H24.407C24.8143 57.982 25.1177 57.8823 25.317 57.683C25.525 57.4837 25.629 57.202 25.629 56.838C25.629 56.4913 25.525 56.2183 25.317 56.019C25.1177 55.8197 24.8143 55.72 24.407 55.72H23.029V57.982ZM31.5095 55.655V57.501H34.4865V59.217H31.5095V61.219H34.8765V63H29.2865V53.874H34.8765V55.655H31.5095ZM42.0007 61.388H38.5947L38.0487 63H35.7217L39.0237 53.874H41.5977L44.8997 63H42.5467L42.0007 61.388ZM41.4287 59.672L40.2977 56.331L39.1797 59.672H41.4287ZM49.3236 53.874C50.2856 53.874 51.1263 54.0647 51.8456 54.446C52.565 54.8273 53.1196 55.3647 53.5096 56.058C53.9083 56.7427 54.1076 57.5357 54.1076 58.437C54.1076 59.3297 53.9083 60.1227 53.5096 60.816C53.1196 61.5093 52.5606 62.0467 51.8326 62.428C51.1133 62.8093 50.277 63 49.3236 63H45.9046V53.874H49.3236ZM49.1806 61.076C50.0213 61.076 50.6756 60.8463 51.1436 60.387C51.6116 59.9277 51.8456 59.2777 51.8456 58.437C51.8456 57.5963 51.6116 56.942 51.1436 56.474C50.6756 56.006 50.0213 55.772 49.1806 55.772H48.1276V61.076H49.1806Z" fill="white"/>
</svg>
