<svg width="53" height="53" viewBox="0 0 53 53" fill="none" xmlns="http://www.w3.org/2000/svg">
<circle cx="26.5" cy="26.5" r="26.5" fill="#008ABD"/>
<path d="M39.4281 11.682C33.5759 15.6497 26.8101 22.1327 21.1206 29.2268C20.7136 29.7405 20.4241 30.015 20.3608 29.9796C20.2975 29.9442 18.3437 28.6068 16.0101 27.0126L11.7678 24.1165L11.5327 24.2848C11.406 24.3734 10.7819 24.9579 10.1487 25.5867L9 26.7204L10.4111 28.6245C13.8573 33.2654 17.7196 38.7476 19.4472 41.4311C19.9719 42.2548 20.4332 42.9633 20.4693 42.9987C20.5055 43.0341 20.9759 42.3345 21.5186 41.4488C26.4663 33.2388 32.6804 24.4708 37.6734 18.6166C39.7266 16.2077 40.595 15.2777 42.8834 13.0547L45 11H42.7116L40.4231 11.0089L39.4281 11.682Z" fill="white"/>
</svg>
