<svg width="390" height="169" viewBox="0 0 390 169" fill="none" xmlns="http://www.w3.org/2000/svg">
<path d="M-54 148.398C-53.7981 148.222 -53.4154 148.344 -53.3187 147.953C-53.2976 147.864 -53.0243 147.793 -52.8644 147.789C-52.1579 147.764 -51.4513 147.755 -50.7489 147.768C-50.4755 147.772 -50.2274 147.768 -50.0592 147.512C-49.2306 146.247 -47.8259 145.961 -46.5515 145.465C-46.5263 145.457 -46.5011 145.457 -46.4758 145.448C-45.5421 145.058 -44.5916 144.73 -43.5654 144.663C-43.1658 144.637 -42.8168 144.411 -42.6317 144.024C-42.5728 143.898 -42.5308 143.684 -42.5981 143.595C-42.9471 143.121 -43.3299 142.671 -43.7463 142.154C-43.6748 142.095 -43.5654 141.965 -43.4224 141.889C-43.0523 141.692 -42.6738 141.524 -42.2952 141.339C-41.6223 141.011 -41.6349 141.011 -41.6938 140.234C-41.7064 140.066 -41.6307 139.885 -41.5803 139.713C-41.4246 139.154 -41.3237 138.604 -41.6349 138.15C-41.3279 137.427 -41.0629 136.763 -40.7643 136.116C-40.6844 135.948 -40.5162 135.738 -40.3606 135.713C-40.2176 135.692 -40.0199 135.872 -39.8853 136.003C-39.7549 136.133 -39.675 136.309 -39.5531 136.498C-38.7413 135.456 -38.7413 135.456 -38.1021 136.267C-37.8034 136.259 -37.4922 136.309 -37.3997 135.86C-37.3745 135.734 -37.1558 135.624 -37.0001 135.553C-36.8151 135.469 -36.5922 135.461 -36.4155 135.368C-36.1842 135.25 -36.0034 135.25 -35.7594 135.355C-35.3977 135.507 -35.0108 135.561 -34.6575 135.25C-34.5566 135.162 -34.321 135.087 -34.2369 135.145C-33.6355 135.545 -33.0929 135.259 -32.5378 135.049C-32.4453 135.015 -32.3401 135.011 -32.1256 134.973C-32.0878 135.431 -32.0541 135.851 -32.0205 136.267C-31.6377 136.322 -31.6041 136.053 -31.562 135.834C-31.3265 134.591 -30.7924 133.456 -30.2835 132.309C-29.4718 130.473 -28.3404 128.851 -26.9861 127.384C-25.472 125.742 -23.7392 124.363 -21.834 123.187C-20.2232 122.195 -18.4315 121.737 -16.6356 121.267C-16.0048 121.103 -15.3613 120.972 -14.7304 120.813C-14.4907 120.75 -14.2678 120.636 -14.0785 120.565C-14.272 120.124 -14.3771 119.729 -14.6 119.418C-14.743 119.216 -15.05 119.086 -15.3066 119.023C-15.6557 118.934 -16.03 118.943 -16.3959 118.913C-16.7282 118.888 -16.9258 118.708 -16.9679 118.38C-17.0268 117.943 -17.073 117.506 -17.1361 116.997C-16.7702 116.867 -16.4338 116.754 -16.0216 116.607C-16.0216 110.556 -16.0216 104.476 -16.0216 98.3242C-15.3739 98.3704 -14.8145 98.4251 -14.2509 98.4503C-12.4677 98.5259 -10.7012 98.6982 -9.01472 99.3159C-8.48058 99.5133 -7.96327 99.7823 -7.4796 100.085C-6.6805 100.585 -6.2473 101.329 -6.14215 102.278C-5.99916 103.556 -5.31782 104.396 -4.08972 104.635C-2.45367 104.959 -0.809193 105.341 0.873127 105.257C1.74373 105.215 2.61012 105.06 3.51437 104.955C2.18113 105.942 0.704895 106.514 -1.09519 106.669C-0.308704 107.144 0.393665 107.232 1.08762 107.224C1.78579 107.211 2.47975 107.073 3.33353 106.972C3.10641 107.136 2.99286 107.249 2.85827 107.308C0.776394 108.266 -1.42324 108.694 -3.70279 108.539C-5.71317 108.405 -7.28613 107.493 -8.18197 105.598C-8.61517 104.673 -9.41427 104.19 -10.3395 103.913C-11.4499 103.581 -12.5939 103.476 -13.7547 103.572C-14.2173 103.61 -14.6799 103.677 -15.1804 103.736C-15.1804 108.005 -15.1804 112.228 -15.1804 116.497C-14.028 116.72 -12.9556 116.409 -11.9041 116.035C-10.8947 115.674 -10.8106 115.577 -10.5498 115.178C-10.7727 115.056 -11.0041 114.947 -11.2144 114.808C-12.0345 114.258 -12.0177 113.375 -11.1807 112.854C-10.9662 112.72 -10.7475 112.602 -10.4699 112.443C-10.9326 112.123 -11.412 111.938 -11.4373 111.337C-11.4625 110.762 -11.0419 110.531 -10.655 110.22C-10.6886 110.123 -10.7181 110.031 -10.7517 109.942C-10.9031 109.56 -10.1881 109.266 -10.6382 108.854C-10.5246 108.493 -10.4405 108.115 -10.2933 107.766C-10.1377 107.392 -9.91896 107.039 -9.72971 106.682C-9.72129 106.669 -9.67923 106.669 -9.54885 106.644C-9.46474 107.493 -8.77499 108.194 -9.03154 109.14C-9.04837 109.203 -9.03154 109.316 -8.98528 109.35C-8.5689 109.636 -8.87593 109.947 -8.96425 110.207C-8.9264 110.295 -8.92219 110.367 -8.88854 110.388C-8.15253 110.808 -8.27029 110.888 -8.52264 111.661C-8.57732 111.829 -8.74976 111.972 -8.77919 112.14C-8.80864 112.321 -8.73714 112.522 -8.68246 112.703C-8.66564 112.766 -8.5689 112.804 -8.51002 112.859C-7.68568 113.615 -7.63521 114.338 -8.58572 114.972C-8.74134 115.077 -8.85069 115.254 -9.03995 115.455C-8.07262 115.926 -7.21463 116.401 -6.31459 116.775C-5.12856 117.262 -4.8005 117.771 -4.97715 119.056C-5.00659 119.258 -5.00238 119.477 -4.96032 119.678C-4.87621 120.077 -4.95191 120.388 -5.56175 120.619C-5.158 120.783 -4.93929 120.893 -4.71218 120.964C-2.60928 121.615 -0.582081 122.439 1.37782 123.439C3.56484 124.552 5.33128 126.166 6.88743 128.019C8.78845 130.284 10.2563 132.797 11.0386 135.675C11.1689 136.15 11.2531 136.637 11.375 137.208C12.3718 136.99 13.07 137.654 13.7849 138.23C14.2476 137.561 13.5116 137.587 13.3433 137.175C13.5747 136.881 13.8102 136.511 14.1172 136.208C14.3275 136.003 14.4158 135.813 14.3738 135.528C14.2518 134.675 14.4411 134.532 15.3201 134.818C15.3537 135.192 15.3874 135.578 15.4252 135.99C15.7953 136.271 16.2538 136.515 16.3505 137.061C16.3715 137.179 16.4052 137.318 16.3673 137.423C16.1949 137.893 16.1865 137.893 16.7248 138.116C16.7711 137.973 16.8047 137.826 16.872 137.7C16.9435 137.566 17.0276 137.351 17.1328 137.335C17.6669 137.242 18.2221 137.108 18.7436 137.175C19.038 137.213 19.3072 137.587 19.5469 137.843C19.7025 138.007 19.7067 138.402 20.1694 138.032C19.9338 137.788 19.7151 137.557 19.4544 137.284C19.7614 137.007 20.2156 136.872 20.3796 136.368C20.4848 136.045 20.8297 135.847 20.5605 135.41C20.4974 135.305 20.8591 134.939 20.9979 134.729C21.5657 134.83 21.5152 135.242 21.6161 135.54C21.7507 135.944 21.8685 136.339 22.3858 136.356C22.8695 135.83 22.6129 134.893 23.5004 134.603C23.6055 134.86 23.9083 134.977 23.8536 135.376C23.8284 135.574 24.0723 135.847 24.2574 136.024C24.4467 136.204 24.72 136.301 24.9724 136.103C25.2037 135.923 25.0986 135.717 25.0187 135.477C24.7831 134.742 25.1617 134.473 26.2341 134.671C26.2341 134.902 26.2047 135.158 26.2383 135.406C26.3182 135.994 26.9071 136.33 27.273 135.99C27.3949 135.876 27.4118 135.637 27.458 135.452C27.5253 135.179 27.5253 134.876 27.6557 134.637C27.7272 134.507 28.0174 134.406 28.1772 134.435C28.3328 134.465 28.5894 134.721 28.5641 134.818C28.3791 135.545 28.9805 135.788 29.3296 136.238C29.5105 136.078 29.6787 135.956 29.8091 135.801C30.0193 135.549 30.2549 135.326 30.053 134.91C29.9142 134.62 30.1623 134.309 30.4315 134.292C30.7301 134.276 31.0077 134.502 31.0372 134.784C31.1129 135.582 31.1129 135.582 31.8321 136.082C32.0381 135.839 32.2526 135.595 32.4587 135.339C32.6059 135.154 32.6732 134.998 32.5092 134.738C32.3746 134.523 32.669 134.183 32.955 134.137C33.2031 134.095 33.5817 134.334 33.506 134.561C33.2368 135.36 33.9181 135.57 34.3345 136.078C34.6626 135.666 34.957 135.301 35.2387 134.944C35.0663 134.687 34.9528 134.519 34.7929 134.28C35.0369 134.166 35.2261 134.023 35.4364 133.986C35.9201 133.902 36.164 134.15 36.0042 134.603C35.9201 134.843 35.9285 134.986 36.0757 135.145C36.1977 135.276 36.3449 135.381 36.4584 135.515C36.572 135.65 36.6603 135.809 36.7739 135.977C37.1145 135.797 37.0557 135.511 36.9842 135.288C36.8538 134.881 36.9673 134.629 37.287 134.343C37.6865 133.986 38.0777 133.696 38.6202 133.582C39.2006 133.465 39.3815 133.028 39.209 132.368C39.0997 131.956 38.8726 131.885 38.1996 132.044C38.1071 132.544 38.6412 132.376 38.8011 132.603C38.2207 133.175 37.9473 133.133 37.329 132.347C37.4594 131.754 37.8085 131.28 38.3048 130.918C39.1249 130.322 39.4025 129.443 39.3815 128.523C39.3604 127.565 39.1628 126.611 39.0198 125.657C38.9903 125.46 38.8684 125.263 38.7464 125.103C37.901 123.977 37.0557 122.846 36.1851 121.741C35.7182 121.149 35.529 121.128 34.856 121.418C34.7635 121.456 34.671 121.506 34.5911 121.548C33.6237 120.956 32.1517 121.246 31.5082 122.149C31.3736 122.338 31.2601 122.548 31.1591 122.762C30.6334 123.872 30.053 124.183 28.8543 123.998C28.7282 123.977 28.602 123.96 28.4253 123.939C28.2908 124.615 27.9795 125.17 27.4748 125.611C27.3865 125.687 27.294 125.859 27.3192 125.952C27.4664 126.506 27.0669 126.746 26.7178 127.04C26.2804 126.834 25.9439 126.565 25.8977 126.01C25.8808 125.809 25.7252 125.531 25.5528 125.443C25.1406 125.229 25.0607 124.863 24.9724 124.485C24.7873 123.683 24.5602 123.477 23.7863 123.414C23.1723 123.363 22.9746 123.044 23.2017 122.46C23.2312 122.388 23.248 122.3 23.3027 122.25C24.0934 121.493 23.8747 120.594 23.6644 119.577C22.8821 120.174 22.2933 120.905 21.3428 121.17C20.3923 121.435 19.4964 120.993 18.487 121.098C18.6511 122.199 18.344 122.968 17.0865 123.09C17.2884 123.531 17.1159 123.809 16.8299 124.103C16.6028 124.334 16.4178 124.502 16.0981 124.351C15.7785 124.199 15.6313 123.935 15.686 123.586C15.7154 123.384 15.7911 123.187 15.8584 122.943C15.3832 122.783 14.9289 122.628 14.3864 122.443C14.4495 122.174 14.5041 121.935 14.563 121.695C14.7018 121.157 14.6555 121.073 14.1719 120.767C13.7261 120.481 13.4947 120.111 13.5662 119.527C13.6924 118.518 13.7471 117.502 13.8228 116.485C13.8354 116.287 13.8018 116.081 13.7849 115.85C12.8933 115.72 12.0437 115.615 11.1984 115.468C9.17538 115.119 7.24913 114.485 5.42801 113.527C5.01164 113.308 4.71303 113.064 4.65835 112.543C4.63312 112.3 4.37656 112.081 4.14944 111.741C4.29244 111.615 4.50694 111.35 4.78032 111.199C6.85378 110.039 8.93986 108.896 11.0217 107.757C11.3372 107.585 11.6778 107.455 12.069 107.274C11.947 106.808 11.8377 106.371 11.7073 105.867C12.5106 105.442 12.4559 104.556 12.5442 103.787C12.662 102.778 13.0237 101.883 13.4611 100.997C13.7134 100.48 14.1677 100.19 14.5168 99.9671C14.5504 99.7318 14.5252 99.5091 14.5925 99.4755C14.9247 99.3159 15.2191 99.1184 15.5219 98.9125C15.7743 98.7402 16.1696 98.7444 16.4136 98.4377C16.4725 98.362 16.708 98.4082 16.8552 98.4335C16.994 98.4545 17.1244 98.5259 17.2716 98.5805C17.3473 97.8956 17.3473 97.8956 18.0118 97.9586C18.0328 98.0217 18.0917 98.1015 18.0791 98.1645C18.037 98.383 17.9908 98.6394 18.281 98.6436C18.424 98.6436 18.5754 98.4082 18.7015 98.2612C18.7646 98.1898 18.8235 98.0553 18.7983 97.9797C18.6006 97.3494 19.0759 97.4712 19.4375 97.3746C19.509 97.6183 19.5763 97.8284 19.6436 98.0595C19.7109 98.0721 19.7908 98.1099 19.8581 98.0931C20.2745 98.0049 20.468 97.6729 20.5395 97.3158C20.6236 96.8956 20.9012 96.8704 21.2713 96.8073C21.4143 97.2443 21.5531 97.6561 21.6877 98.0679C22.5162 97.8746 22.7055 97.5427 22.4195 96.6813C22.6718 96.614 22.92 96.5468 23.2059 96.4712C23.3658 97.1267 23.3868 97.7738 24.1144 98.0301C24.5182 97.5679 25.0439 97.1645 24.8756 96.3913C24.8546 96.2863 25.0313 96.0804 25.1616 96.0216C25.2542 95.9796 25.4771 96.0636 25.5486 96.1602C25.6495 96.2947 25.679 96.4922 25.7168 96.6687C25.8262 97.1519 26.0028 97.3452 26.3309 97.32C26.865 97.2779 27.2477 96.9838 27.2898 96.572C27.3066 96.4165 27.3192 96.2485 27.2645 96.1056C27.13 95.7485 27.3234 95.6014 27.6136 95.5804C27.8912 95.5594 28.0594 95.7737 28.0342 96.03C27.9711 96.6771 28.4043 97.0006 28.867 97.4502C29.2455 96.8956 30.0278 96.6561 29.7334 95.7653C29.6955 95.6476 29.8427 95.3703 29.9689 95.3157C30.1792 95.2232 30.4399 95.2526 30.7932 95.2232C30.4946 96.1098 30.7554 96.6771 31.5587 97.0552C31.9162 96.5762 32.2905 96.0888 32.6396 95.5846C32.6942 95.5089 32.5849 95.3367 32.6059 95.219C32.6564 94.9333 32.8204 94.7484 33.1443 94.7694C33.4218 94.7862 33.5817 94.9123 33.5606 95.2148C33.5144 95.9712 34.1074 96.2611 34.6584 96.7149C35.1504 96.0888 35.9327 95.7106 35.878 94.7442C35.8738 94.6434 36.1009 94.4753 36.2523 94.4291C36.5047 94.3492 36.6603 94.5425 36.6855 94.761C36.7655 95.4627 37.2786 95.8661 37.7118 96.4418C37.9641 96.1182 38.145 95.8367 38.3721 95.6056C38.6076 95.3661 38.9062 95.1854 39.1375 94.9417C39.2385 94.8324 39.2637 94.6308 39.2763 94.4669C39.31 94.0509 39.5034 93.8324 39.882 93.8366C40.2353 93.8408 40.3993 94.0215 40.3194 94.4753C40.2479 94.8619 40.4161 95.0425 40.6937 95.2358C40.8998 95.3787 41.068 95.5636 41.2993 95.7737C41.7535 95.7695 42.1531 95.5594 42.4265 95.0761C42.5527 94.8577 42.7798 94.7022 42.9774 94.5047C43.0027 94.261 42.7167 93.9921 43.0363 93.7316C43.3686 93.4626 43.6714 93.4836 43.806 93.8954C44.0205 94.5509 44.3527 95.1098 44.8911 95.551C45.4 95.9712 45.9341 95.8451 46.1654 95.2442C46.2369 95.0635 46.3547 94.8829 46.4935 94.7484C46.7753 94.4711 46.9561 94.1896 46.8888 93.761C46.8215 93.3324 46.9771 93.1559 47.3599 93.1517C47.709 93.1475 47.8982 93.2861 47.8309 93.6811C47.7931 93.8954 47.8225 94.1181 47.8225 94.4081C48.445 94.6812 48.7268 95.6476 49.6983 95.5089C50.1525 94.9879 50.6278 94.4711 51.0652 93.9248C51.1703 93.7946 51.1493 93.5509 51.1535 93.3576C51.1661 93.0298 51.326 92.8912 51.6498 92.8954C51.961 92.8996 52.2386 92.9416 52.2596 93.3366C52.2723 93.5677 52.2596 93.803 52.2596 94.0845C52.4026 94.198 52.6592 94.303 52.7517 94.4921C53.1597 95.3241 53.8705 95.0719 54.514 95.0215C54.8378 94.9963 55.0523 94.8114 55.1911 94.4669C55.3046 94.1854 55.5822 93.9669 55.8598 93.6391C55.8598 93.6013 55.8766 93.4206 55.8556 93.2441C55.8136 92.8365 55.9776 92.5886 56.3351 92.5508C56.6799 92.5172 56.8314 92.6937 56.8398 93.1559C56.844 93.3618 56.8398 93.5677 56.8398 93.8072C56.9281 93.8828 57.0795 93.9626 57.1594 94.0887C57.6304 94.824 58.3749 94.7484 59.0941 94.7904C59.4053 94.8072 59.5693 94.6854 59.6913 94.4081C59.7796 94.2022 59.8974 93.9332 60.074 93.8534C60.5367 93.6391 60.6586 93.2861 60.6208 92.8449C60.5955 92.5382 60.6628 92.3029 60.9951 92.2903C61.2853 92.2777 61.4031 92.5088 61.4115 92.7609C61.4367 93.5425 62.055 93.9921 62.4377 94.7232C62.8078 94.2274 63.1148 93.8156 63.4597 93.3576C63.4092 93.3114 63.2873 93.2021 63.119 93.0508C63.363 92.7609 63.6069 92.471 63.9392 92.0802C64.1579 92.4458 64.3093 92.7063 64.4691 92.9626C64.6079 93.1895 64.6205 93.6223 65.0159 93.4794C65.3313 93.366 65.4364 93.0256 65.4112 92.6643C65.3733 92.1264 65.5037 92.0256 66.2103 92.013C66.2692 92.429 66.3281 92.8492 66.3996 93.3618C66.5762 93.5046 66.837 93.7105 67.1566 93.9626C67.6235 93.1181 68.002 92.3029 68.1324 91.4373C68.2207 90.8406 68.33 90.2356 68.3763 89.6221C68.4352 88.8784 68.0945 88.4456 67.7328 87.9539C67.615 87.7943 67.4552 87.664 67.308 87.5127C67.6024 86.9875 68.0062 86.6808 68.5025 86.4791C68.9146 86.311 69.3268 86.1471 69.7221 85.9496C69.9787 85.8194 70.168 85.6303 70.2058 85.2942C70.4455 83.1428 70.7063 80.9956 70.9586 78.8485C70.9671 78.7728 70.9586 78.693 70.9586 78.5543C70.7904 78.4325 70.5885 78.2854 70.2983 78.0711C71.1185 77.7686 71.0344 77.0626 71.2068 76.466C71.8208 74.365 72.4601 72.2683 73.0826 70.1674C73.2298 69.6715 73.3602 69.1715 73.5074 68.6253C73.1499 68.579 72.8555 68.537 72.5106 68.4908C72.6452 67.8143 73.2466 68.0916 73.6714 67.8101C74.6513 63.0914 75.9635 58.36 77.6753 53.7632C79.3871 49.1705 81.3302 44.6619 83.1849 40.0776C83.0083 39.9936 82.8527 39.9011 82.6844 39.8423C81.8727 39.5482 81.5951 39.1952 81.6372 38.359C81.6666 37.7624 81.7676 37.1657 81.8475 36.5732C81.8979 36.1783 82.226 36.1194 82.533 36.0354C83.3742 35.8043 83.37 35.8043 83.3616 34.9345C83.3574 34.0437 83.3574 33.1571 83.3574 32.2663C83.3574 31.7747 83.3784 31.3041 83.0503 30.8503C82.7391 30.4175 82.8569 29.8754 83.0966 29.43C83.349 28.9594 83.349 28.4888 83.3069 27.9888C83.2648 27.4678 83.2606 26.9467 83.248 26.4215C83.2396 25.9299 83.2102 25.4592 83.0335 24.9676C82.8989 24.5895 83.0209 24.1104 83.0672 23.6776C83.0966 23.4003 83.248 23.1272 83.2564 22.8541C83.2732 21.833 83.269 20.8162 83.2396 19.7951C83.2312 19.5556 83.1597 19.2783 83.0209 19.0892C82.7139 18.6732 82.6844 18.2572 82.9536 17.8538C83.1723 17.5219 83.2018 17.1815 83.2018 16.8118C83.2059 16.0806 83.2228 15.3495 83.2396 14.6184C83.2522 14.1225 83.2606 13.6603 82.8947 13.2233C82.5919 12.862 82.6129 12.3662 82.9115 11.9796C83.1597 11.6602 83.2059 11.3325 83.2018 10.9585C83.1933 9.83242 83.2144 8.71052 83.1891 7.58441C83.1807 7.29028 83.1008 6.97093 82.962 6.71042C82.7181 6.25241 82.7307 5.83222 82.9031 5.35741C83.0335 5.00025 83.1176 4.60947 83.1344 4.2313C83.1807 3.02956 83.1807 1.82782 83.2018 0.626082C83.2059 0.449602 83.227 0.277325 83.248 0C84.4382 0.0420189 85.5822 0.0546246 86.722 0.126057C88.581 0.24371 90.4105 0.516832 92.1769 1.13871C93.0223 1.43705 93.8214 1.82362 94.5111 2.39508C95.2388 3.00015 95.7224 3.74809 95.8192 4.71872C96.0042 6.62638 96.9758 7.72727 98.8642 8.08023C100.248 8.34075 101.644 8.56765 103.041 8.72732C104.845 8.92902 106.636 8.85338 108.395 8.27352C106.653 9.60132 104.744 10.4921 102.502 10.6308C103.419 11.2317 104.454 11.3955 105.509 11.3031C106.536 11.2106 107.549 10.9837 108.605 10.8619C108.045 11.1308 107.494 11.4207 106.922 11.6644C104.353 12.7611 101.657 13.1813 98.8768 13.0175C97.1692 12.9166 95.7014 12.2191 94.4439 11.0342C94.2883 11.114 94.1326 11.1896 93.9812 11.2653C94.0149 11.3535 94.0191 11.4123 94.0527 11.4375C95.3355 12.4712 95.3187 13.0469 93.9476 14.0469C94.1831 14.3284 94.4228 14.61 94.6878 14.9251C94.4481 15.1142 94.2714 15.2529 94.0485 15.4293C94.5238 15.8705 95.0831 16.2613 95.1336 16.9714C95.1841 17.7278 94.5995 18.0471 94.0275 18.4463C94.3219 18.606 94.5911 18.7236 94.835 18.8833C95.2303 19.1438 95.2388 19.3917 94.8728 19.6859C94.7719 19.7657 94.6541 19.8245 94.5406 19.8875C94.427 19.9464 94.3135 19.9968 94.0864 20.106C94.3051 20.2237 94.4523 20.2951 94.591 20.3792C94.8602 20.5388 95.1504 20.6733 95.386 20.875C96.1136 21.4801 96.1893 22.2238 95.5374 22.9129C95.1504 23.3247 94.6541 23.6398 94.1579 24.039C94.3093 24.1651 94.4817 24.2995 94.6415 24.4382C95.1378 24.871 95.1294 25.0727 94.5995 25.455C94.5154 25.5139 94.427 25.5727 94.3219 25.6441C94.6247 25.8752 94.9191 26.0811 95.1967 26.308C95.5247 26.5769 95.7855 26.8711 95.7771 27.3585C95.7729 27.5896 95.9664 27.8291 96.0757 28.0602C96.307 28.5518 96.4668 29.0393 95.9495 29.5099C96.3996 29.7788 96.8075 30.0015 97.1944 30.2536C98.0188 30.7872 98.7043 31.4469 99.1628 32.3377C99.5203 33.0353 99.5203 33.7748 99.0913 34.3462C98.637 34.9471 98.7885 35.4934 98.8642 36.1573C99.5413 36.3295 100.214 36.5396 100.9 36.6657C101.375 36.7539 101.606 36.985 101.779 37.422C104.731 44.9014 107.68 52.3808 110.035 60.0786C110.073 60.2005 110.123 60.3181 110.182 60.4778C110.678 60.3139 111.2 60.2635 111.553 59.8181C111.625 59.7299 111.755 59.6542 111.868 59.6374C112.483 59.5492 113.059 59.4567 113.58 59.0113C113.879 58.755 114.413 58.7718 114.842 58.6584C115.019 58.6122 115.191 58.5533 115.406 58.4861C115.523 57.6919 115.149 57.1121 114.459 56.5532C114.821 56.2549 115.107 55.9398 115.464 55.7465C115.805 55.5616 116.217 55.507 116.705 55.3641C116.73 55.3305 116.831 55.1876 116.941 55.0321C117.185 55.1414 117.395 55.238 117.609 55.3347C117.731 55.1288 117.811 54.8094 117.958 54.7716C119.01 54.5237 119.473 53.448 120.436 53.0699C120.663 52.9816 120.814 52.6035 120.915 52.3261C121.016 52.0446 120.785 51.9858 120.52 51.9732C120.503 52.2169 120.49 52.4396 120.474 52.7169C120.141 52.6539 119.729 52.9018 119.763 52.2715C119.767 52.1707 119.426 52.0026 119.22 51.9438C118.228 51.6706 118.228 51.679 118.278 50.6664C118.291 50.3807 118.295 50.0907 118.295 49.805C118.299 49.5235 118.295 49.2377 118.295 48.9184C118.678 48.7881 119.018 48.6747 119.38 48.5486C119.38 38.2834 119.38 28.0224 119.38 17.7572C119.489 17.7236 119.561 17.6816 119.632 17.6773C122.492 17.6395 125.34 17.8034 128.073 18.711C128.927 18.9967 129.752 19.4421 130.509 19.938C131.371 20.501 131.854 21.333 131.985 22.4045C132.225 24.4214 133.259 25.4719 135.211 25.7702C136.628 25.9887 138.05 26.2156 139.475 26.3753C141.128 26.5643 142.764 26.4719 144.354 25.9257C144.396 25.9088 144.455 25.9341 144.506 25.9383C143.521 26.9803 141.532 27.7871 138.525 28.3165C140.657 29.3208 142.655 28.972 144.682 28.4846C144.543 28.577 144.417 28.6863 144.27 28.7619C141.187 30.3502 137.907 30.9973 134.475 30.5772C132.183 30.2956 130.437 29.0771 129.44 26.9299C128.969 25.9131 128.153 25.3122 127.152 24.9088C125.891 24.4004 124.566 24.2659 123.228 24.2869C122.24 24.3037 121.252 24.4004 120.284 24.4592C120.112 25.0727 120.053 47.1452 120.209 48.3511C120.659 48.5066 120.974 48.3848 121.218 47.9436C121.546 47.3553 121.866 46.7376 122.53 46.4309C122.762 46.3216 123.005 46.2334 123.237 46.1241C123.397 46.0485 123.594 45.9981 123.695 45.872C124.116 45.3468 124.692 45.1493 125.319 45.0148C125.764 44.9224 126.248 44.9098 126.669 44.5484C126.421 44.3299 126.202 44.1535 126.004 43.9644C125.251 43.2416 125.26 42.4979 126.038 41.8172C126.215 41.6659 126.416 41.5441 126.614 41.418C126.698 41.3634 126.871 41.334 126.879 41.2752C126.959 40.6659 127.51 40.4936 127.968 40.1491C127.716 39.9474 127.497 39.7793 127.291 39.5986C126.429 38.8339 126.45 38.0817 127.363 37.401C127.51 37.2918 127.67 37.2035 127.699 37.1867C127.83 36.6909 127.93 36.3169 128.04 35.8967C127.232 35.132 127.22 34.9345 127.951 34.0773C127.981 33.6109 128.006 33.1865 128.044 32.6067C128.015 32.5184 127.834 32.2495 127.863 32.01C127.897 31.7621 128.137 31.5394 128.309 31.2663C127.914 30.8839 127.973 30.4301 128.183 29.9385C128.364 29.5141 128.507 29.0729 128.679 28.6107C129.836 29.9553 130.075 30.6024 129.68 31.2999C129.958 31.8083 130.387 32.3209 129.794 32.905C129.924 33.3252 129.621 33.8126 129.996 34.195C130.05 34.2496 130.101 34.3126 130.147 34.3757C130.668 35.0774 130.626 35.4429 129.962 36.027C130.033 36.3926 130.105 36.7497 130.189 37.1783C131.455 38.0985 131.825 39.0187 129.958 40.4096C130.458 40.6491 130.971 40.8508 131.118 41.4516C131.152 41.5819 131.404 41.6575 131.556 41.7584C131.619 41.8004 131.686 41.8466 131.745 41.897C132.818 42.7122 132.797 43.498 131.657 44.1282C131.564 44.1787 131.476 44.2333 131.354 44.3047C131.354 44.5148 131.354 44.7417 131.354 44.9896C131.442 45.0401 131.526 45.0989 131.623 45.1367C132.448 45.4686 133.276 45.788 134.092 46.1283C134.357 46.2376 134.609 46.3805 134.849 46.5359C136.515 47.599 136.641 48.0906 136.468 50.2336C136.418 50.8723 135.997 51.3219 135.4 51.5824C134.744 51.8681 134.744 51.8681 134.773 52.6539C134.933 52.7253 135.118 52.8051 135.303 52.8892C136.115 53.2463 136.944 53.5783 137.738 53.9649C138.155 54.1708 138.516 54.4817 138.912 54.738C139.194 54.9187 139.471 55.1036 139.774 55.2422C140.46 55.5616 141.175 55.8221 141.843 56.1667C142.226 56.3641 142.55 56.6835 142.928 56.9692C142.697 57.6373 142.483 58.2466 142.234 58.9567C143.139 59.3853 144.009 59.8517 144.918 60.2257C147.113 61.1333 149.338 61.9737 151.529 62.8897C154.524 64.146 157.106 66.0663 159.625 68.0706C160.748 68.9656 161.876 69.8606 162.923 70.8439C163.852 71.7178 164.744 72.6507 165.53 73.6549C166.931 75.4449 168.277 77.2769 169.581 79.1384C171.372 81.6889 172.966 84.3445 173.711 87.4287C173.967 88.4876 174.333 89.5213 174.686 90.6894C175.094 90.9373 175.494 91.3365 175.797 91.9415C176.083 92.5088 176.495 93.1769 177.29 93.303C177.441 93.3282 177.584 93.4122 177.727 93.4752C178.488 93.8198 178.623 93.9879 178.821 94.9417C178.976 94.6013 179.086 94.3828 179.17 94.1601C179.262 93.9206 179.325 93.6685 179.397 93.4416C180.183 93.3198 180.158 93.3324 180.293 93.9963C180.36 94.3324 180.558 94.6518 180.734 94.9543C180.873 95.2022 181.071 95.4165 181.256 95.6728C180.961 96.114 181.016 96.4922 181.525 96.7863C181.618 96.7107 181.786 96.6393 181.798 96.5468C181.862 95.9628 182.265 95.9459 182.707 95.9375C183.043 95.9291 183.376 95.8745 183.683 95.8409C184.065 95.177 184.726 94.7022 184.499 93.8702C185.201 93.803 185.293 93.8408 185.323 94.3114C185.344 94.6938 185.432 94.9795 185.748 95.2568C186.114 95.5762 186.408 95.9838 186.324 96.5594C186.299 96.7401 186.357 97.03 186.723 97.1393C186.749 97.0006 186.77 96.904 186.778 96.8031C186.824 96.3451 187.182 96.2779 187.518 96.2779C188.225 96.2779 188.675 95.8829 189.066 95.3661C189.318 95.0341 189.318 95.0341 189.146 94.5341C189.697 94.0593 189.903 94.1139 190.063 94.7568C190.139 95.0762 190.256 95.3493 190.504 95.6182C190.799 95.9417 191.047 96.3829 190.971 96.8998C190.95 97.0468 191.034 97.2065 191.118 97.5721C191.468 96.862 191.951 96.7821 192.473 96.7149C193.049 96.6393 193.604 96.0174 193.697 95.4459C193.726 95.2652 193.705 95.0635 193.781 94.9123C193.852 94.7736 194.016 94.6013 194.151 94.5929C194.29 94.5845 194.471 94.7316 194.576 94.8577C194.668 94.9669 194.723 95.1392 194.727 95.282C194.74 95.8241 195.11 96.093 195.518 96.3493C195.556 96.7401 195.593 97.1183 195.64 97.6099C195.804 97.5427 196.039 97.5132 196.064 97.4292C196.191 96.9586 196.552 96.925 196.922 96.9166C197.385 96.9082 197.734 96.7191 197.957 96.3283C198.054 96.1602 198.151 95.9543 198.142 95.7695C198.113 95.0089 198.235 94.8703 198.992 94.9207C199.063 94.9249 199.135 94.9711 199.244 95.0173C199.253 95.1602 199.248 95.3115 199.274 95.4585C199.341 95.8535 199.408 96.2149 199.732 96.5468C200.043 96.8662 200.447 97.2779 200.102 97.8536C200.064 97.9124 200.169 98.1435 200.249 98.1687C200.371 98.2066 200.573 98.1855 200.657 98.1057C200.8 97.967 200.872 97.7612 200.977 97.5805C201.932 97.3368 202.592 96.6182 202.638 95.6728C202.907 95.6266 203.193 95.5804 203.568 95.5173C203.627 95.9165 203.614 96.2611 203.74 96.5468C203.883 96.8788 204.102 97.2107 204.371 97.446C204.678 97.7191 204.926 98.2024 205.481 98.0133C206.036 97.8242 205.961 97.32 206.007 96.904C206.638 91.3869 207.466 85.8992 208.467 80.4326C209.035 77.3442 209.948 74.3482 210.831 71.3481C211.744 68.2471 212.846 65.1965 213.948 62.1543C214.612 60.3181 215.453 58.5407 216.189 56.7255C216.572 55.7843 216.9 54.8263 217.249 53.8724C217.443 53.3346 217.745 52.9312 218.309 52.7001C218.852 52.4774 219.175 52.0614 219.1 51.4059C219.07 51.1622 219.167 50.9059 219.205 50.6832C219.655 50.5319 220.042 50.4059 220.467 50.263C220.395 50.0151 220.357 49.8386 220.294 49.6705C219.731 48.2293 220.286 46.3721 221.636 45.5695C222.199 45.2333 222.347 44.8636 222.342 44.2585C222.326 34.611 222.33 24.9634 222.33 15.3159C222.33 15.0049 222.33 14.694 222.33 14.341C222.49 14.3116 222.612 14.2654 222.729 14.2738C224.184 14.3747 225.648 14.4419 227.099 14.5932C228.87 14.7822 230.624 15.0806 232.247 15.8579C232.785 16.1142 233.303 16.4378 233.77 16.8076C234.564 17.4294 234.998 18.253 235.086 19.2867C235.221 20.8792 236.213 22.0809 237.757 22.3793C239.447 22.707 241.159 22.9381 242.871 23.1314C244.469 23.3121 246.05 23.1356 247.607 22.5852C246.774 23.6524 244.305 24.6609 241.786 24.9886C242.728 25.808 244.246 25.85 247.821 25.2155C247.464 25.4088 247.119 25.6231 246.749 25.7912C243.96 27.0644 241.029 27.6526 237.971 27.3627C235.494 27.1274 233.568 25.9677 232.495 23.623C232.104 22.77 231.44 22.2154 230.624 21.8036C229.719 21.3498 228.748 21.1649 227.755 21.0683C226.241 20.9212 224.74 21.0263 223.188 21.2406C223.188 28.8082 223.188 36.3253 223.188 43.9476C223.886 43.6786 224.311 43.1156 224.925 42.6702C224.626 42.355 224.361 42.0777 224.1 41.8004C223.423 41.0819 223.394 40.3171 224.079 39.6112C224.437 39.2414 224.87 38.9431 225.278 38.6154C225.707 38.275 226.14 37.9431 226.628 37.5649C226.191 37.2666 225.795 37.0313 225.442 36.7455C224.466 35.9556 224.534 34.3799 225.572 33.6445C225.846 33.4512 226.157 33.3084 226.43 33.1571C226.275 32.8294 225.993 32.5058 226.01 32.2033C226.022 31.9302 226.367 31.6738 226.599 31.3671C226.292 30.9553 225.652 30.6654 225.661 29.9805C225.669 29.2662 226.308 29.0224 226.725 28.6191C226.123 27.7409 226.191 28.0476 226.826 27.2619C226.649 27.0518 226.468 26.8375 226.254 26.5812C226.645 25.455 227.032 24.3331 227.486 23.0222C227.751 23.3541 227.936 23.518 228.037 23.7281C228.268 24.1945 228.458 24.6861 228.672 25.1609C228.954 25.7744 229.16 26.3837 228.647 27.0055C228.845 27.2493 229.084 27.4425 229.181 27.6905C229.269 27.9216 229.198 28.2157 229.198 28.5728C229.303 28.6653 229.505 28.8292 229.686 29.0182C230.228 29.5813 230.22 30.0225 229.681 30.5729C229.505 30.7536 229.345 30.9427 229.139 31.1738C229.917 31.7789 229.761 32.405 229.231 33.0395C229.597 33.2832 229.938 33.4807 230.241 33.7202C231.116 34.4093 231.238 35.2286 230.561 36.1068C230.228 36.5354 229.799 36.8884 229.349 37.3422C229.984 37.859 230.333 38.6196 231.09 38.9893C231.275 39.0818 231.44 39.2204 231.595 39.3549C232.483 40.1196 232.567 41.0777 231.831 41.9769C231.683 42.1576 231.515 42.3172 231.326 42.5231C231.751 43.0862 232.251 43.5274 232.819 43.8929C233.324 44.2165 233.332 44.2039 233.298 44.6661C234.056 45.3258 234.838 45.872 235.448 46.5695C236.575 47.8595 236.474 49.1705 235.284 50.4059C235.031 50.6664 234.754 50.9059 234.413 51.2252C235.708 51.969 237.021 52.5488 238.514 52.9606C238.779 53.6371 239.077 54.3851 239.367 55.1372C240.28 57.5281 241.26 59.8937 242.089 62.314C243.287 65.8226 244.494 69.3354 245.478 72.9028C246.4 76.2391 247.039 79.6552 247.792 83.0377C248.027 84.105 248.271 85.1765 248.439 86.2606C248.666 87.7271 248.843 89.2019 249.016 90.6768C249.306 93.1895 249.613 95.698 249.84 98.2192C249.979 99.7486 249.924 101.299 250.042 102.833C250.311 106.262 250.5 109.699 251.161 113.09C251.333 113.976 251.257 114.909 251.283 115.825C251.299 116.451 251.287 117.073 251.287 117.716C251.602 117.838 251.838 117.93 252.098 118.031C252.111 118.052 252.166 118.098 252.157 118.136C251.993 119.069 252.41 119.914 252.565 120.796C252.75 121.846 252.956 122.897 253.091 123.956C253.141 124.359 253.028 124.779 252.99 125.208C253.289 125.376 253.596 125.544 253.936 125.733C253.814 126.031 253.718 126.267 253.613 126.523C253.785 126.8 254.138 127.053 253.81 127.469C253.756 127.536 253.844 127.779 253.932 127.885C254.151 128.141 254.399 128.372 254.647 128.595C254.891 128.817 255.148 129.023 255.404 129.238C255.202 129.662 255.034 130.006 254.841 130.414C255.228 130.527 255.564 130.624 255.93 130.733C256.018 131.036 256.401 131.296 256.064 131.696C256.022 131.746 256.128 131.931 256.178 132.044C256.338 132.402 256.506 132.754 256.716 133.208C256.906 132.927 257.07 132.704 257.217 132.473C258.714 130.141 260.262 127.842 262.104 125.767C262.705 125.086 263.42 124.506 264.093 123.884C264.842 123.195 265.586 122.498 266.36 121.834C269.931 118.762 273.851 116.245 278.238 114.48C278.359 114.43 278.473 114.371 278.633 114.296C278.448 114.102 278.275 113.917 278.027 113.657C280.101 113.178 282.149 113.073 284.046 112.287C283.899 111.926 283.756 111.644 283.671 111.346C283.545 110.896 283.634 110.72 284.075 110.573C284.597 110.405 285.127 110.249 285.661 110.153C286.325 110.035 286.872 109.745 287.402 109.329C288.34 108.585 289.189 107.707 290.363 107.308C290.455 107.278 290.607 107.203 290.607 107.148C290.619 106.467 291.221 106.539 291.612 106.358C291.822 106.262 292.058 106.224 292.352 106.14C292.264 105.682 292.176 105.241 292.075 104.724C290.779 104.799 289.534 104.934 288.294 104.925C287.074 104.917 285.854 104.757 284.584 104.656C284.584 104.026 284.571 103.48 284.588 102.934C284.605 102.387 284.677 101.837 284.672 101.291C284.668 100.904 284.828 100.702 285.185 100.635C285.724 100.534 286.262 100.442 286.868 100.337C286.868 88.4078 286.868 76.4702 286.868 64.5116C287.015 64.4654 287.108 64.4108 287.2 64.4108C289.576 64.478 291.961 64.5242 294.287 65.0957C295.17 65.3142 296.036 65.6251 296.886 65.9571C297.647 66.2554 298.303 66.7428 298.838 67.3731C299.288 67.9025 299.553 68.5034 299.616 69.2135C299.78 71.0245 300.776 72.1717 302.555 72.4868C304.406 72.8145 306.248 73.2221 308.141 73.2473C309.424 73.2641 310.689 73.1423 311.989 72.7095C311.257 73.7516 308.679 74.7768 306.16 75.0415C307.161 75.6592 308.149 75.8063 309.146 75.7391C310.126 75.676 311.102 75.4701 312.145 75.3189C312.006 75.4281 311.913 75.529 311.8 75.5836C308.86 77.0795 305.735 77.7224 302.463 77.4156C299.982 77.1803 298.081 75.9744 297.008 73.6339C296.608 72.7641 295.898 72.2053 295.04 71.8061C293.976 71.3103 292.84 71.1044 291.692 71.0792C290.493 71.0539 289.29 71.1758 288.092 71.243C287.97 71.2514 287.848 71.3229 287.667 71.3901C287.667 71.6716 287.667 71.9532 287.667 72.2389C287.667 81.2855 287.667 90.3322 287.667 99.3747C287.667 99.5049 287.663 99.6352 287.667 99.7655C287.692 100.291 287.751 100.354 288.247 100.383C288.609 100.404 288.971 100.417 289.366 100.434C289.719 99.1898 290.645 98.6141 291.818 98.404C292.34 98.3116 292.403 97.8494 292.684 97.5637C292.781 97.4628 292.84 97.3074 292.958 97.2485C293.37 97.0258 293.803 96.8409 294.224 96.635C295.069 96.2191 295.355 95.5552 295.204 94.656C295.111 94.1013 294.859 93.7105 294.316 93.45C294.392 93.2609 294.409 93.0298 294.527 92.9542C294.989 92.6559 295.035 91.9878 295.738 91.8449C296.293 91.7314 296.306 90.7986 295.86 90.349C295.641 90.1263 295.414 89.9036 295.237 89.6473C294.379 88.4035 294.905 87.0169 296.386 86.5841C296.457 86.5631 296.533 86.5463 296.722 86.5043C296.6 86.2438 296.491 86.0169 296.365 85.7522C296.579 85.6093 296.815 85.4538 297.088 85.2731C297.105 85.0168 297.096 84.7941 296.823 84.5714C295.885 83.7983 295.919 83.1764 296.882 82.4537C297.025 82.3444 297.155 82.2142 297.269 82.1133C297.147 81.8234 296.92 81.5419 296.958 81.3024C296.991 81.0755 297.302 80.8864 297.492 80.6847C296.47 79.7939 296.852 79.6594 297.227 78.756C297.487 78.1299 297.799 77.5291 298.089 76.9156C298.173 76.7349 298.266 76.5542 298.4 76.2727C298.526 76.5206 298.606 76.6677 298.678 76.8189C298.913 77.3148 299.145 77.8064 299.376 78.3022C299.485 78.5375 299.611 78.7686 299.704 79.0123C300.049 79.8989 300.011 80.0082 299.132 80.5838C299.359 80.8191 299.565 81.0376 299.822 81.3066C299.717 81.483 299.603 81.6721 299.477 81.8864C299.502 81.9326 299.527 82.0083 299.574 82.0629C299.801 82.3108 300.074 82.5293 300.259 82.8066C300.739 83.521 300.612 84.0588 299.893 84.5294C299.742 84.6261 299.574 84.6975 299.33 84.8235C299.41 84.9874 299.464 85.1807 299.582 85.3152C300.07 85.8698 300.078 85.9034 299.527 86.4329C299.607 86.5253 299.67 86.6514 299.771 86.7102C300.444 87.0926 300.827 87.7186 301.109 88.3951C301.466 89.2607 301.176 89.9246 300.331 90.3322C300.095 90.4457 299.843 90.5171 299.599 90.6095C299.388 90.6894 299.182 90.7692 298.821 90.9037C299.653 91.3533 299.948 92.2063 300.802 92.4332C301.113 92.5172 301.104 92.6222 301.247 93.2483C300.49 93.3114 300.444 93.908 300.394 94.4711C300.335 95.1098 300.246 95.7695 300.806 96.2779C300.882 96.3451 300.924 96.4628 301.008 96.5006C301.504 96.7233 301.992 97.0174 302.518 97.1225C303.069 97.2359 303.283 97.4922 303.275 98.0133C303.275 98.0889 303.304 98.1645 303.334 98.3116C303.632 98.3788 303.956 98.4587 304.284 98.5175C305.462 98.7192 306.257 99.7445 306.328 100.442C306.446 101.576 306.219 102.598 305.129 103.203C304.705 103.438 304.461 103.774 304.322 104.207C304.116 104.85 303.931 105.501 304.032 106.249C304.309 106.308 304.583 106.362 304.911 106.43C304.915 106.762 305.117 106.913 305.462 107.005C306.391 107.266 307.115 107.892 307.809 108.522C308.641 109.274 309.567 109.821 310.673 110.06C310.954 110.119 311.232 110.199 311.497 110.308C312.153 110.585 312.246 110.896 311.884 111.531C311.77 111.728 311.653 111.922 311.501 112.174C311.711 112.232 311.85 112.279 311.997 112.316C313.112 112.598 314.218 112.892 315.337 113.148C315.833 113.262 316.346 113.304 316.906 113.388C316.868 113.506 316.817 113.661 316.763 113.838C316.939 113.88 317.112 113.922 317.309 113.968C317.343 114.144 317.373 114.317 317.406 114.489C322.689 116.485 327.172 119.674 331.374 123.561C331.47 123.111 331.58 122.775 331.613 122.435C331.824 120.245 332.387 118.124 332.93 116.002C332.963 115.876 333.06 115.728 333.022 115.632C332.741 114.93 333.123 114.497 333.586 114.06C333.72 113.934 333.784 113.699 333.817 113.501C334.301 110.674 334.772 107.846 335.251 105.018C335.727 102.215 336.181 99.4083 336.896 96.6561C337.459 94.4879 338.153 92.3491 338.767 90.1936C339.718 86.8531 340.921 83.5966 342.115 80.3401C342.246 79.9872 342.477 79.6174 342.031 79.277C342.641 78.8148 342.426 77.7644 343.394 77.6761C343.444 77.2517 343.373 76.7937 343.562 76.508C343.747 76.2307 344.197 76.134 344.571 75.9365C344.5 75.7811 344.424 75.6214 344.353 75.4617C343.852 74.3356 344.063 73.4028 345.009 72.5834C345.303 72.3271 345.585 72.0456 345.905 71.8229C346.3 71.554 346.393 71.2094 346.393 70.7556C346.376 67.5118 346.384 64.2721 346.384 61.0282C346.384 56.7423 346.384 52.4522 346.384 48.1663C346.384 47.8805 346.384 47.599 346.384 47.2124C346.927 47.2124 347.415 47.1998 347.902 47.2166C350.232 47.2965 352.546 47.4729 354.796 48.1495C355.83 48.4604 356.819 48.8722 357.664 49.5571C358.417 50.1706 358.905 50.9185 359.027 51.9312C359.288 54.1119 360.461 55.1498 362.698 55.3809C363.763 55.4902 364.806 55.7633 365.87 55.8851C367.644 56.091 369.419 56.112 371.152 55.5616C371.245 55.5322 371.354 55.5364 371.472 55.5784C369.789 56.8726 367.909 57.6625 365.764 57.8432C366.635 58.4651 367.632 58.5575 368.629 58.4903C369.609 58.4231 370.584 58.234 371.611 58.0953C371.472 58.192 371.358 58.3012 371.224 58.3684C368.906 59.5534 366.442 60.1711 363.842 60.2299C363.346 60.2425 362.846 60.2551 362.349 60.2257C359.691 60.066 357.651 58.9273 356.474 56.4608C355.982 55.4271 355.132 54.8136 354.098 54.4271C352.705 53.906 351.246 53.7842 349.774 53.8346C348.941 53.864 348.113 53.9733 347.234 54.0489C347.234 58.7928 347.234 63.4779 347.234 68.1799C348.071 67.4823 348.882 66.81 349.803 66.0453C349.484 65.915 349.265 65.8184 349.038 65.7302C348.525 65.5369 348.138 65.2721 348.113 64.6293C348.087 63.9738 348.176 63.4359 348.853 63.1544C349.135 63.0367 349.4 62.8771 349.77 62.6838C349.496 62.4779 349.307 62.3308 349.072 62.1543C349.227 61.8728 349.387 61.5829 349.543 61.293C348.365 60.5324 348.361 60.1248 349.45 59.3853C349.576 59.3013 349.694 59.2046 349.816 59.1122C349.282 58.5911 349.282 58.5911 349.698 58.1037C349.572 57.9314 349.438 57.7466 349.286 57.5407C349.551 56.5616 349.719 55.5322 350.283 54.5153C351.246 55.9566 351.587 57.4146 351.259 59.0491C351.452 59.234 351.671 59.4273 351.864 59.6374C352.31 60.1164 352.306 60.3643 351.856 60.8392C351.713 60.9904 351.553 61.1249 351.376 61.2888C351.418 61.6165 352.083 61.9401 351.355 62.356C351.574 62.5619 351.742 62.7762 351.957 62.9065C352.268 63.0956 352.676 63.2174 352.68 63.646C352.684 64.1797 352.785 64.7721 352.293 65.1797C351.936 65.4738 351.553 65.7344 351.116 66.0579C351.301 66.1714 351.448 66.2554 351.587 66.352C351.822 66.5117 352.054 66.6714 352.281 66.8437C352.504 67.0117 352.718 67.1924 352.937 67.3647C353.101 67.4908 353.29 67.5958 353.437 67.7387C353.866 68.1504 353.917 68.4824 353.614 68.995C353.471 69.2387 353.277 69.453 353.092 69.7009C353.656 70.2304 354.539 70.5245 354.598 71.5456C355.292 71.7641 355.893 72.1548 356.293 72.7977C356.44 73.033 356.533 73.3062 356.638 73.5667C356.827 74.0457 356.756 74.4701 356.402 74.8651C356.074 75.2348 355.931 75.655 356.091 76.1676C356.167 76.4072 356.129 76.6803 356.15 76.9828C356.381 77.0458 356.604 77.1047 356.823 77.1677C357.546 77.382 358.059 77.8526 358.316 78.5501C359.296 81.2225 360.272 83.8907 361.205 86.5799C362.072 89.0716 362.677 91.639 363.191 94.2274C363.506 95.8157 363.763 97.4124 364.128 98.9881C364.406 100.177 364.818 101.337 365.171 102.505C365.798 104.581 366.379 106.665 366.694 108.812C366.728 109.043 366.866 109.287 367.018 109.472C367.308 109.829 367.426 110.19 367.371 110.669C367.316 111.174 367.409 111.695 367.443 112.224C367.695 112.279 367.893 112.317 368.12 112.367C368.221 112.644 368.351 112.926 368.423 113.224C368.486 113.472 368.599 113.825 368.486 113.976C368.17 114.388 368.359 114.762 368.444 115.144C368.683 116.212 369.003 117.266 369.184 118.346C369.39 119.577 369.533 120.825 369.609 122.073C369.76 124.473 369.844 126.872 369.966 129.271C369.983 129.62 369.991 129.939 370.286 130.267C370.488 130.49 370.408 131.002 370.391 131.38C370.37 131.876 369.853 131.788 369.529 132.019C369.718 132.624 369.911 133.242 370.143 133.973C370.753 134.082 371.543 134.04 372.132 134.57C372.334 134.75 372.452 135.028 372.649 135.33C372.393 135.473 372.199 135.595 371.993 135.687C371.426 135.944 371.375 136.12 371.383 136.771C371.392 137.511 371.569 138.204 371.821 138.872C372.199 139.885 372.098 140.927 372.128 141.969C372.141 142.423 371.997 142.902 372.372 143.318C372.443 143.398 372.321 143.7 372.229 143.864C372.166 143.974 371.993 144.016 371.775 144.15C372.359 144.406 372.818 144.356 373.268 144.133C373.406 144.066 373.524 143.894 373.659 143.885C374.462 143.843 374.761 143.289 375.093 142.667C375.56 141.78 376.174 140.902 377.208 140.709C378.041 140.553 378.479 140.217 378.63 139.41C378.672 139.192 378.845 138.994 378.979 138.805C379.324 138.309 379.77 138.04 380.409 137.994C381.662 137.902 382.769 138.351 383.887 138.788C384.363 138.973 384.846 139.15 385.326 139.326C385.355 139.267 385.385 139.204 385.414 139.146C384.838 138.797 384.287 138.385 383.677 138.108C383.08 137.835 382.419 137.7 381.704 137.477C382.495 137.238 383.185 137.061 383.837 137.818C383.614 137.074 383.446 136.914 382.731 136.792C382.386 136.734 382.091 136.629 381.852 136.351C382.289 135.893 382.76 136.385 383.349 136.242C382.975 136.053 382.735 135.931 382.453 135.788C382.516 135.364 382.571 134.927 382.642 134.49C382.806 133.477 383.664 133.023 384.606 133.452C384.821 133.549 385.023 133.666 385.284 133.801C385.717 132.658 386.365 131.662 387.159 130.759C387.416 130.464 387.681 130.288 388.102 130.33C388.421 130.359 388.644 130.473 388.795 130.75C389.25 131.599 389.775 132.423 389.78 133.452C389.927 133.502 390.045 133.57 390.167 133.574C390.646 133.599 390.898 133.897 390.945 134.313C391.008 134.902 391.382 135.477 390.911 136.108C390.743 136.33 390.886 136.788 390.886 137.183C390.633 137.141 390.469 137.112 390.301 137.082C390.162 137.767 390.167 137.851 390.692 137.965C391.441 138.125 391.714 138.7 391.782 139.305C391.958 140.898 392.32 142.44 392.799 143.961C392.892 144.251 392.883 144.579 392.9 144.894C392.984 146.797 393.06 148.705 393.136 150.608C393.14 150.688 393.136 150.764 393.136 150.844C393.148 151.755 393.178 152.663 393.169 153.575C393.165 154.382 393.111 155.184 393.098 155.991C393.094 156.264 393.148 156.541 393.182 156.848C393.716 156.823 394.149 156.878 394.528 157.23C394.755 157.441 394.919 157.718 394.759 157.89C394.368 158.319 394.726 158.823 394.507 159.281C394.305 159.705 394.343 160.247 394.288 160.739C394.267 160.916 394.284 161.1 394.284 161.369C394.637 161.432 394.986 161.491 395.331 161.55C395.92 161.651 395.958 161.697 396 162.437C395.394 162.525 395.378 163.012 395.373 163.491C395.365 165.008 395.365 166.525 395.361 168.042C395.361 168.323 395.361 168.601 395.361 168.971C394.932 168.971 394.599 168.971 394.267 168.971C345.097 168.971 295.927 168.971 246.757 168.971C174.926 168.971 103.091 168.971 31.2601 168.971C30.8689 168.971 30.4778 168.954 30.0866 168.912C29.8806 168.891 29.6829 168.811 29.6745 168.529C29.6703 168.286 29.7964 168.26 29.9983 168.197C30.4778 168.046 30.2675 167.605 30.4273 167.185C29.2539 167.378 29.0983 166.34 28.337 165.769C28.8543 165.689 29.2034 165.626 29.5567 165.584C30.5955 165.458 30.7932 165.277 30.8058 164.269C30.8311 162.571 30.8647 160.869 30.8058 159.176C30.7722 158.218 30.5535 157.268 30.4063 156.26C29.9226 156.352 29.4516 156.441 28.9847 156.529C28.9048 156.373 28.8333 156.239 28.7408 156.058C28.6777 156.151 28.6188 156.197 28.602 156.256C28.4464 156.802 28.316 156.865 27.8912 156.537C27.6641 156.365 27.4118 156.188 27.2688 155.953C26.9071 155.373 26.9954 154.81 27.5547 154.302C27.3613 154.096 27.1888 153.915 26.9954 153.714C25.9776 154.94 25.4687 156.323 25.1869 157.798C25.1532 157.983 25.2374 158.193 25.2878 158.39C25.3131 158.487 25.393 158.571 25.4308 158.668C25.7799 159.504 25.7042 159.823 24.9766 160.47C25.0859 160.592 25.1743 160.785 25.3089 160.832C25.7252 160.97 25.8388 161.306 25.9271 161.663C26.1037 162.386 26.1752 163.096 25.7883 163.79C25.679 163.983 25.6495 164.222 25.5402 164.571C26.5075 164.508 27.3739 164.449 28.3496 164.382C28.1688 165.34 27.2603 165.424 26.8229 165.962C26.7851 166.235 26.7388 166.533 26.7094 166.832C26.701 166.912 26.7514 166.996 26.7556 167.08C26.7641 167.239 26.7935 167.407 26.7514 167.559C26.6253 167.996 26.4697 168.424 26.3014 168.937C22.6802 168.937 18.9286 168.937 15.1518 168.937C15.1518 168.571 15.1518 168.244 15.1518 167.916C14.3401 167.681 14.2938 167.693 13.8649 168.344C13.9574 168.504 14.0583 168.672 14.2055 168.929C13.5326 168.929 12.9522 168.929 12.3087 168.929C12.3087 168.853 12.2919 168.756 12.3129 168.668C12.4054 168.202 12.2582 167.933 11.8166 167.832C11.5138 167.765 11.2026 167.735 10.8619 167.685C10.7021 167.13 10.7736 166.592 10.8241 166.05C10.8829 165.441 10.7273 165.168 10.2731 164.962C9.89037 164.79 9.69691 164.874 9.58755 165.29C9.38988 166.05 9.23847 166.811 9.34782 167.609C9.4025 168.017 9.39408 168.437 9.41932 168.954C8.88939 168.966 8.40572 168.983 7.92205 168.987C7.42997 168.992 6.93369 168.987 6.38694 168.987C6.34908 168.609 6.31544 168.281 6.286 167.975C5.95374 167.781 5.64671 167.601 5.30604 167.399C5.60886 166.941 5.87383 166.542 6.18085 166.08C5.28922 165.727 4.53638 166.029 3.6027 166.34C4.71303 166.991 4.90649 167.828 4.53638 168.891C1.27688 169.097 -1.95738 168.924 -5.158 169C-5.38091 168.727 -5.56596 168.496 -5.78045 168.231C-5.65007 168.151 -5.54914 168.05 -5.43558 168.034C-5.14117 167.996 -5.03603 167.823 -5.02341 167.559C-5.00659 167.172 -4.9435 166.781 -4.98135 166.399C-5.03182 165.924 -5.34305 165.811 -5.75101 166.059C-5.81831 166.101 -5.87298 166.155 -5.93607 166.202C-6.05804 166.294 -6.18421 166.386 -6.34824 166.508C-6.09168 166.815 -5.89401 167.046 -5.70055 167.277C-6.10431 168.164 -6.39871 168.29 -7.09687 167.895C-7.6268 167.592 -7.6268 167.458 -7.0464 166.601C-7.41231 166.328 -7.78662 166.054 -8.15673 165.781C-8.26188 165.706 -8.43011 165.647 -8.46376 165.546C-8.70349 164.832 -9.25445 165.05 -9.797 165.05C-9.88532 165.525 -10.0704 165.912 -10.6297 165.916C-10.7181 165.916 -10.8737 165.991 -10.8863 166.059C-10.9704 166.504 -11.3447 166.588 -11.5803 166.647C-12.1312 167.311 -11.4541 167.714 -11.3994 168.231C-11.6938 168.471 -12.2069 168.37 -12.3121 168.878C-12.3289 168.954 -12.7411 168.975 -12.9682 168.979C-14.8524 168.987 -16.7366 168.983 -18.6208 168.983C-20.0339 168.983 -21.4471 168.983 -22.8602 168.983C-23.142 168.983 -23.4196 169.025 -23.6004 168.693C-23.7687 168.387 -24.0841 168.475 -24.3701 168.517C-24.3701 168.676 -24.3701 168.798 -24.3701 168.916C-24.4248 168.937 -24.4668 168.975 -24.5131 168.975C-25.186 168.975 -25.8421 169.038 -26.5025 168.727C-26.8978 168.542 -27.4151 168.613 -27.9072 168.567C-27.9997 167.895 -28.1133 167.281 -28.1637 166.66C-28.2058 166.151 -28.2605 165.676 -28.6642 165.307C-28.7441 165.231 -28.7568 165.08 -28.8283 164.882C-28.4876 164.849 -28.21 164.819 -27.9324 164.798C-27.6717 164.777 -27.4067 164.786 -27.1501 164.748C-26.4982 164.647 -26.309 164.37 -26.4225 163.714C-26.5908 162.739 -26.759 161.76 -26.9356 160.785C-27.0955 159.886 -27.2721 158.991 -27.4151 158.092C-27.4698 157.76 -27.4277 157.415 -27.4614 157.075C-27.4782 156.882 -27.5539 156.693 -27.6128 156.508C-27.6254 156.462 -27.7221 156.415 -27.7137 156.394C-27.4361 155.73 -28.088 155.369 -28.2058 154.84C-29.2825 154.987 -30.1405 155.915 -30.3634 157.201C-30.0269 157.504 -29.4591 157.604 -29.375 158.197C-29.3035 158.718 -29.4255 158.949 -30.0732 159.315C-29.8923 159.991 -29.6274 160.651 -29.5643 161.327C-29.4928 162.071 -30.2498 162.441 -30.662 163.109C-30.0564 163.231 -29.518 163.34 -28.946 163.458C-29.1437 163.945 -29.4507 164.206 -29.8419 164.395C-30.0522 164.496 -30.2709 164.596 -30.4559 164.739C-30.9648 165.134 -30.8513 165.638 -30.1951 165.966C-30.1825 166.891 -31.1204 166.622 -31.6041 167.092C-31.4232 167.315 -31.2424 167.534 -31.0195 167.807C-31.2592 168.172 -31.5116 168.559 -31.7681 168.954C-31.9616 168.966 -32.1424 168.987 -32.3233 168.987C-35.1748 168.987 -38.0264 168.992 -40.8821 168.987C-41.2354 168.987 -41.6686 169.109 -41.6223 168.479C-42.0303 168.672 -42.3878 168.996 -42.6443 168.929C-43.0355 168.832 -43.3635 168.462 -43.721 168.206C-43.6748 168.042 -43.6537 167.945 -43.6243 167.853C-43.3719 167.134 -43.3719 167.13 -44.0491 166.773C-44.2552 166.664 -44.457 166.55 -44.6463 166.449C-44.5496 166.05 -44.4612 165.685 -44.3813 165.353C-45.3445 164.55 -46.3496 164.008 -47.5483 163.84C-47.5357 163.781 -47.5273 163.722 -47.5146 163.664C-47.3548 163.63 -47.1992 163.575 -47.0394 163.563C-46.3623 163.521 -45.6809 163.483 -45.0038 163.47C-44.5916 163.462 -44.3561 163.298 -44.3561 162.869C-44.3561 162.483 -44.3561 162.092 -44.3897 161.706C-44.5033 160.277 -44.6253 158.848 -44.7472 157.415C-44.7893 156.949 -44.8356 156.495 -45.2898 156.188C-45.5001 156.046 -45.4875 155.802 -45.3907 155.55C-45.0963 154.768 -45.1047 154.764 -45.6935 154.298C-45.6262 152.747 -45.3234 151.218 -45.9669 149.713C-48.3642 149.608 -50.7069 149.503 -53.0958 149.398C-53.1673 148.86 -53.4448 148.541 -54 148.554C-54 148.503 -54 148.453 -54 148.398ZM83.9546 6.84068C84.1186 8.6643 83.7779 10.4081 84.1354 12.1435C84.228 12.5973 84.3037 13.0679 84.0597 13.5217C83.9924 13.6477 83.9966 13.8242 83.9924 13.9797C83.9588 14.8411 83.942 15.7025 83.8999 16.5638C83.8747 17.0429 83.9041 17.4883 84.1691 17.9127C84.3667 18.232 84.4719 18.648 84.1859 18.9421C83.8621 19.2741 83.8915 19.6396 83.8831 20.0262C83.8747 20.7573 83.8368 21.4885 83.8578 22.2196C83.8705 22.6524 83.9378 23.0936 84.0471 23.5138C84.2069 24.1315 84.3247 24.7239 83.984 25.329C83.8873 25.4971 83.8915 25.7282 83.8873 25.9341C83.8747 26.5097 83.8789 27.0854 83.8831 27.6568C83.8873 28.3333 83.8578 28.9972 84.1438 29.6569C84.2742 29.9553 84.3037 30.4595 84.1354 30.6906C83.8032 31.1486 83.8326 31.6108 83.8368 32.0982C83.8452 33.0142 83.9167 33.9303 83.8705 34.8379C83.8368 35.4808 84.1354 35.7245 84.7663 35.9093C85.1112 36.0102 85.4897 35.9976 85.8514 36.0312C86.6169 36.0984 87.172 35.7035 87.315 34.9639C87.4244 34.3841 87.3739 33.8252 86.9996 33.3252C86.8692 33.1487 86.7262 32.9008 86.743 32.7033C86.8061 32.0142 87.0206 31.3419 87.5842 30.9049C88.2361 30.3965 88.8712 29.8334 89.7081 29.6191C89.8974 29.5729 90.074 29.4763 90.2759 29.3964C89.8511 28.556 89.788 27.7997 90.5325 27.1484C90.5871 27.1022 90.6166 27.0182 90.6292 26.9467C90.7259 26.4467 91.1297 26.2408 91.5124 26.0223C91.7479 25.8878 92.0003 25.7786 92.2905 25.6315C92.1223 25.4845 92.0129 25.3752 91.8867 25.2828C91.7606 25.1903 91.6134 25.1231 91.4956 25.0223C91.1339 24.7113 91.1844 24.4634 91.6302 24.2827C91.8909 24.1777 92.1559 24.0768 92.5849 23.9087C92.1811 23.7365 91.9709 23.6482 91.7606 23.56C91.1087 23.2827 90.6965 22.8037 90.5913 22.1061C90.4862 21.4086 90.9194 20.98 91.4493 20.6481C91.8194 20.417 92.2148 20.2321 92.7405 19.9548C92.383 19.8035 92.1391 19.6859 91.8867 19.5976C91.6638 19.522 91.3526 19.48 91.4157 19.19C91.4535 19.0135 91.6975 18.8497 91.8825 18.7488C92.097 18.6312 92.3494 18.585 92.6354 18.4925C92.2232 18.2026 91.8783 17.9673 91.5461 17.7194C91.2979 17.5345 91.2138 17.2992 91.239 16.9714C91.2937 16.2865 91.5376 15.7655 92.2148 15.5092C92.3452 15.4588 92.4629 15.3747 92.6312 15.2781C92.3241 15.0806 92.0718 14.9251 91.6891 14.6814C92.1265 14.4671 92.4293 14.3158 92.8162 14.1268C92.2737 13.7444 91.525 13.6393 91.504 12.7443C91.483 11.8031 92.1727 11.6224 92.833 11.2905C92.5302 11.093 92.2947 10.9375 91.9835 10.7316C92.3367 10.5846 92.5681 10.4921 92.9298 10.3408C92.0087 9.74418 92.4082 9.1097 92.7952 8.50883C92.1895 7.73568 91.3988 7.3449 90.5451 7.07178C89.0562 6.59697 87.5211 6.51293 85.9692 6.62638C85.3257 6.681 84.6822 6.76504 83.9546 6.84068ZM28.7071 155.651C29.2875 155.546 29.7754 155.453 30.3348 155.352C30.2759 154.667 29.9983 154.066 29.4936 153.449C29.1614 153.789 28.8712 154.087 28.5684 154.398C28.7871 154.642 28.9763 154.852 29.1782 155.075C29.0268 155.26 28.8838 155.432 28.7071 155.651ZM347.196 69.348C347.196 69.7472 347.196 70.1379 347.196 70.5623C347.936 70.0581 347.928 69.9152 347.196 69.348Z" fill="#D1EAF4"/>
</svg>
