<svg width="18" height="22" viewBox="0 0 18 22" fill="none" xmlns="http://www.w3.org/2000/svg">
<path d="M5.47159 0.647669C5.04087 0.747469 4.54712 1.10465 4.3055 1.48809C4.01135 1.95033 4.01135 1.89255 4.01135 5.62717V9.07291L3.90105 8.78401C3.54912 7.84904 3.19194 6.98761 3.06063 6.71972C2.64041 5.8793 1.93656 5.54313 1.1224 5.79001C0.80199 5.88455 0.696937 5.94759 0.44481 6.19971C-0.0594436 6.70922 -0.127728 7.28701 0.203188 8.3638C0.607642 9.69797 0.744211 10.4596 0.796737 11.673C0.849263 12.9283 0.744211 13.6532 0.350262 14.7773C0.119146 15.4234 0.0613671 15.812 0.0613671 16.5579C0.0718724 17.9919 0.633905 19.2578 1.71595 20.261C2.59839 21.0804 3.69094 21.5322 4.94107 21.5847C5.70796 21.6215 6.28049 21.5479 6.93182 21.3326C7.63568 21.0962 7.96659 20.8966 9.95734 19.5152L11.7695 18.2545L12.3525 18.223C13.0879 18.181 13.4241 18.0602 13.8128 17.7082C14.1595 17.3878 14.3538 17.0096 14.4326 16.4896L14.4956 16.0957L15.9401 14.9033C16.7333 14.252 17.4424 13.6532 17.5054 13.5744C17.8993 13.1227 18.0201 12.3873 17.7838 11.8568C17.6577 11.5732 17.3793 11.258 17.1062 11.0847L16.9329 10.9796L17.1167 10.7748C17.4161 10.4491 17.5317 10.1707 17.5579 9.72949C17.5737 9.41433 17.5579 9.27776 17.4634 9.03614C17.3321 8.67896 17.0011 8.31653 16.686 8.17996L16.4706 8.08541L16.6545 7.8753C17.2323 7.23448 17.2533 6.29426 16.7017 5.64293C16.6229 5.54313 16.4286 5.39606 16.2815 5.31202L16.0031 5.15444L16.1134 4.93382C16.2763 4.61341 16.271 3.97259 16.1082 3.61016C15.8666 3.08489 15.3413 2.70145 14.7845 2.65418L14.4904 2.62791L14.4273 2.26023C14.2908 1.48284 13.8128 0.910301 13.0984 0.68969C12.799 0.595142 12.5784 0.58989 9.22723 0.595142C7.26799 0.600395 5.58189 0.621407 5.47159 0.647669ZM13.1142 1.61415C13.4346 1.84527 13.5869 2.14467 13.6184 2.62266L13.6447 3.00611H9.24298H4.84652L4.86228 2.57014C4.88855 2.01336 5.02511 1.77699 5.44532 1.56688L5.72371 1.42506L9.30602 1.44082L12.8831 1.45658L13.1142 1.61415ZM14.9789 3.56814C15.3045 3.72046 15.4831 4.15118 15.3676 4.52937C15.3098 4.71847 15.2205 4.81301 14.5639 5.36454C14.4746 5.43283 14.4694 5.38555 14.4694 4.46109V3.47884H14.6322C14.7215 3.47884 14.8791 3.52086 14.9789 3.56814ZM13.6289 9.12543V14.4043H12.0637H10.5036L10.3828 14.1942C10.1149 13.7215 9.51612 13.4851 8.98035 13.6427C8.66519 13.732 8.31852 13.9999 8.1872 14.2573L8.10841 14.4043H6.48535H4.85703V9.12543V3.84653H9.24298H13.6289V9.12543ZM15.8245 6.02112C15.9033 6.06314 16.0241 6.15769 16.0977 6.23648C16.2132 6.35729 16.229 6.42558 16.229 6.73548C16.229 7.01912 16.208 7.11892 16.1239 7.20822C16.0031 7.34479 14.5376 8.57391 14.4956 8.57391C14.4799 8.57391 14.4694 8.09591 14.4694 7.50762V6.44659L14.8528 6.19971C15.2678 5.92657 15.5462 5.87405 15.8245 6.02112ZM1.821 6.57265C2.00484 6.64093 2.2097 6.8668 2.33576 7.14519C2.77173 8.06965 3.43882 9.98687 3.80125 11.3473L4.01661 12.151V14.3991C4.01135 16.5579 4.01661 16.663 4.12166 16.9466C4.33176 17.4981 4.74147 17.8973 5.34552 18.1285C5.52937 18.1967 5.95483 18.2125 7.92457 18.2388L10.283 18.265L8.94884 19.1895C7.51487 20.1875 7.22597 20.3503 6.53787 20.5814C6.12292 20.718 6.03362 20.7285 5.22471 20.7285C4.38954 20.7285 4.34227 20.7233 3.85903 20.5604C2.69819 20.1717 1.86302 19.4521 1.33251 18.3701C0.991085 17.6715 0.90179 17.267 0.90179 16.4791C0.90179 15.7963 1.00159 15.3025 1.25897 14.73C1.53736 14.0997 1.68443 12.8706 1.63191 11.6467C1.57938 10.3756 1.39554 9.32503 1.01735 8.15369C0.733705 7.2765 0.80199 6.83003 1.25897 6.62518C1.49534 6.51487 1.64241 6.50436 1.821 6.57265ZM16.3078 8.93109C16.4076 8.97836 16.5442 9.10442 16.6124 9.20422C16.7175 9.35655 16.7333 9.44059 16.7175 9.69272C16.6912 10.0657 16.686 10.0709 15.4306 11.1004L14.4694 11.8831V10.8063V9.72949L14.9684 9.35655C15.2468 9.1517 15.5356 8.9521 15.6144 8.91007C15.8088 8.81027 16.0872 8.81553 16.3078 8.93109ZM16.7122 11.8305C17.0327 12.0249 17.1587 12.5081 16.9749 12.8601C16.9066 12.9966 14.5849 14.9821 14.4956 14.9821C14.4799 14.9821 14.4694 14.5251 14.4694 13.9684V12.9599L15.168 12.4031C15.5462 12.0984 15.9086 11.82 15.9664 11.7885C16.1345 11.694 16.5231 11.715 16.7122 11.8305ZM9.62643 14.5934C9.82078 14.8088 9.763 15.0924 9.49511 15.2343C9.13268 15.4286 8.78075 15.0504 8.93308 14.6407C8.98035 14.5251 9.264 14.3991 9.40056 14.4359C9.45834 14.4516 9.55814 14.5251 9.62643 14.5934ZM8.21872 15.5021C8.75449 16.3688 9.98886 16.3216 10.4458 15.4128L10.5351 15.2448L12.0689 15.2553L13.6027 15.271L13.5974 15.9276C13.5974 16.642 13.5607 16.768 13.277 17.0517C12.9513 17.3826 13.0879 17.3721 9.38481 17.3878C7.09991 17.3983 5.91281 17.3878 5.72897 17.3458C5.4033 17.2775 5.10916 17.0569 4.96208 16.7628C4.87279 16.5947 4.85703 16.4529 4.85703 15.9013V15.2448H6.45908H8.06114L8.21872 15.5021Z" fill="white"/>
</svg>
