<svg width="17" height="16" viewBox="0 0 17 16" fill="none" xmlns="http://www.w3.org/2000/svg">
<path d="M6.25 6.25C7.69975 6.25 8.875 5.07475 8.875 3.625C8.875 2.17525 7.69975 1 6.25 1C4.80025 1 3.625 2.17525 3.625 3.625C3.625 5.07475 4.80025 6.25 6.25 6.25Z" stroke="white" stroke-linecap="round" stroke-linejoin="round"/>
<path d="M11.5 15.0002H1V13.8335C1 12.4411 1.55312 11.1058 2.53769 10.1212C3.52226 9.13662 4.85761 8.5835 6.25 8.5835C7.64239 8.5835 8.97774 9.13662 9.96231 10.1212C10.9469 11.1058 11.5 12.4411 11.5 13.8335V15.0002Z" stroke="white" stroke-linecap="round" stroke-linejoin="round"/>
<path d="M10.9166 1C11.6128 1 12.2805 1.27656 12.7728 1.76884C13.2651 2.26113 13.5416 2.92881 13.5416 3.625C13.5416 4.32119 13.2651 4.98887 12.7728 5.48115C12.2805 5.97344 11.6128 6.25 10.9166 6.25" stroke="white" stroke-linecap="round" stroke-linejoin="round"/>
<path d="M12.7833 8.80469C13.7771 9.18274 14.6327 9.85365 15.2369 10.7286C15.841 11.6036 16.1653 12.6414 16.1667 13.7047V14.9997H14.4167" stroke="white" stroke-linecap="round" stroke-linejoin="round"/>
</svg>
