<svg width="75" height="75" viewBox="0 0 75 75" fill="none" xmlns="http://www.w3.org/2000/svg">
    <circle cx="37.5" cy="37.5" r="37.5" fill="#747474" />
    <g clip-path="url(#clip0_3343_166)">
        <path fill-rule="evenodd" clip-rule="evenodd"
            d="M52.0479 39.9249H39.9239V52.0489C39.9239 53.3826 38.8327 54.4737 37.4991 54.4737C36.1654 54.4737 35.0743 53.3826 35.0743 52.0489V39.9249H22.9502C21.6166 39.9249 20.5254 38.8337 20.5254 37.5001C20.5254 36.1664 21.6166 35.0752 22.9502 35.0752H35.0743V22.9512C35.0743 21.6175 36.1654 20.5264 37.4991 20.5264C38.8327 20.5264 39.9239 21.6175 39.9239 22.9512V35.0752H52.0479C53.3816 35.0752 54.4728 36.1664 54.4728 37.5001C54.4728 38.8337 53.3816 39.9249 52.0479 39.9249Z"
            fill="white" />
    </g>
    <defs>
        <clipPath id="clip0_3343_166">
            <rect width="33.9474" height="33.9474" fill="white" transform="translate(20.5254 20.5264)" />
        </clipPath>
    </defs>
</svg>
