<svg width="30" height="24" viewBox="0 0 30 24" fill="none" xmlns="http://www.w3.org/2000/svg">
    <path
        d="M14.3279 1.00808C14.2356 1.04267 14.08 1.12338 13.982 1.19256C13.6361 1.42893 8.15336 5.62599 8.00347 5.77012L7.84204 5.92002V12.4693V19.0243L7.96888 19.1454C8.2456 19.399 13.9935 23.769 14.1837 23.8671C14.4489 23.9996 16.1381 24.0515 16.5475 23.9362C16.8876 23.8382 17.3604 23.377 17.4584 23.0426C17.5622 22.6967 17.5622 2.24183 17.4584 1.89592C17.3661 1.57883 16.8876 1.10032 16.5705 1.00808C16.2765 0.921598 14.5758 0.921598 14.3279 1.00808Z"
        fill="white" />
    <path
        d="M23.9731 1.99973C23.2351 2.20151 22.8085 2.96828 23.0218 3.71199C23.0968 3.96565 23.2006 4.12708 23.5349 4.49029C24.4862 5.52226 25.0569 6.34668 25.5989 7.46512C27.1324 10.636 27.1266 14.3084 25.5931 17.485C25.1722 18.3556 24.5496 19.3011 23.9616 19.9641C23.1602 20.8634 23.0737 20.9845 22.9988 21.3131C22.8085 22.1664 23.4542 22.9792 24.319 22.9792C24.8033 22.9792 25.0973 22.8236 25.6046 22.2874C27.6859 20.1024 28.983 17.3697 29.4097 14.2565C29.5077 13.5416 29.5077 11.397 29.4097 10.6821C28.983 7.5689 27.6859 4.8362 25.6046 2.65119C25.0051 2.02279 24.5554 1.8383 23.9731 1.99973Z"
        fill="white" />
    <path
        d="M20.1911 6.13906C19.8798 6.24283 19.4532 6.66946 19.3494 6.97501C19.1707 7.49388 19.2514 7.93203 19.6031 8.35866C20.0412 8.88329 20.3468 9.33297 20.5486 9.73077C21.4306 11.4661 21.4306 13.4724 20.5486 15.2077C20.3468 15.6055 20.0412 16.0552 19.6031 16.5798C19.1073 17.1852 19.1361 17.8885 19.6896 18.442C20.1392 18.8917 20.7042 18.9839 21.2692 18.7014C21.742 18.4535 22.6644 17.237 23.1429 16.2108C23.7137 14.9829 23.95 13.8932 23.95 12.4692C23.95 11.0452 23.7137 9.95561 23.1429 8.72763C22.6586 7.68989 21.742 6.48497 21.2577 6.2313C20.981 6.09294 20.4621 6.04681 20.1911 6.13906Z"
        fill="white" />
    <path
        d="M1.93278 7.01546C0.998819 7.24606 0.26664 8.00707 0.0648584 8.94103C-0.0216195 9.36189 -0.0216195 15.5768 0.0648584 15.9976C0.26664 16.9431 1.06224 17.7387 2.00773 17.9405C2.19798 17.9808 2.98781 18.0039 4.0659 18.0039C5.58214 18.0039 5.83005 17.9924 5.90499 17.9117C5.98571 17.831 5.99724 17.2602 5.99724 12.4693C5.99724 7.67845 5.98571 7.1077 5.90499 7.02699C5.83005 6.94627 5.58214 6.93474 4.01978 6.94051C2.79756 6.94051 2.1288 6.96934 1.93278 7.01546Z"
        fill="white" />
</svg>
