<svg width="27" height="23" viewBox="0 0 27 23" fill="none" xmlns="http://www.w3.org/2000/svg">
<path d="M2.74367 16.7728L2.81096 4.85176H1.46517V20.0201C3.31455 19.5426 5.17043 19.2387 7.03934 19.2256C8.76499 19.2148 10.4906 19.4557 12.2206 20.0418C11.1462 19.1714 9.94798 18.531 8.66948 18.1143C7.05888 17.589 5.31803 17.4153 3.53378 17.5673C3.13004 17.5998 2.7784 17.3003 2.74367 16.8987C2.73933 16.8553 2.73933 16.8141 2.74367 16.7728ZM22.492 4.22879C22.4877 4.19406 22.4833 4.15716 22.4833 4.11809C22.4833 4.08119 22.4855 4.04429 22.492 4.00739V1.59365C20.7989 1.43302 19.0538 1.6197 17.53 2.19708C16.106 2.73757 14.8775 3.62536 14.0787 4.89734V18.6461C15.3203 17.8169 16.5901 17.1353 17.8946 16.6708C19.3815 16.1412 20.9096 15.8894 22.492 16.0153V4.22879ZM23.9572 3.38659H25.9412C26.3449 3.38659 26.6727 3.71435 26.6727 4.11809V20.9752C26.6727 21.3789 26.3449 21.7067 25.9412 21.7067C25.8587 21.7067 25.7784 21.6936 25.7046 21.6676C23.6642 21.0837 21.6368 20.6952 19.629 20.6821C17.6711 20.6691 15.7153 21.0142 13.7509 21.8803C13.6294 21.9606 13.4839 22.004 13.3342 22.0019C13.1866 22.004 13.0411 21.9606 12.9174 21.8803C10.9551 21.0121 8.99724 20.6691 7.03934 20.6821C5.03151 20.6952 3.00632 21.0837 0.963758 21.6676C0.889957 21.6936 0.809643 21.7067 0.72716 21.7067C0.327764 21.7088 0 21.3811 0 20.9773V4.11809C0 3.71435 0.327764 3.38659 0.731501 3.38659H2.81747L2.8305 0.942463C2.83267 0.590822 3.08012 0.299958 3.41222 0.230498C5.33757 -0.171068 7.6775 -0.0712192 9.72875 0.714547C11.1462 1.2572 12.4333 2.12328 13.3732 3.37356C14.3218 2.20794 15.5894 1.37008 17.0155 0.829591C18.9648 0.0894071 21.2135 -0.0885842 23.3299 0.221815C23.6946 0.27391 23.955 0.588651 23.955 0.944634V3.38659H23.9572ZM14.7885 19.9311C16.4056 19.4232 18.0205 19.2148 19.6355 19.2235C21.5044 19.2343 23.3603 19.5404 25.2097 20.0179V4.85176H23.9572V16.838C23.9572 17.2417 23.6294 17.5695 23.2257 17.5695C23.1671 17.5695 23.1107 17.5629 23.0564 17.5499C21.4545 17.2981 19.9025 17.5065 18.3874 18.047C17.1675 18.4833 15.9693 19.1345 14.7885 19.9311ZM12.6157 18.505V4.87564C11.8494 3.52334 10.61 2.61819 9.20997 2.08204C7.62324 1.47427 5.84115 1.33752 4.28699 1.55892L4.2045 16.0609C5.89976 16.0001 7.55812 16.215 9.1188 16.7251C10.3604 17.1288 11.5369 17.7214 12.6157 18.505Z" fill="#4646D4"/>
</svg>
