<svg width="17" height="17" viewBox="0 0 17 17" fill="none" xmlns="http://www.w3.org/2000/svg">
<path d="M4.46097 1H1.57683C1.25825 1 1 1.25825 1 1.57683V15.4207C1 15.7393 1.25825 15.9975 1.57683 15.9975H4.46097C4.77954 15.9975 5.0378 15.7393 5.0378 15.4207V1.57683C5.0378 1.25825 4.77954 1 4.46097 1Z" stroke="white" stroke-width="1.2" stroke-linecap="round" stroke-linejoin="round"/>
<path d="M8.49881 3.30713H5.61467C5.2961 3.30713 5.03784 3.56538 5.03784 3.88396V15.4205C5.03784 15.7391 5.2961 15.9974 5.61467 15.9974H8.49881C8.81739 15.9974 9.07564 15.7391 9.07564 15.4205V3.88396C9.07564 3.56538 8.81739 3.30713 8.49881 3.30713Z" stroke="white" stroke-width="1.2" stroke-linecap="round" stroke-linejoin="round"/>
<path d="M12.3596 2.99123L10.1213 3.55137C9.8123 3.62871 9.62446 3.94194 9.7018 4.25098L12.5025 15.4424C12.5799 15.7515 12.8931 15.9393 13.2021 15.862L15.4404 15.3018C15.7495 15.2245 15.9373 14.9113 15.86 14.6022L13.0592 3.41076C12.9819 3.10172 12.6687 2.91389 12.3596 2.99123Z" stroke="white" stroke-width="1.2" stroke-linecap="round" stroke-linejoin="round"/>
</svg>
