<svg width="35" height="26" viewBox="0 0 35 26" fill="none" xmlns="http://www.w3.org/2000/svg">
    <path
        d="M34.3654 16.7813C34.3287 16.8834 34.2893 16.9854 34.2571 17.0883C34.1306 17.5148 33.873 17.8906 33.5209 18.1626C33.1688 18.4345 32.7401 18.5887 32.2954 18.6034C32.0502 18.6133 31.8041 18.6034 31.4953 18.6034C31.4953 18.8334 31.4953 19.0402 31.4953 19.246C31.473 21.103 30.3042 22.5259 28.5233 22.8517C28.2917 22.8895 28.0571 22.9062 27.8225 22.9018C25.5184 22.9054 23.2142 22.9054 20.91 22.9018C20.3963 22.9018 20.1046 22.6834 20.0616 22.2825C20.0124 21.835 20.3167 21.4878 20.7946 21.4771C21.3763 21.4663 21.958 21.4771 22.5397 21.4771C24.2842 21.4771 26.0288 21.4771 27.7733 21.4771C29.1605 21.4771 30.0652 20.575 30.0697 19.1941C30.0697 18.7914 30.0697 18.3886 30.0697 17.9859C30.076 17.4579 30.3507 17.1885 30.885 17.1805C31.277 17.176 31.6681 17.1805 32.0592 17.1805C32.6579 17.1805 32.9156 16.9254 32.9165 16.3187C32.9207 14.2943 32.9207 12.27 32.9165 10.2456C32.9165 9.50728 32.9165 8.76896 32.9165 8.03064C32.912 7.40418 32.6668 7.16792 32.035 7.16344C31.6546 7.16344 31.2743 7.16881 30.8939 7.16344C30.3445 7.1527 30.0733 6.87796 30.0688 6.33204C30.0688 5.88458 30.0742 5.43711 30.0688 4.98964C30.0455 3.82622 29.1524 2.89638 27.9854 2.87759C26.5768 2.85521 25.1672 2.87759 23.7577 2.86774C23.2208 2.86774 22.8735 2.53482 22.9156 2.08915C22.9254 1.91259 23.0027 1.74656 23.1314 1.62532C23.2602 1.50408 23.4305 1.4369 23.6074 1.43763C25.1726 1.43226 26.7397 1.37946 28.3022 1.4779C30.0805 1.58977 31.422 3.08879 31.4882 4.87151C31.498 5.13999 31.4882 5.40847 31.4882 5.72259C31.6985 5.72259 31.8721 5.72259 32.0457 5.72259C33.2485 5.72886 34.0209 6.33473 34.3144 7.50083C34.3272 7.53104 34.344 7.55934 34.3645 7.58496L34.3654 16.7813Z"
        fill="white" />
    <path
        d="M0 4.56464C0.14498 4.14491 0.234474 3.69386 0.447469 3.31172C1.13299 2.07224 2.22213 1.44041 3.63166 1.43236C6.90892 1.41535 10.1871 1.4252 13.4643 1.42788C13.9897 1.42788 14.3011 1.69636 14.3092 2.1322C14.3172 2.58414 14.0013 2.86784 13.4616 2.86784C10.2071 2.86784 6.95187 2.86784 3.69609 2.86784C2.61053 2.87321 1.78987 3.45312 1.52139 4.42055C1.45807 4.66935 1.42798 4.92544 1.4319 5.18214C1.42653 9.83582 1.42653 14.4895 1.4319 19.1432C1.4319 20.5912 2.32684 21.479 3.77664 21.479C5.55458 21.479 7.33312 21.479 9.11225 21.479C9.25681 21.4736 9.40134 21.4902 9.54093 21.5282C9.69157 21.5808 9.81988 21.683 9.90485 21.818C9.98982 21.9531 10.0264 22.113 10.0086 22.2716C9.99085 22.4302 9.91975 22.578 9.80698 22.6909C9.69421 22.8038 9.54645 22.875 9.38789 22.893C9.28764 22.9021 9.18694 22.9053 9.0863 22.9028C7.30776 22.9028 5.52922 22.9028 3.75068 22.9028C1.79972 22.8983 0.458208 21.8002 0.0483266 19.8842C0.0374163 19.8518 0.0210737 19.8216 0 19.7947L0 4.56464Z"
        fill="white" />
    <path
        d="M18.6404 10.0183H19.4199C21.0192 10.0183 22.6184 10.0183 24.2177 10.0183C24.7967 10.0183 25.1556 10.405 25.0231 10.8999C24.9666 11.0686 24.8775 11.2245 24.7609 11.359C21.6704 15.385 18.5775 19.4083 15.4822 23.429C14.9846 24.0757 14.4867 24.7225 13.9886 25.3692C13.6852 25.7612 13.3496 25.8713 13.0041 25.6976C12.6587 25.524 12.5343 25.1607 12.6909 24.6864C13.6342 21.8226 14.5783 18.9588 15.5234 16.095C15.5547 16.0055 15.5833 15.9061 15.6308 15.754H15.2513C13.5509 15.754 11.8506 15.754 10.1502 15.754C9.581 15.754 9.23913 15.396 9.33041 14.9074C9.36331 14.7675 9.4242 14.6356 9.5094 14.5199C12.7646 9.81251 16.0222 5.10722 19.2821 0.404029C19.5488 0.026366 19.8862 -0.089081 20.2325 0.068428C20.5789 0.225937 20.7086 0.533795 20.6138 0.963365C19.9766 3.87549 19.3376 6.78762 18.6968 9.69974C18.6771 9.79013 18.6655 9.87784 18.6404 10.0183ZM15.3784 21.1156L15.4294 21.1487L22.8824 11.4646H22.4278C20.9291 11.4646 19.4304 11.4646 17.9317 11.4646C17.2157 11.4646 16.9186 11.1066 17.0689 10.4175C17.3634 9.07508 17.6632 7.73267 17.9639 6.39026C18.1184 5.68684 18.2717 4.98253 18.4239 4.27732L18.3657 4.25494L11.4004 14.314H12.6184C13.9161 14.314 15.2137 14.314 16.5105 14.314C17.1683 14.314 17.4717 14.7373 17.2792 15.3584C17.2596 15.4229 17.2381 15.4864 17.2166 15.5499L15.3784 21.1156Z"
        fill="white" />
    <path
        d="M15.3788 21.1128L17.2125 15.5526C17.234 15.489 17.2555 15.4255 17.2752 15.3611C17.4676 14.74 17.1642 14.3193 16.5064 14.3167C15.2097 14.3104 13.9111 14.3167 12.6143 14.3167H11.3963L18.3616 4.25757L18.4198 4.27994C18.2671 4.98456 18.1137 5.68887 17.9598 6.39289C17.6636 7.73529 17.3638 9.0777 17.0649 10.4201C16.9145 11.1065 17.2098 11.4663 17.9276 11.4672C19.4269 11.4672 20.9256 11.4672 22.4237 11.4672H22.8784L15.4298 21.1459L15.3788 21.1128Z"
        fill="white" />
</svg>
