<svg width="27" height="27" viewBox="0 0 27 27" fill="none" xmlns="http://www.w3.org/2000/svg">
    <path
        d="M10.7759 0.866423C10.6144 0.906778 9.54211 1.95028 5.61025 5.8879L0.640659 10.8575L0.404287 11.3475C-0.137641 12.4545 -0.131876 13.5268 0.404287 14.6337C0.640659 15.1237 0.657955 15.141 4.31308 18.8019C8.18153 22.6819 8.38907 22.8721 9.1789 23.1604C9.54788 23.293 9.68048 23.3103 10.3435 23.3103C10.9315 23.3103 11.1621 23.2872 11.41 23.2008C11.9001 23.0336 12.269 22.8318 12.6495 22.5262C12.8398 22.3763 15.0998 20.1394 17.6768 17.5624C20.9514 14.2878 22.3869 12.8119 22.4504 12.662C22.5714 12.3622 22.5599 11.8952 22.4215 11.6127C22.3466 11.4513 20.6113 9.6814 17.0772 6.14734C12.5573 1.63319 11.8136 0.912544 11.6118 0.860657C11.3351 0.785709 11.0526 0.785709 10.7759 0.866423ZM15.4341 7.96337C18.7203 11.2495 19.5851 12.1431 19.5274 12.2008C19.4755 12.2527 17.6134 12.27 11.1102 12.27C6.52115 12.27 2.76225 12.2527 2.76225 12.2296C2.76225 12.1604 11.1448 3.79514 11.2083 3.79514C11.2428 3.79514 13.1396 5.66883 15.4341 7.96337Z"
        fill="white" />
    <path
        d="M22.8309 14.8066C22.5138 14.8816 22.3581 15.043 21.8911 15.7925C20.9918 17.2222 20.2711 18.7097 20.0809 19.5053C19.8272 20.5834 20.1385 21.6499 20.9456 22.4513C21.5625 23.0624 22.214 23.3391 23.0557 23.3391C23.8974 23.3391 24.5489 23.0624 25.1658 22.4513C26.0997 21.5231 26.3361 20.3643 25.8749 19.0152C25.5809 18.1562 24.693 16.4728 23.9089 15.2967C23.6265 14.8758 23.2632 14.7144 22.8309 14.8066Z"
        fill="white" />
    <path
        d="M2.17996 24.74C2.0416 24.815 1.85135 24.9879 1.75334 25.1205C1.59768 25.3454 1.58038 25.4088 1.58038 25.8124C1.58038 26.2044 1.59768 26.2851 1.73604 26.4869C1.82252 26.608 1.98971 26.7752 2.11078 26.8559L2.32409 27H13.8314H25.3387L25.552 26.8559C25.6731 26.7752 25.8403 26.608 25.9268 26.4869C26.0651 26.2851 26.0824 26.2044 26.0824 25.8181C26.0824 25.4319 26.0651 25.3512 25.9268 25.1494C25.8403 25.0283 25.6731 24.8611 25.552 24.7804L25.3387 24.6363L13.8891 24.619L2.43363 24.6074L2.17996 24.74Z"
        fill="white" />
</svg>
