<svg width="17" height="17" viewBox="0 0 17 17" fill="none" xmlns="http://www.w3.org/2000/svg">
<path d="M3.30769 15.9998H2.15385C1.84783 15.9998 1.55434 15.8783 1.33795 15.6619C1.12157 15.4455 1 15.152 1 14.846V5.61523H16V14.846C16 15.152 15.8784 15.4455 15.662 15.6619C15.4457 15.8783 15.1522 15.9998 14.8462 15.9998H13.6923" stroke="white" stroke-width="1.5" stroke-linecap="round" stroke-linejoin="round"/>
<path d="M5.61536 13.1152L8.49997 15.9998L11.3846 13.1152" stroke="white" stroke-width="1.5" stroke-linecap="round" stroke-linejoin="round"/>
<path d="M8.5 16.0002V9.07715" stroke="white" stroke-width="1.5" stroke-linecap="round" stroke-linejoin="round"/>
<path d="M13.45 1.57692C13.3513 1.40585 13.2104 1.26297 13.0407 1.16196C12.871 1.06094 12.6782 1.00518 12.4808 1H4.51923C4.32181 1.00518 4.12902 1.06094 3.95932 1.16196C3.78961 1.26297 3.64868 1.40585 3.55 1.57692L1 5.61539H16L13.45 1.57692Z" stroke="white" stroke-width="1.5" stroke-linecap="round" stroke-linejoin="round"/>
<path d="M8.5 1V5.61539" stroke="white" stroke-width="1.5" stroke-linecap="round" stroke-linejoin="round"/>
</svg>
