<svg width="20" height="20" viewBox="0 0 20 20" fill="none" xmlns="http://www.w3.org/2000/svg">
<path d="M13.3359 1.86378L13.3358 1.86393L2.1554 13.0443C1.68107 13.5186 1.37212 14.1335 1.2794 14.7992C1.27939 14.7992 1.27938 14.7993 1.27937 14.7993L0.763197 18.4071L0.76316 18.4074C0.711155 18.7779 1.00042 19.1 1.36211 19.1C1.39217 19.1 1.42133 19.0968 1.44451 19.0942L1.44651 19.094L1.44652 19.094L1.44964 19.0936L5.05779 18.5773L5.05782 18.5773C5.72297 18.4819 6.33787 18.1759 6.81245 17.7014L17.9928 6.52097C19.279 5.23483 19.279 3.15008 17.9928 1.86393C17.3511 1.22223 16.5075 0.9 15.6643 0.9C14.8209 0.9 13.9802 1.22231 13.3359 1.86378ZM4.86705 17.23L4.8665 17.2301L2.25152 17.6025L2.62391 14.988C2.62392 14.9879 2.62393 14.9879 2.62395 14.9878C2.6538 14.7854 2.71894 14.5884 2.81473 14.4102L5.44209 17.0375C5.26392 17.1359 5.06874 17.2024 4.86705 17.23ZM17.031 5.55619L17.0309 5.55631L16.7403 5.84692L14.0098 3.11384L14.3004 2.82316C14.6648 2.45882 15.1501 2.25743 15.667 2.25743C16.1839 2.25743 16.6692 2.45882 17.0336 2.82316C17.7853 3.57755 17.7851 4.80471 17.031 5.55619ZM3.72603 13.3976L13.0478 4.07579L15.7783 6.80888L6.45916 16.1307L3.72603 13.3976Z" fill="black" stroke="#008ABD" stroke-width="0.2"/>
</svg>
