<svg width="13" height="13" viewBox="0 0 13 13" fill="none" xmlns="http://www.w3.org/2000/svg">
    <path
        d="M10.9703 9.37365C10.9296 10.4653 10.0297 11.3399 8.92822 11.3399H3.75783C2.63051 11.3399 1.71429 10.4237 1.71429 9.29641V4.12746C1.71429 3.00014 2.63051 2.08392 3.75783 2.08392H5.62515H5.72515V1.98392V1.36963V1.26963H5.62515H3.75783C2.18198 1.26963 0.9 2.55161 0.9 4.12746V9.29641C0.9 10.8723 2.18198 12.1542 3.75783 12.1542H8.92678C10.5026 12.1542 11.7846 10.8723 11.7846 9.29641V7.42908V7.32908H11.6846H11.0703H10.9703V7.42908V9.29641V9.37365Z"
        fill="black" stroke="white" stroke-width="0.2" />
    <path
        d="M9.40711 1.42402L9.40696 1.42417L3.48705 7.34408C3.22876 7.60237 3.06043 7.93727 3.00989 8.29995C3.00988 8.30001 3.00987 8.30008 3.00986 8.30014L2.73658 10.2102L2.73654 10.2105C2.70499 10.4353 2.88048 10.6308 3.10028 10.6308C3.11886 10.6308 3.13658 10.6289 3.14858 10.6275L3.15017 10.6273L3.15017 10.6274L3.15328 10.627L5.06377 10.3536L5.0638 10.3536C5.42598 10.3017 5.76091 10.135 6.01945 9.87648L11.9394 3.95658C12.6387 3.2572 12.6387 2.12355 11.9394 1.42417C11.5904 1.07522 11.1316 0.9 10.6732 0.9C10.2146 0.9 9.75735 1.0753 9.40711 1.42402ZM4.94973 9.54701L4.94919 9.54709L3.62663 9.73546L3.81494 8.41339C3.81495 8.41331 3.81496 8.41323 3.81497 8.41315C3.82685 8.3327 3.84982 8.25398 3.88266 8.18034L5.18137 9.47906C5.10782 9.51285 5.02971 9.53607 4.94973 9.54701ZM11.3636 3.37913L11.3635 3.37925L11.2429 3.49985L9.86362 2.11928L9.98428 1.99862C10.1684 1.81453 10.4134 1.71285 10.6746 1.71285C10.9357 1.71285 11.1807 1.81448 11.3648 1.9985C11.7446 2.3796 11.7444 2.99962 11.3636 3.37913ZM4.41849 7.56441L9.28774 2.69516L10.667 4.07574L5.79911 8.94503L4.41849 7.56441Z"
        fill="black" stroke="white" stroke-width="0.2" />
</svg>
