<svg width="24" height="21" viewBox="0 0 24 21" fill="none" xmlns="http://www.w3.org/2000/svg">
    <path
        d="M10.3947 20.2803C8.08252 20.2803 5.77066 20.2811 3.45852 20.28C1.92999 20.2792 0.790456 19.1386 0.789895 17.6094C0.789335 13.0304 0.788494 8.45135 0.789615 3.87234C0.789895 2.50897 1.84731 1.37039 3.20237 1.28086C3.54653 1.25813 3.89321 1.26851 4.23877 1.26767C4.96744 1.26599 5.69611 1.26879 6.42479 1.26514C6.52792 1.26458 6.56212 1.29321 6.56015 1.39957C6.55371 1.73158 6.55315 2.06386 6.56043 2.39558C6.56296 2.5084 6.52596 2.53731 6.4175 2.53703C5.47415 2.53366 4.53052 2.53535 3.58716 2.53507C3.39098 2.53507 3.19452 2.52973 3.00366 2.58923C2.44511 2.76323 2.07657 3.24987 2.07516 3.8381C2.0718 5.36285 2.07432 6.8876 2.07432 8.41234C2.07432 10.8492 2.07404 13.2857 2.07404 15.7226C2.07404 16.3681 2.0746 17.0136 2.07488 17.659C2.07516 18.4446 2.62615 19.0056 3.412 19.0104C4.24325 19.0151 5.07478 19.0123 5.90603 19.0126C9.71727 19.0126 13.5288 19.0123 17.34 19.0132C17.8801 19.0132 18.2985 18.8001 18.567 18.3222C18.6766 18.1272 18.7242 17.9136 18.7242 17.6894C18.724 15.4537 18.7251 13.2178 18.7209 10.9822C18.7206 10.8511 18.7531 10.8068 18.8871 10.7975C19.2245 10.7743 19.5505 10.6881 19.861 10.5534C19.982 10.5009 20.0087 10.527 20.0084 10.6536C20.0053 11.9631 20.0064 13.2728 20.0067 14.5823C20.0067 15.5879 20.0067 16.5934 20.0076 17.599C20.0081 18.2389 19.8279 18.8184 19.419 19.3143C18.8938 19.9514 18.2097 20.2761 17.3874 20.2789C15.3976 20.2856 13.408 20.2806 11.4182 20.2803C11.0765 20.2803 10.7357 20.2803 10.3947 20.2803Z"
        fill="white" />
    <path
        d="M8.99674 15.9955C8.7787 15.996 8.65566 15.8372 8.71031 15.6413C8.76188 15.4569 8.82802 15.2767 8.88772 15.0946C9.2428 14.011 9.60153 12.9283 9.95045 11.8427C10.0387 11.5683 10.1797 11.3432 10.3893 11.1417C12.7825 8.8432 15.1697 6.53881 17.5586 4.23611C17.6595 4.13873 17.7649 4.04556 17.8599 3.94284C17.9244 3.87324 17.9656 3.88306 18.0289 3.94537C18.5163 4.42274 19.007 4.89704 19.4966 5.37217C20.0266 5.88631 20.5551 6.40186 21.0885 6.91263C21.1697 6.99065 21.179 7.03443 21.0916 7.11891C19.0011 9.14545 16.9135 11.1751 14.8255 13.2042C14.3833 13.6341 13.9396 14.0629 13.4996 14.4951C13.3833 14.6093 13.2533 14.6893 13.0969 14.7373C11.7719 15.1451 10.4476 15.556 9.12313 15.9654C9.07437 15.9809 9.02364 15.9893 8.99674 15.9955ZM17.9042 5.31127C17.9053 5.2268 17.8582 5.13643 17.7856 5.08367C17.6497 4.98488 17.5012 5.01014 17.349 5.15804C15.6943 6.7667 14.04 8.37536 12.3853 9.9843C12.0572 10.3034 11.7281 10.6219 11.4008 10.9419C11.25 11.0895 11.2332 11.2466 11.3498 11.3732C11.4737 11.5074 11.6491 11.5004 11.8066 11.3541C11.8271 11.3351 11.8475 11.3157 11.8674 11.2963C13.1067 10.0915 14.3463 8.88698 15.5856 7.68188C16.3123 6.97522 17.0387 6.26799 17.766 5.56189C17.8383 5.49172 17.9019 5.41904 17.9042 5.31127ZM10.4398 12.3611C10.2618 12.9041 10.0923 13.4228 9.92103 13.9406C9.90197 13.9981 9.93364 14.0262 9.96811 14.0596C10.2066 14.29 10.446 14.5193 10.6811 14.753C10.7397 14.8111 10.7923 14.8184 10.8683 14.7929C11.0763 14.7233 11.287 14.6624 11.4964 14.5973C11.8027 14.5021 12.109 14.4062 12.4394 14.3029C11.7668 13.6498 11.1121 13.0139 10.4398 12.3611Z"
        fill="white" />
    <path
        d="M23.2104 4.66451C23.204 4.92635 23.0991 5.15114 22.913 5.33553C22.5476 5.69671 22.1757 6.05117 21.8108 6.41292C21.7452 6.47774 21.711 6.46231 21.6544 6.40702C20.6276 5.40625 19.5996 4.4066 18.5694 3.40947C18.4971 3.33959 18.5007 3.3017 18.5711 3.23435C18.9326 2.88916 19.2885 2.53835 19.6475 2.19092C19.8317 2.01271 20.0486 1.90354 20.3084 1.89091C20.5278 1.88024 20.7254 1.93637 20.886 2.09241C21.5928 2.77915 22.2993 3.46616 23.005 4.15402C23.1457 4.29153 23.2065 4.46469 23.2104 4.66451Z"
        fill="white" />
    <path
        d="M8.46758 7.60368C9.69595 7.60368 10.924 7.60592 12.1524 7.60059C12.2878 7.60003 12.3273 7.63708 12.3231 7.77207C12.3136 8.08978 12.3152 8.40804 12.3225 8.72602C12.3253 8.8439 12.2872 8.87505 12.172 8.87477C10.2481 8.8714 8.32381 8.87224 6.39983 8.87196C5.85333 8.87196 5.30711 8.86888 4.7606 8.87393C4.65411 8.87477 4.62552 8.84165 4.62748 8.73837C4.63337 8.40636 4.63421 8.07434 4.6272 7.74232C4.62468 7.63006 4.65943 7.602 4.76929 7.60228C6.00215 7.60621 7.235 7.6048 8.46814 7.6048C8.46758 7.60452 8.46758 7.60424 8.46758 7.60368Z"
        fill="white" />
    <path
        d="M6.87476 12.0396C6.17019 12.0396 5.46591 12.037 4.76134 12.0421C4.654 12.0429 4.62765 12.0109 4.62962 11.9079C4.6355 11.5717 4.63494 11.2352 4.6299 10.899C4.6285 10.8017 4.65764 10.7716 4.75629 10.7719C6.16515 10.7744 7.57429 10.7747 8.98314 10.7705C9.09833 10.7702 9.12271 10.8095 9.12075 10.915C9.11486 11.2468 9.1143 11.5785 9.12103 11.9099C9.12299 12.0149 9.09272 12.0438 8.98819 12.0429C8.28362 12.0384 7.57933 12.0407 6.87476 12.0407C6.87476 12.0407 6.87476 12.0401 6.87476 12.0396Z"
        fill="white" />
    <path
        d="M10.7222 2.54036C10.2366 2.54036 9.75087 2.53755 9.26518 2.5426C9.15335 2.54372 9.11047 2.51734 9.11356 2.3961C9.12197 2.0596 9.11972 1.72281 9.1144 1.38603C9.113 1.29229 9.14411 1.26562 9.23379 1.26562C10.2237 1.26787 11.2138 1.26787 12.204 1.26647C12.2838 1.26647 12.3222 1.28527 12.3214 1.37536C12.3175 1.72618 12.3166 2.07672 12.3217 2.42753C12.3231 2.52913 12.2752 2.54007 12.1933 2.53951C11.7031 2.53727 11.2127 2.53839 10.7222 2.53839C10.7222 2.53923 10.7222 2.53979 10.7222 2.54036Z"
        fill="white" />
    <path
        d="M18.4454 1.49248C18.0261 1.788 17.7075 2.16209 17.3535 2.4983C17.3112 2.53872 17.2633 2.54068 17.2114 2.54068C16.4743 2.5404 15.7373 2.53928 15.0005 2.54208C14.9105 2.54236 14.8794 2.51654 14.8808 2.42281C14.8858 2.07734 14.8841 1.73159 14.8816 1.38584C14.8811 1.3095 14.8912 1.26432 14.9853 1.26572C15.8667 1.27695 16.7487 1.2472 17.6299 1.28284C17.9068 1.29407 18.1702 1.37181 18.4454 1.49248Z"
        fill="white" />
    <path
        d="M14.2422 1.58787C14.2422 1.88704 14.2436 2.18648 14.2419 2.48564C14.2397 2.88247 13.9678 3.16984 13.5979 3.169C13.2294 3.16816 12.9592 2.87966 12.9584 2.48087C12.957 1.88227 12.957 1.28366 12.9589 0.685055C12.9603 0.289353 13.2367 -0.00223224 13.603 1.28766e-05C13.9707 0.002258 14.2408 0.292159 14.2428 0.689826C14.2445 0.988988 14.2431 1.28843 14.2431 1.58759C14.2428 1.58787 14.2425 1.58787 14.2422 1.58787Z"
        fill="white" />
    <path
        d="M8.47657 1.59018C8.47657 1.89412 8.47853 2.19806 8.47601 2.502C8.47264 2.88901 8.19799 3.17134 7.8317 3.16881C7.47241 3.16629 7.1986 2.88564 7.19692 2.50649C7.19384 1.88935 7.19468 1.27192 7.19888 0.654783C7.20168 0.279559 7.48474 -0.00361355 7.84179 3.48565e-05C8.2008 0.00368326 8.47152 0.286014 8.47461 0.664325C8.47713 0.973036 8.47517 1.28147 8.47517 1.59018C8.47573 1.59018 8.47629 1.59018 8.47657 1.59018Z"
        fill="white" />
</svg>
