<svg width="56" height="24" viewBox="0 0 56 24" fill="none" xmlns="http://www.w3.org/2000/svg">
<rect x="0.5" y="1.5" width="55" height="19" rx="9.5" stroke="black"/>
<path d="M46.8313 6.1683L46.7604 6.23889C47.2487 6.72882 47.2485 7.52588 46.7589 8.01385L46.7587 8.01397L46.5886 8.18413L44.8154 6.40924L44.9856 6.23901C45.2223 6.00237 45.5374 5.87162 45.8731 5.87162C46.2088 5.87162 46.5239 6.00237 46.7606 6.23901L46.8313 6.1683ZM46.8313 6.1683C46.5759 5.91291 46.2354 5.77162 45.8731 5.77162C45.5108 5.77162 45.1703 5.91291 44.9149 6.1683L44.674 6.40921L46.8295 8.08468C47.3584 7.55758 47.3583 6.69721 46.8313 6.1683ZM44.2955 5.55223L44.2954 5.55238L36.8419 13.006C36.5207 13.3272 36.3113 13.7438 36.2485 14.1948C36.2485 14.1948 36.2485 14.1949 36.2485 14.195L35.9044 16.6L35.9044 16.6003C35.8668 16.8676 36.0755 17.1 36.3367 17.1C36.3586 17.1 36.3796 17.0977 36.3948 17.096L36.3966 17.0958L36.3966 17.0958L36.3997 17.0954L38.8051 16.7512L38.8052 16.7512C39.2557 16.6866 39.6722 16.4793 39.9937 16.1578L47.4472 8.70422C48.3176 7.83377 48.3176 6.42283 47.4472 5.55238C47.0129 5.11808 46.4419 4.9 45.8713 4.9C45.3005 4.9 44.7315 5.11816 44.2955 5.55223ZM38.6687 15.787L38.6682 15.787L36.9689 16.0291L37.2108 14.3302C37.2108 14.3301 37.2108 14.33 37.2109 14.33C37.228 14.2139 37.263 14.1006 37.3139 13.9961L39.001 15.6833C38.8966 15.7356 38.7842 15.7712 38.6687 15.787ZM37.9597 13.2651L44.127 7.09768L45.9002 8.87258L39.7346 15.04L37.9597 13.2651Z" fill="black" stroke="black" stroke-width="0.2"/>
<path d="M11.7521 8.98V11.08H14.5721V12.412H11.7521V14.632H14.9321V16H10.0721V7.612H14.9321V8.98H11.7521ZM16.0269 12.652C16.0269 11.98 16.1589 11.384 16.4229 10.864C16.6949 10.344 17.0629 9.944 17.5269 9.664C17.9909 9.384 18.5069 9.244 19.0749 9.244C19.5069 9.244 19.9189 9.34 20.3109 9.532C20.7029 9.716 21.0149 9.964 21.2469 10.276V7.12H22.9509V16H21.2469V15.016C21.0389 15.344 20.7469 15.608 20.3709 15.808C19.9949 16.008 19.5589 16.108 19.0629 16.108C18.5029 16.108 17.9909 15.964 17.5269 15.676C17.0629 15.388 16.6949 14.984 16.4229 14.464C16.1589 13.936 16.0269 13.332 16.0269 12.652ZM21.2589 12.676C21.2589 12.268 21.1789 11.92 21.0189 11.632C20.8589 11.336 20.6429 11.112 20.3709 10.96C20.0989 10.8 19.8069 10.72 19.4949 10.72C19.1829 10.72 18.8949 10.796 18.6309 10.948C18.3669 11.1 18.1509 11.324 17.9829 11.62C17.8229 11.908 17.7429 12.252 17.7429 12.652C17.7429 13.052 17.8229 13.404 17.9829 13.708C18.1509 14.004 18.3669 14.232 18.6309 14.392C18.9029 14.552 19.1909 14.632 19.4949 14.632C19.8069 14.632 20.0989 14.556 20.3709 14.404C20.6429 14.244 20.8589 14.02 21.0189 13.732C21.1789 13.436 21.2589 13.084 21.2589 12.676ZM25.4437 8.56C25.1477 8.56 24.8997 8.468 24.6997 8.284C24.5077 8.092 24.4117 7.856 24.4117 7.576C24.4117 7.296 24.5077 7.064 24.6997 6.88C24.8997 6.688 25.1477 6.592 25.4437 6.592C25.7397 6.592 25.9837 6.688 26.1757 6.88C26.3757 7.064 26.4757 7.296 26.4757 7.576C26.4757 7.856 26.3757 8.092 26.1757 8.284C25.9837 8.468 25.7397 8.56 25.4437 8.56ZM26.2717 9.352V16H24.5917V9.352H26.2717ZM29.8875 10.732V13.948C29.8875 14.172 29.9395 14.336 30.0435 14.44C30.1555 14.536 30.3395 14.584 30.5955 14.584H31.3755V16H30.3195C28.9035 16 28.1955 15.312 28.1955 13.936V10.732H27.4035V9.352H28.1955V7.708H29.8875V9.352H31.3755V10.732H29.8875Z" fill="black"/>
</svg>
