<svg width="9" height="9" viewBox="0 0 9 9" fill="none" xmlns="http://www.w3.org/2000/svg">
<path d="M8.00301 6.32802C7.98968 7.14835 7.3217 7.81068 6.50186 7.81068H2.82018C1.99203 7.81068 1.31883 7.13485 1.31883 6.30302V2.60714C1.31883 1.77532 1.99203 1.09948 2.82018 1.09948H4.14985H4.17485V1.07448V0.635254V0.610254H4.14985H2.82018C1.72349 0.610254 0.831415 1.50617 0.831415 2.60714V6.30302C0.831415 7.40399 1.72349 8.29991 2.82018 8.29991H6.50084C7.59753 8.29991 8.4896 7.40399 8.4896 6.30302V4.96785V4.94285H8.4646H8.02719H8.00219V4.96785V6.30302V6.32802H8.00301Z" fill="white" stroke="white" stroke-width="0.05"/>
<path d="M6.87543 0.707264L6.87539 0.707302L2.66001 4.94013C2.4831 5.11776 2.36792 5.34798 2.33335 5.59717C2.33335 5.59719 2.33335 5.59721 2.33334 5.59723L2.13872 6.96316L2.13871 6.96323C2.12022 7.09557 2.22311 7.21079 2.35196 7.21079C2.36258 7.21079 2.37297 7.20963 2.38183 7.20864L2.38239 7.20858L2.38239 7.20859L2.38318 7.20848L3.74357 7.01304L3.74358 7.01303C3.99169 6.97729 4.22101 6.8627 4.39798 6.685L8.61337 2.45217C9.09328 1.97028 9.09328 1.1892 8.61337 0.707302C8.37391 0.466855 8.05912 0.346094 7.74438 0.346094C7.42962 0.346094 7.11588 0.466876 6.87543 0.707264ZM3.67515 6.52841L3.67501 6.52843L2.67232 6.67184L2.81514 5.66498C2.81514 5.66497 2.81514 5.66495 2.81515 5.66493C2.82745 5.58115 2.85536 5.49975 2.89672 5.42706L3.91112 6.44566C3.83872 6.48825 3.75842 6.51697 3.67515 6.52841ZM8.2686 2.10518L8.26857 2.10521L8.15005 2.22423L7.10253 1.17138L7.22121 1.0522C7.36097 0.911865 7.54719 0.834291 7.74541 0.834291C7.94361 0.834291 8.12981 0.911854 8.26957 1.05217C8.558 1.3428 8.55796 1.81563 8.2686 2.10518ZM4.27373 6.11761L3.2252 5.06475L6.75788 1.51745L7.8054 2.57031L4.27373 6.11761Z" fill="white" stroke="white" stroke-width="0.05"/>
</svg>
