<svg width="24" height="25" viewBox="0 0 24 25" fill="none" xmlns="http://www.w3.org/2000/svg">
    <path
        d="M23.244 0.0769989C23.5208 0.175511 23.8257 0.485119 23.9196 0.771272C23.9946 0.982368 23.9993 1.88305 23.9993 12.0063C23.9993 24.3578 24.0321 23.2835 23.6475 23.6635C23.2722 24.0388 23.746 24.0153 16.9393 24.0153C10.1326 24.0153 10.6064 24.0388 10.2311 23.6635C9.7714 23.2038 9.7714 22.4814 10.2311 22.0216C10.6017 21.6464 10.2124 21.6698 16.2685 21.6698H21.6538V12.0063V2.34277H16.2685C10.2124 2.34277 10.6017 2.36622 10.2311 1.99094C9.7714 1.53122 9.7714 0.8088 10.2311 0.349079C10.6064 -0.0262038 10.1279 -0.00274861 16.9581 0.00194242C22.3387 0.00194242 23.0611 0.0113245 23.244 0.0769989Z"
        fill="white" />
    <path
        d="M7.4869 4.9463C8.12488 5.15271 8.46263 5.90796 8.18586 6.5178C8.1155 6.67729 7.5901 7.23084 6.04206 8.77888L3.99208 10.8335H9.69637C16.1043 10.8335 15.6727 10.8101 16.048 11.1854C16.5078 11.6451 16.5078 12.3675 16.048 12.8272C15.6727 13.2025 16.1043 13.1791 9.69637 13.1791H3.99208L6.04206 15.229C7.16791 16.3596 8.12488 17.3588 8.17179 17.4479C8.29845 17.6871 8.28906 18.2079 8.15772 18.4612C8.04044 18.6816 7.77305 18.935 7.55257 19.0241C7.3274 19.1179 6.84423 19.1038 6.61437 19.0006C6.32821 18.8693 0.26271 12.8319 0.112597 12.5317C-0.0375165 12.2268 -0.0375165 11.7858 0.112597 11.4809C0.253327 11.1994 6.30476 5.16209 6.60498 5.01198C6.84892 4.88532 7.21951 4.85717 7.4869 4.9463Z"
        fill="white" />
</svg>
