<svg width="20" height="20" viewBox="0 0 20 20" fill="none" xmlns="http://www.w3.org/2000/svg">
    <path
        d="M18.3629 17.5212L17.9583 16.3075C17.7889 15.799 17.5124 15.3327 17.1475 14.9402C16.7826 14.5477 16.3377 14.238 15.8429 14.032L14.0854 13.2995L15.9187 12.9075C15.988 12.8925 16.0524 12.8602 16.1056 12.8134C16.1589 12.7667 16.1994 12.7072 16.2233 12.6404C16.2472 12.5737 16.2536 12.502 16.242 12.432C16.2304 12.3621 16.2012 12.2963 16.1571 12.2408C15.5747 11.5148 15.2039 10.6422 15.0854 9.71912C15.2909 9.58395 15.4638 9.40466 15.5914 9.19437C15.719 8.98403 15.7982 8.74791 15.8232 8.5032C15.8482 8.25845 15.8183 8.0112 15.7358 7.77945C15.6533 7.5477 15.5202 7.3372 15.3462 7.16328C15.5372 6.35624 15.5431 5.51645 15.3634 4.70678C15.1837 3.89716 14.823 3.1387 14.3085 2.48824C13.794 1.83778 13.139 1.3122 12.3925 0.950877C11.646 0.589552 10.8274 0.401855 9.99811 0.401855C9.16878 0.401855 8.35019 0.589552 7.60369 0.950877C6.85719 1.3122 6.20215 1.83778 5.68765 2.48824C5.17319 3.1387 4.81257 3.89716 4.63286 4.70678C4.45315 5.51645 4.45899 6.35624 4.64999 7.16328C4.47611 7.33745 4.3432 7.54812 4.26082 7.78003C4.17845 8.01191 4.14867 8.2592 4.1737 8.50403C4.1987 8.74887 4.27786 8.98503 4.4054 9.19549C4.53299 9.40595 4.70574 9.58537 4.91124 9.72078C4.79274 10.6439 4.42195 11.5165 3.83957 12.2425C3.79545 12.298 3.76621 12.3637 3.75462 12.4337C3.74303 12.5036 3.74947 12.5753 3.77333 12.6421C3.79719 12.7088 3.83768 12.7684 3.89098 12.8151C3.94427 12.8618 4.00861 12.8942 4.0779 12.9091L5.91124 13.3012L4.15707 14.0316C3.6623 14.2377 3.21747 14.5475 2.85256 14.9401C2.48765 15.3327 2.21113 15.799 2.04165 16.3075L1.63707 17.5212C1.57441 17.7091 1.5573 17.9092 1.58716 18.105C1.61701 18.3009 1.69298 18.4868 1.80879 18.6475C1.9246 18.8082 2.07694 18.939 2.25326 19.0293C2.42958 19.1195 2.62482 19.1666 2.8229 19.1666H17.1771C17.3751 19.1666 17.5704 19.1195 17.7467 19.0293C17.923 18.939 18.0754 18.8082 18.1912 18.6475C18.307 18.4868 18.3829 18.3009 18.4128 18.105C18.4426 17.9092 18.4256 17.7091 18.3629 17.5212ZM10.0167 17.7454C9.63294 17.3378 9.30594 16.8804 9.04457 16.3854C9.68444 16.4786 10.3345 16.4776 10.9742 16.3825C10.7173 16.8775 10.3953 17.3359 10.0167 17.7454ZM4.99999 8.33328C4.99999 8.11228 5.08778 7.90033 5.24407 7.74403C5.40032 7.58774 5.61232 7.49995 5.83332 7.49995C5.85832 7.50003 5.88328 7.49778 5.9079 7.49328L8.74999 6.9762C9.80653 6.78578 10.7933 6.31737 11.6087 5.61912L11.7908 5.86245C12.3557 6.61758 13.1383 7.18162 14.0333 7.4787C14.0763 7.49299 14.1214 7.50016 14.1667 7.49995C14.3877 7.49995 14.5996 7.58774 14.7559 7.74403C14.9122 7.90033 15 8.11228 15 8.33328C15 8.55428 14.9122 8.76624 14.7559 8.92253C14.5996 9.07883 14.3877 9.16662 14.1667 9.16662C14.1081 9.16608 14.0497 9.15866 13.9929 9.14453C13.9391 9.13166 13.8832 9.12966 13.8286 9.13866C13.7739 9.14762 13.7217 9.16737 13.6748 9.19678C13.6279 9.2262 13.5873 9.26466 13.5554 9.30991C13.5236 9.35516 13.501 9.40633 13.4892 9.46037L13.2308 10.6291C13.1475 11.0073 12.9896 11.365 12.7662 11.6814C12.5428 11.9977 12.2585 12.2662 11.93 12.4712L10.6608 13.26C10.463 13.386 10.2333 13.453 9.99874 13.453C9.76415 13.453 9.53444 13.386 9.33665 13.26L8.07124 12.4729C7.74265 12.2682 7.45824 12 7.23474 11.684C7.01119 11.368 6.85307 11.0105 6.76957 10.6325L6.51082 9.46162C6.4904 9.36895 6.43899 9.28599 6.36503 9.22653C6.29107 9.16703 6.19903 9.13458 6.10415 9.13453C6.07144 9.13453 6.0389 9.13833 6.00707 9.14578C5.95015 9.15949 5.89186 9.16649 5.83332 9.16662C5.61232 9.16662 5.40032 9.07883 5.24407 8.92253C5.08778 8.76624 4.99999 8.55428 4.99999 8.33328ZM11.3575 15.4612C10.469 15.6663 9.54557 15.6673 8.65665 15.4641C8.45915 14.8687 8.35228 14.2471 8.33957 13.62L8.89415 13.9649C9.22403 14.1752 9.60711 14.287 9.99832 14.287C10.3895 14.287 10.7726 14.1752 11.1025 13.9649L11.6612 13.6174C11.6531 14.2438 11.5507 14.8653 11.3575 15.4612ZM15.125 12.225L13 12.6795C13.5208 12.1698 13.8839 11.5209 14.0458 10.8104L14.2233 9.99995C14.2467 9.99995 14.2683 9.99245 14.2912 9.99078C14.4133 10.7847 14.6971 11.5452 15.125 12.225ZM5.33749 5.91245C5.33444 5.26403 5.46669 4.62208 5.72582 4.02765C5.9849 3.43321 6.36515 2.89937 6.84224 2.46021C7.31936 2.02105 7.88282 1.68623 8.49661 1.47716C9.11044 1.26808 9.76111 1.18934 10.4071 1.24596C11.053 1.30259 11.6801 1.49333 12.2482 1.80601C12.8162 2.11869 13.3129 2.54643 13.7063 3.06189C14.0997 3.57736 14.3813 4.1692 14.533 4.79966C14.6847 5.43012 14.7033 6.08528 14.5875 6.72328C14.4742 6.6922 14.3581 6.6732 14.2408 6.66662C13.5302 6.41874 12.9097 5.9647 12.4583 5.36245L12 4.74995C11.9643 4.70199 11.9187 4.66233 11.8662 4.63353C11.8138 4.60478 11.7559 4.58766 11.6962 4.58328C11.6367 4.57958 11.5771 4.58845 11.5212 4.60933C11.4654 4.63024 11.4145 4.66266 11.3721 4.70453C10.6189 5.45974 9.65253 5.96608 8.6029 6.15537L5.79165 6.66662C5.66244 6.67091 5.53415 6.69045 5.40957 6.72495C5.3619 6.45674 5.33778 6.18487 5.33749 5.91245ZM5.70874 9.98995C5.73165 9.98995 5.75332 9.99828 5.77665 9.99912L5.95582 10.8125C6.1179 11.5223 6.48099 12.1705 7.00165 12.6795L4.87499 12.225C5.30282 11.5449 5.58644 10.7842 5.70832 9.98995H5.70874ZM2.48457 18.16C2.44565 18.1066 2.42014 18.0447 2.41021 17.9794C2.40027 17.9142 2.4062 17.8474 2.42748 17.7849L2.83332 16.5712C2.9651 16.1757 3.18017 15.813 3.46401 15.5075C3.74785 15.2021 4.09386 14.9611 4.47874 14.8008L7.50374 13.5404C7.51303 15.324 8.20015 17.0374 9.42582 18.3333H2.8229C2.75674 18.3337 2.69146 18.3181 2.63257 18.2879C2.57369 18.2577 2.52292 18.2139 2.48457 18.16ZM17.5154 18.16C17.477 18.2139 17.4263 18.2577 17.3674 18.2879C17.3085 18.3181 17.2432 18.3337 17.1771 18.3333H10.6071C11.8218 17.0333 12.4983 15.3209 12.5 13.5416L15.5233 14.8016C15.9077 14.9621 16.2533 15.2031 16.5367 15.5083C16.8202 15.8136 17.035 16.176 17.1667 16.5712L17.5712 17.7849C17.5927 17.8474 17.5988 17.914 17.5891 17.9793C17.5794 18.0445 17.5541 18.1065 17.5154 18.16Z"
        fill="#5F5F5F" />
</svg>
