<svg width="24" height="24" viewBox="0 0 24 24" fill="none" xmlns="http://www.w3.org/2000/svg">
<g clip-path="url(#clip0_2649_1199)">
<path d="M12 0.959961C5.90255 0.959961 0.959991 5.90252 0.959991 12C0.959991 18.0974 5.90255 23.04 12 23.04C18.0974 23.04 23.04 18.0974 23.04 12C23.04 5.90252 18.0974 0.959961 12 0.959961ZM12 5.27996C12.7954 5.27996 13.44 5.9246 13.44 6.71996C13.44 7.51532 12.7954 8.15996 12 8.15996C11.2046 8.15996 10.56 7.51532 10.56 6.71996C10.56 5.9246 11.2046 5.27996 12 5.27996ZM13.92 18.24H12.96H11.04H10.08V17.28H11.04V11.04H10.08V10.08H11.04H12.96V11.04V17.28H13.92V18.24Z" fill="white"/>
</g>
<defs>
<clipPath id="clip0_2649_1199">
<rect width="24" height="24" fill="white"/>
</clipPath>
</defs>
</svg>
