<svg width="32" height="33" viewBox="0 0 32 33" fill="none" xmlns="http://www.w3.org/2000/svg">
    <path
        d="M15.0251 1.91868L14.0876 3.83743L11.9939 4.13743C10.8501 4.30618 9.89386 4.45618 9.88136 4.46868C9.86261 4.48743 10.5376 5.16868 11.3751 5.98118L12.9001 7.46868L12.5439 9.55618C12.3501 10.7062 12.2001 11.6562 12.2189 11.6687C12.2314 11.6812 13.0814 11.2562 14.1001 10.7187C15.1189 10.1812 15.9814 9.74368 16.0064 9.74368C16.0314 9.74368 16.8876 10.1812 17.9064 10.7187C18.9251 11.2562 19.7689 11.6812 19.7814 11.6687C19.8001 11.6562 19.6501 10.7062 19.4564 9.55618L19.1001 7.46868L20.6251 5.98118C21.4626 5.16868 22.1376 4.48118 22.1189 4.46868C22.1001 4.44993 21.1439 4.29993 20.0001 4.13743L17.9126 3.83743L16.9751 1.91868C16.4564 0.862427 16.0189 -7.34329e-05 16.0001 -7.34329e-05C15.9814 -7.34329e-05 15.5439 0.862427 15.0251 1.91868Z"
        fill="white" />
    <path d="M11.5744 23.1426V31.9937H15.9999H20.4255V23.1426V14.2915H15.9999H11.5744V23.1426Z" fill="white" />
    <path d="M22.069 25.383V32.0037H27.0345H32V25.383V18.7623H27.0345H22.069V25.383Z" fill="white" />
    <path d="M0 26.4864V32.0037H4.96552H9.93103L9.91788 26.507L9.89815 21.0207L4.95236 20.9898L0 20.9692V26.4864Z" fill="white" />
</svg>
