<svg width="41" height="31" viewBox="0 0 41 31" fill="none" xmlns="http://www.w3.org/2000/svg">
<path d="M8.39819 0.012207C9.42964 0.321249 10.2475 0.832713 10.5695 1.91591C10.6779 2.28057 11.0478 2.22495 11.3523 1.8201C12.3885 0.438684 14.3813 0.390783 15.4478 1.72739C15.811 2.17339 15.9926 2.73319 15.958 3.30041C16.2082 3.30041 16.2449 3.09645 16.3453 2.97437C16.669 2.56473 17.1177 2.26453 17.6276 2.11655C18.1376 1.96856 18.6827 1.98035 19.1853 2.15022C19.6879 2.32008 20.1224 2.63937 20.4269 3.06259C20.7313 3.48581 20.8902 3.99136 20.8809 4.50722C20.8809 4.68801 20.7422 4.93679 20.9654 5.03723C21.2141 5.14848 21.2699 4.85335 21.3974 4.72819C21.7466 4.37927 22.1931 4.13658 22.6824 4.02982C23.1717 3.92307 23.6825 3.95687 24.1522 4.1271C24.6182 4.30284 25.0206 4.60744 25.3094 5.00305C25.5982 5.39865 25.7607 5.86781 25.7767 6.3522C25.7847 6.54226 25.6779 6.75859 25.9792 6.88994C26.2805 7.02128 26.3825 6.84512 26.5515 6.7246C27.3757 6.13742 28.2685 6.02153 29.1963 6.43873C30.1241 6.85594 30.5912 7.61155 30.6646 8.60203C30.714 9.25102 30.9117 9.35763 31.4505 9.01923C31.867 8.74778 32.3584 8.60474 32.8603 8.60887C33.3622 8.61301 33.8511 8.76414 34.2627 9.04241C35.1906 9.67904 35.5158 10.5598 35.3245 11.6245C35.2081 12.2704 35.3723 12.4496 35.9988 12.3013C36.5013 12.1696 37.0335 12.1913 37.5228 12.3633C38.0122 12.5354 38.4349 12.8495 38.7334 13.2628C39.032 13.6761 39.1918 14.1686 39.1911 14.6732C39.1904 15.1777 39.0293 15.6698 38.7297 16.0824C38.2674 16.7376 38.3104 16.8658 39.0788 17.0945C40.1246 17.4035 40.9202 18.4945 40.8516 19.5236C40.8285 20.0773 40.6134 20.6073 40.2411 21.0279C39.8688 21.4485 39.361 21.7351 38.7999 21.8414C38.5974 21.88 38.3327 21.8414 38.2562 22.0994C38.1877 22.3328 38.4156 22.4317 38.5416 22.563C38.9031 22.9481 39.1285 23.435 39.185 23.9528C39.2415 24.4705 39.1262 24.9923 38.8558 25.4422C38.5854 25.8921 38.174 26.2467 37.6814 26.4545C37.1889 26.6623 36.6408 26.7124 36.1168 26.5975C35.2846 26.4137 35.2272 26.4631 35.3532 27.2573C35.4457 27.7959 35.3531 28.349 35.0895 28.8314C34.8259 29.3139 34.406 29.699 33.8945 29.9275C32.8981 30.3833 31.7439 30.1484 30.9483 29.3264C30.4701 28.8288 30.054 28.8814 29.7351 29.4809C29.458 29.999 29 30.4048 28.4429 30.6261C27.8858 30.8474 27.2657 30.8698 26.6931 30.6893C26.1206 30.5087 25.6328 30.137 25.3166 29.6404C25.0005 29.1437 24.8765 28.5544 24.9669 27.9774C25.0354 27.5648 24.5284 26.7567 24.1235 26.6331C22.6887 26.1911 21.9905 25.3969 22.0016 24.1947C22.0144 22.9586 22.7286 22.1767 24.2112 21.7626C24.2447 21.7533 24.2702 21.7162 24.3005 21.693C23.0347 20.6578 22.829 20.1957 22.9852 18.6922C22.6313 18.785 22.4289 19.0569 22.1881 19.2593C20.782 20.4306 19.3829 21.6091 17.9906 22.7948C17.6925 23.0482 17.388 23.2583 17.0707 22.8829C16.7535 22.5074 17.0388 22.2524 17.3242 22.0129L21.0674 18.8499C21.296 18.677 21.4872 18.4623 21.6302 18.2179C21.0722 18.3724 20.5142 18.5269 19.9578 18.6984C18.2648 19.1991 16.5701 19.6982 14.8803 20.2112C14.4976 20.3286 14.139 20.3781 14.0003 19.9315C13.8616 19.4849 14.2059 19.3443 14.5805 19.2346C16.6387 18.632 18.692 18.0185 20.7454 17.4082C20.9128 17.3572 21.077 17.3 21.2236 17.2537C21.2794 17.1177 21.1997 17.0837 21.1376 17.0404C20.2623 16.4347 19.8988 15.6142 20.0216 14.5804C20.0391 14.4429 20.1523 14.2621 19.9499 14.171C19.7474 14.0798 19.6772 14.2529 19.5848 14.378C18.9471 15.2588 18.0591 15.6219 16.983 15.4257C15.9069 15.2294 15.2421 14.5511 14.9887 13.5112C14.9616 13.3999 14.9695 13.25 14.8213 13.2392C14.6124 13.2237 14.6619 13.4123 14.6252 13.5312C14.3303 14.6129 13.6384 15.2897 12.4889 15.4442C11.3044 15.5987 10.434 15.1104 9.81385 14.0134C9.76124 13.9191 9.75965 13.763 9.61457 13.7538C9.43602 13.7398 9.41848 13.899 9.35153 14.0164C8.725 15.1491 7.67282 15.6652 6.4931 15.4303C5.3644 15.2047 4.59917 14.3069 4.47801 13.0646C4.46371 12.949 4.42441 12.8377 4.36267 12.7379C4.30092 12.6381 4.21813 12.5521 4.11971 12.4854C4.0213 12.4187 3.90947 12.373 3.79154 12.3511C3.67362 12.3292 3.55226 12.3317 3.4354 12.3584C2.02771 12.6829 0.819293 12.0988 0.331463 10.858C-0.146801 9.64504 0.382477 8.42124 1.6706 7.76761C2.10104 7.54819 2.16162 7.22679 1.83002 6.85748C1.1477 6.11269 0.943641 5.26592 1.29756 4.33416C1.65147 3.4024 2.38003 2.88475 3.38917 2.72714C3.84754 2.67345 4.31221 2.74798 4.72831 2.94192C5.32135 3.18298 5.52541 3.07172 5.56367 2.47836C5.64817 1.37199 6.21252 0.605568 7.2918 0.194542C7.42412 0.14355 7.62978 0.214629 7.69195 0.0152969L8.39819 0.012207ZM34.4413 25.743L34.6007 25.8357C34.6549 25.7446 34.6437 25.6735 34.5369 25.6271C34.5162 25.5731 34.5003 25.5174 34.4748 25.4726C33.5278 23.6307 34.5592 21.9295 36.6859 21.8259C36.7943 21.8259 36.9426 21.8877 37.0048 21.7518C37.0797 21.5849 36.9203 21.5308 36.8151 21.4427C35.3595 20.2066 35.3914 18.5779 36.8932 17.4005C36.9569 17.351 37.0159 17.3046 36.9777 17.2135C35.8729 17.1857 34.9674 16.7901 34.4174 15.8228C33.8674 14.8555 34.1543 13.8836 34.6405 12.9394C34.457 13.0077 34.2813 13.0942 34.1161 13.1975C33.7745 13.3892 33.3916 13.5012 32.9977 13.5245C32.6037 13.5478 32.2096 13.4819 31.8465 13.332C31.4834 13.182 31.1613 12.9522 30.9058 12.6606C30.6503 12.3691 30.4684 12.0238 30.3744 11.6523C30.2618 11.2184 30.2784 10.7624 30.4223 10.3373C30.4525 10.2492 30.4796 10.1426 30.3792 10.0777C30.2788 10.0128 30.1975 10.0978 30.1289 10.1658C30.0604 10.2338 29.9695 10.3388 29.885 10.4192C29.5135 10.7725 29.0389 11.0064 28.5256 11.0894C28.0123 11.1723 27.485 11.1002 27.0154 10.8828C26.5393 10.653 26.1481 10.2862 25.8955 9.83249C25.6429 9.3788 25.5413 8.86049 25.6045 8.34861C25.6253 8.174 25.7879 7.94377 25.5472 7.82479C25.3064 7.70581 25.2283 7.99012 25.1056 8.11065C24.3467 8.84617 23.2706 9.09959 22.2997 8.70092C21.3289 8.30226 20.782 7.55592 20.7199 6.50827C20.7103 6.35375 20.8203 6.15132 20.5987 6.04471C20.3452 5.92109 20.248 6.13742 20.1061 6.2564C18.9981 7.18352 17.5554 7.16344 16.543 6.19768C16.0472 5.7233 15.84 5.11603 15.7858 4.46241C15.5578 4.47168 15.5243 4.6262 15.4382 4.72201C14.7081 5.5456 13.801 5.88246 12.7121 5.56724C11.6807 5.26901 11.086 4.56594 10.917 3.53374C10.8931 3.39004 10.9521 3.19688 10.7321 3.16134C10.5121 3.1258 10.5089 3.3375 10.4468 3.47039C9.64964 5.08204 7.84818 5.47916 6.4118 4.36197C6.32571 4.29707 6.25237 4.17346 6.11208 4.26926C6.26194 6.49436 5.84585 7.09236 3.69844 7.71353C5.2799 8.60666 5.59875 9.87683 4.8941 11.5086C5.69121 10.7962 6.53615 10.4068 7.58514 10.6432C8.63413 10.8797 9.23834 11.5704 9.53646 12.5609C9.59225 12.5099 9.65762 12.479 9.67196 12.4326C10.0052 11.3618 10.7305 10.702 11.88 10.5969C13.0294 10.4918 13.8759 10.9817 14.4307 11.9752C14.6363 12.3461 14.9823 12.3043 15.2182 11.9072C15.8017 10.9307 16.8045 10.4331 17.8646 10.5938C18.9248 10.7545 19.7506 11.5503 19.9833 12.6767C20.1141 13.3103 20.4393 13.4231 20.9909 13.026C21.4249 12.7117 21.9503 12.5385 22.492 12.531C23.0337 12.5235 23.564 12.6822 24.0071 12.9842C24.4384 13.2851 24.7612 13.7096 24.9299 14.1979C25.0987 14.6861 25.1049 15.2135 24.9477 15.7054C24.7389 16.359 25.0737 16.8782 25.7831 17.0002C27.0712 17.2227 27.9018 18.0819 28.015 19.3011C28.1106 20.3827 27.4219 21.3964 26.2486 21.7734C25.6858 21.9557 25.8612 22.0732 26.1737 22.3389C27.3964 23.3773 27.3964 25.0183 26.1737 26.1031C26.2521 26.1158 26.3318 26.1199 26.4112 26.1154C28.5459 25.7461 29.0209 25.9717 29.9759 27.826C30.0237 27.9202 30.0572 28.0068 30.1736 27.9975C30.341 27.9851 30.325 27.8553 30.333 27.7394C30.3406 27.5092 30.3694 27.2802 30.4191 27.0549C30.8989 25.3382 32.7179 24.7526 34.4413 25.743ZM27.4889 26.9313C27.2948 26.9274 27.1019 26.9611 26.9215 27.0306C26.7411 27.1 26.5768 27.2037 26.4383 27.3356C26.2999 27.4675 26.1901 27.6249 26.1153 27.7985C26.0406 27.9722 26.0024 28.1586 26.0031 28.3467C25.9978 28.7267 26.1455 29.0937 26.4149 29.3699C26.6843 29.646 27.0541 29.8094 27.4459 29.8255C27.849 29.8252 28.2359 29.6718 28.5238 29.3983C28.8117 29.1247 28.9775 28.7528 28.9859 28.3622C28.9788 27.9813 28.8181 27.6184 28.5384 27.3509C28.2586 27.0835 27.8819 26.9329 27.4889 26.9313ZM16.8746 4.45314C16.8687 4.64139 16.9011 4.82894 16.97 5.00503C17.0389 5.18113 17.143 5.34233 17.2763 5.4794C17.4095 5.61646 17.5694 5.72671 17.7467 5.80383C17.9239 5.88094 18.1152 5.92342 18.3094 5.92881C18.5097 5.93734 18.7097 5.90685 18.8975 5.83912C19.0854 5.7714 19.2574 5.66783 19.4032 5.53455C19.5491 5.40126 19.6659 5.24097 19.7467 5.06315C19.8274 4.88534 19.8706 4.69363 19.8736 4.49936C19.8766 4.30509 19.8393 4.11221 19.764 3.93215C19.6887 3.75208 19.577 3.58849 19.4353 3.45105C19.2936 3.31361 19.1249 3.20512 18.9392 3.132C18.7535 3.05888 18.5545 3.02262 18.3541 3.02537C18.16 3.02414 17.9675 3.06019 17.7879 3.13143C17.6082 3.20267 17.4449 3.3077 17.3074 3.44044C17.1698 3.57319 17.0608 3.73102 16.9865 3.90484C16.9122 4.07865 16.8742 4.265 16.8746 4.45314ZM28.0947 10.1055C28.2933 10.1092 28.4907 10.0744 28.6752 10.003C28.8597 9.93169 29.0276 9.82527 29.169 9.69006C29.3105 9.55486 29.4226 9.39358 29.4987 9.21575C29.5748 9.03791 29.6135 8.8471 29.6124 8.65456C29.6124 8.36845 29.5251 8.08874 29.3615 7.85058C29.1979 7.61243 28.9653 7.42647 28.693 7.31609C28.4206 7.2057 28.1207 7.17582 27.8309 7.2302C27.5411 7.28457 27.2744 7.42078 27.0642 7.6217C26.8541 7.82261 26.7099 8.07926 26.6498 8.35938C26.5897 8.6395 26.6164 8.93059 26.7266 9.19604C26.8367 9.46149 27.0253 9.68946 27.2688 9.85128C27.5122 10.0131 27.7995 10.1016 28.0947 10.1055ZM25.4435 17.9861C25.0508 17.9914 24.676 18.1462 24.4001 18.4171C24.1241 18.688 23.9693 19.0533 23.9689 19.4339C23.9677 19.7228 24.0552 20.0055 24.2205 20.246C24.3857 20.4864 24.6211 20.6737 24.8966 20.7839C25.1721 20.8942 25.4752 20.9224 25.7673 20.8649C26.0594 20.8075 26.3272 20.667 26.5366 20.4614C26.746 20.2558 26.8875 19.9945 26.9429 19.7106C26.9984 19.4268 26.9654 19.1334 26.8482 18.8678C26.7309 18.6022 26.5346 18.3765 26.2845 18.2194C26.0343 18.0624 25.7415 17.9812 25.4435 17.9861ZM39.7915 19.42C39.7921 19.2314 39.7542 19.0446 39.68 18.8702C39.6058 18.6959 39.4967 18.5375 39.359 18.4042C39.2213 18.2709 39.0578 18.1653 38.8778 18.0935C38.6979 18.0218 38.505 17.9853 38.3104 17.9861C38.0143 17.9839 37.7242 18.0673 37.4771 18.2254C37.23 18.3836 37.037 18.6095 36.9227 18.8743C36.8084 19.1391 36.778 19.4309 36.8354 19.7125C36.8927 19.9941 37.0352 20.2528 37.2448 20.4556C37.4543 20.6585 37.7213 20.7963 38.0119 20.8516C38.3025 20.9069 38.6035 20.8771 38.8766 20.7661C39.1497 20.655 39.3825 20.4677 39.5454 20.228C39.7083 19.9883 39.794 19.7071 39.7915 19.42ZM3.64743 3.7238C3.2548 3.72944 2.88002 3.88375 2.60326 4.15375C2.32649 4.42374 2.16969 4.78798 2.1664 5.16857C2.16839 5.35932 2.20912 5.54781 2.28627 5.7233C2.36342 5.89879 2.47547 6.05783 2.61603 6.19134C2.75659 6.32486 2.92291 6.43023 3.10548 6.50144C3.28806 6.57266 3.48332 6.60832 3.68011 6.60639C3.8769 6.60446 4.07138 6.56498 4.25243 6.49021C4.43348 6.41543 4.59757 6.30682 4.73532 6.17058C4.87306 6.03434 4.98178 5.87314 5.05525 5.69618C5.12872 5.51921 5.16551 5.32996 5.16353 5.13921C5.15106 4.75828 4.9856 4.39712 4.70239 4.13273C4.41918 3.86833 4.04064 3.72159 3.64743 3.7238ZM1.21306 9.9989C1.21208 10.3798 1.36473 10.7461 1.63845 11.0195C1.91216 11.2928 2.28526 11.4517 2.67815 11.4622C3.08116 11.4606 3.46729 11.3051 3.75287 11.0295C4.03844 10.7538 4.20046 10.3802 4.20381 9.98962C4.1971 9.60888 4.03492 9.24626 3.75281 8.98123C3.47071 8.7162 3.09171 8.57039 2.69887 8.57576C2.50435 8.57267 2.31115 8.60725 2.1306 8.67746C1.95004 8.74768 1.78576 8.85211 1.64738 8.98466C1.509 9.1172 1.39931 9.27518 1.32473 9.44934C1.25015 9.6235 1.21219 9.81033 1.21306 9.9989ZM26.0222 24.1978C26.0193 23.8169 25.8618 23.4524 25.5837 23.1832C25.3057 22.914 24.9294 22.7617 24.5364 22.7592C24.1398 22.7623 23.7607 22.918 23.4825 23.192C23.2043 23.4659 23.0498 23.8358 23.053 24.2202C23.0562 24.6046 23.2168 24.9721 23.4994 25.2417C23.7821 25.5114 24.1637 25.6611 24.5603 25.6581C24.7554 25.6567 24.9482 25.6176 25.1275 25.5431C25.3068 25.4686 25.469 25.3602 25.6045 25.2243C25.7401 25.0883 25.8463 24.9275 25.9169 24.7512C25.9875 24.575 26.0212 24.3868 26.0158 24.1978H26.0222ZM17.4438 11.5905C17.2491 11.5913 17.0566 11.6293 16.8771 11.7022C16.6976 11.7752 16.5348 11.8818 16.3978 12.0158C16.2609 12.1499 16.1525 12.3087 16.0789 12.4834C16.0054 12.6581 15.9681 12.845 15.9691 13.0337C15.9814 13.4139 16.1424 13.7754 16.4195 14.0448C16.6966 14.3143 17.069 14.4715 17.4613 14.4846C17.864 14.4781 18.2475 14.3169 18.5276 14.0365C18.8077 13.756 18.9615 13.3792 18.9551 12.9889C18.9531 12.7996 18.9119 12.6126 18.834 12.4391C18.7561 12.2655 18.643 12.1089 18.5015 11.9784C18.3599 11.848 18.1928 11.7465 18.01 11.6798C17.8272 11.6132 17.6325 11.5828 17.4374 11.5905H17.4438ZM38.1383 14.6963C38.1487 14.5076 38.1192 14.3187 38.0518 14.1413C37.9844 13.964 37.8803 13.8018 37.7461 13.6647C37.6118 13.5276 37.4501 13.4184 37.2708 13.344C37.0915 13.2695 36.8985 13.2312 36.7035 13.2315C36.504 13.2244 36.3051 13.2562 36.1185 13.325C35.9319 13.3937 35.7614 13.498 35.6171 13.6317C35.4728 13.7653 35.3576 13.9257 35.2783 14.1033C35.199 14.2808 35.1573 14.472 35.1555 14.6654C35.1662 15.0455 35.326 15.4074 35.6024 15.6772C35.8787 15.9471 36.2508 16.1047 36.6429 16.1179C36.8371 16.1198 37.0297 16.0844 37.2098 16.0139C37.3898 15.9433 37.5537 15.839 37.6921 15.707C37.8304 15.5749 37.9405 15.4176 38.016 15.2442C38.0914 15.0707 38.1308 14.8846 38.1319 14.6963H38.1383ZM38.1383 24.1947C38.1383 23.8136 37.9827 23.4479 37.7055 23.1775C37.4283 22.9071 37.0521 22.754 36.6588 22.7515C36.2657 22.7591 35.8904 22.9122 35.61 23.1794C35.3296 23.4466 35.1653 23.8077 35.1507 24.1886C35.1522 24.3825 35.193 24.5742 35.271 24.7528C35.349 24.9314 35.4625 25.0934 35.6051 25.2294C35.7476 25.3655 35.9165 25.4729 36.102 25.5457C36.2874 25.6184 36.4859 25.655 36.6859 25.6534C36.8806 25.6518 37.0731 25.6127 37.252 25.5382C37.4309 25.4637 37.5927 25.3553 37.7279 25.2195C37.8632 25.0837 37.9691 24.9231 38.0396 24.7472C38.11 24.5712 38.1436 24.3834 38.1383 24.1947ZM8.10963 3.96176C8.50267 3.95894 8.87883 3.80657 9.15705 3.53748C9.43527 3.26838 9.59328 2.90412 9.59704 2.52317C9.59536 2.33263 9.55498 2.14427 9.47821 1.96886C9.40143 1.79344 9.28976 1.6344 9.14956 1.50082C9.00937 1.36723 8.84341 1.26172 8.66115 1.1903C8.47889 1.11888 8.2839 1.08296 8.08731 1.08458C7.89073 1.08621 7.6964 1.12534 7.51542 1.19976C7.33444 1.27418 7.17036 1.38242 7.03253 1.5183C6.89471 1.65418 6.78585 1.81504 6.71217 1.9917C6.63849 2.16836 6.60143 2.35735 6.6031 2.5479C6.61271 2.92799 6.77602 3.2892 7.05783 3.55368C7.33964 3.81816 7.71738 3.96472 8.10963 3.96176ZM31.3644 11.0357C31.3578 11.2292 31.3914 11.4219 31.4633 11.6025C31.5352 11.7831 31.6438 11.9478 31.7828 12.0868C31.9217 12.2258 32.0881 12.3363 32.2721 12.4116C32.456 12.487 32.6537 12.5256 32.8534 12.5253C33.2458 12.5148 33.619 12.359 33.8965 12.09C34.1741 11.8211 34.3348 11.4593 34.3456 11.079C34.3444 10.6991 34.1894 10.3349 33.9139 10.0647C33.6384 9.79446 33.2645 9.63989 32.8726 9.63423C32.6783 9.62909 32.4849 9.6614 32.3036 9.72926C32.1223 9.79713 31.9567 9.8992 31.8164 10.0296C31.6761 10.1599 31.5639 10.316 31.4863 10.4887C31.4088 10.6614 31.3673 10.8474 31.3644 11.0357ZM8.51935 12.9935C8.51512 12.6077 8.35293 12.2393 8.06845 11.9693C7.78398 11.6994 7.40053 11.5501 7.00245 11.5541C6.60438 11.5582 6.22428 11.7155 5.94579 11.9912C5.66729 12.2669 5.51321 12.6386 5.51744 13.0244C5.5291 13.415 5.69819 13.7857 5.98844 14.0569C6.2787 14.3281 6.66704 14.4784 7.07021 14.4754C7.46253 14.4578 7.83258 14.2937 8.10276 14.0174C8.37294 13.7411 8.52224 13.3742 8.51935 12.9935ZM24.7182 6.45882C24.7275 6.26562 24.6955 6.07263 24.6242 5.89198C24.5529 5.71133 24.4438 5.54692 24.3039 5.40907C24.1639 5.27123 23.996 5.16292 23.8108 5.09095C23.6256 5.01898 23.427 4.98491 23.2276 4.99087C22.8459 4.99327 22.4798 5.13762 22.2048 5.39411C21.9298 5.6506 21.7669 5.99965 21.7497 6.3692C21.744 6.5627 21.7778 6.7554 21.8491 6.93621C21.9205 7.11702 22.0279 7.28239 22.1654 7.42282C22.3029 7.56324 22.4676 7.67596 22.6502 7.75449C22.8327 7.83302 23.0295 7.87581 23.2292 7.88041C23.4234 7.88245 23.6162 7.84723 23.7963 7.77678C23.9764 7.70633 24.1404 7.60204 24.2788 7.46991C24.4172 7.33778 24.5273 7.18042 24.6027 7.0069C24.6781 6.83337 24.7173 6.6471 24.7182 6.45882ZM10.6572 12.9981C10.6469 13.3779 10.7919 13.7462 11.0607 14.0227C11.3295 14.2991 11.7003 14.4613 12.092 14.4738C12.4947 14.4784 12.8827 14.3278 13.1709 14.0551C13.4591 13.7825 13.6238 13.4101 13.6288 13.0198C13.6259 12.64 13.4679 12.2768 13.1895 12.0095C12.9111 11.7423 12.5348 11.5927 12.143 11.5936C11.9486 11.5848 11.7544 11.6149 11.5725 11.682C11.3906 11.749 11.2248 11.8515 11.0855 11.9832C10.9462 12.1149 10.8363 12.273 10.7626 12.4476C10.6889 12.6222 10.653 12.8096 10.6572 12.9981ZM34.336 27.6776C34.3335 27.3916 34.2433 27.1128 34.0769 26.8766C33.9105 26.6403 33.6755 26.4573 33.4016 26.3508C33.1278 26.2443 32.8274 26.2191 32.5387 26.2783C32.25 26.3375 31.986 26.4786 31.7802 26.6835C31.5743 26.8885 31.436 27.1481 31.3826 27.4294C31.3293 27.7107 31.3634 28.0011 31.4806 28.2635C31.5979 28.526 31.7929 28.7488 32.041 28.9037C32.2891 29.0585 32.5791 29.1384 32.8742 29.1332C33.2656 29.1235 33.6377 28.9659 33.9108 28.6939C34.184 28.4219 34.3366 28.0572 34.336 27.6776ZM22.5468 16.4053C22.7411 16.4034 22.9331 16.3644 23.1118 16.2906C23.2906 16.2167 23.4525 16.1095 23.5885 15.975C23.7245 15.8404 23.8318 15.6813 23.9043 15.5066C23.9768 15.3319 24.0131 15.145 24.0111 14.9567C24.0091 14.7684 23.9689 14.5823 23.8927 14.4091C23.8165 14.2358 23.7059 14.0788 23.5671 13.947C23.4283 13.8152 23.2641 13.7112 23.0839 13.641C22.9036 13.5707 22.7108 13.5355 22.5165 13.5374C22.317 13.5376 22.1196 13.5763 21.9356 13.6513C21.7517 13.7262 21.5851 13.836 21.4454 13.9741C21.3057 14.1122 21.1959 14.2759 21.1222 14.4556C21.0486 14.6353 21.0126 14.8275 21.0164 15.0208C21.0314 15.4007 21.2006 15.7593 21.4873 16.0187C21.774 16.2781 22.1549 16.417 22.5468 16.4053ZM13.4598 4.66174C13.6535 4.65898 13.8447 4.6188 14.0222 4.54357C14.1997 4.46834 14.3599 4.35955 14.4935 4.22359C14.6271 4.08762 14.7314 3.9272 14.8002 3.75171C14.8691 3.57622 14.9012 3.38917 14.8946 3.20152C14.8925 2.82128 14.7359 2.45717 14.4586 2.18816C14.1814 1.91914 13.8059 1.76691 13.4136 1.76447C13.2141 1.76808 13.0173 1.80991 12.8345 1.88754C12.6517 1.96518 12.4866 2.07709 12.3487 2.21684C12.2107 2.35658 12.1026 2.5214 12.0307 2.7018C11.9587 2.8822 11.9243 3.07461 11.9294 3.26796C11.9349 3.45737 11.9792 3.64383 12.0597 3.81652C12.1402 3.9892 12.2552 4.14467 12.3982 4.27391C12.5412 4.40314 12.7092 4.50356 12.8925 4.56935C13.0759 4.63513 13.2709 4.66496 13.4662 4.65711L13.4598 4.66174ZM4.79686 11.83C4.85413 11.7424 4.90168 11.6491 4.93874 11.5518C4.93874 11.5194 4.89091 11.4468 4.86381 11.4468C4.76019 11.4468 4.68367 11.4978 4.69642 11.6121C4.72473 11.6864 4.76051 11.7578 4.80323 11.8253L4.79686 11.83ZM6.01324 4.11783L6.05629 4.19354C6.06904 4.17964 6.09614 4.16419 6.09295 4.15491C6.08371 4.12744 6.07142 4.10101 6.05629 4.07611L6.01324 4.11783Z" fill="#652C77"/>
<path d="M4.80349 11.8256C4.76267 11.7564 4.72903 11.6834 4.70305 11.6077C4.6903 11.4934 4.76682 11.4424 4.87044 11.4424C4.89754 11.4424 4.95015 11.515 4.94537 11.5475C4.90831 11.6448 4.86075 11.738 4.80349 11.8256Z" fill="#622A75"/>
<path d="M34.5434 25.6274C34.6502 25.6738 34.6614 25.7449 34.6072 25.836L34.4478 25.7433L34.5434 25.6274Z" fill="#622A75"/>
<path d="M6.01953 4.1135L6.06258 4.07178C6.07771 4.09668 6.09 4.12311 6.09924 4.15058C6.09924 4.15986 6.07533 4.17531 6.06258 4.18921L6.01953 4.1135Z" fill="#622A75"/>
</svg>
