<svg width="21" height="21" viewBox="0 0 21 21" fill="none" xmlns="http://www.w3.org/2000/svg">
    <path
        d="M1.23894 19.2038C2.94765 20.273 5.92371 20.7364 7.94073 20.8982C11.2441 21.1634 16.9879 20.9395 19.7609 19.2038C19.8684 19.1367 19.9311 19.0167 19.925 18.8902C19.9189 18.7636 19.8449 18.6503 19.7316 18.5937C19.4201 18.4387 18.5192 17.9438 18.0894 17.6981C15.7444 16.331 16.2344 17.6802 13.65 15.2481V13.2132C14.3192 12.579 14.7059 12.0288 14.749 11.0575C15.4755 10.6895 15.9652 9.97758 16.0492 9.16753C16.1192 8.81754 16.261 7.87254 15.9442 7.34438C17.0411 5.04103 16.3674 2.09438 13.8946 1.79304C13.5495 1.31529 12.3865 0 10.0484 0C7.30585 0 4.89996 2.27501 4.89996 4.86499C4.9089 5.62808 5.03375 6.38535 5.27025 7.11092C4.68819 7.52251 4.87194 8.75803 4.95209 9.16716C5.03576 9.97693 5.52495 10.6888 6.25093 11.0572C6.29363 12.0249 6.67618 12.5751 7.34994 13.2135V15.2494C6.85246 15.7361 6.31262 16.1775 5.7368 16.5683C5.44665 16.7404 5.13042 16.8641 4.80053 16.9347C3.78552 17.1143 3.22553 17.5486 1.4311 18.5097C1.28131 18.5895 1.08636 18.6497 1.0748 18.8891C1.06832 19.0161 1.13115 19.1365 1.23894 19.2038ZM17.7394 18.305C18.1002 18.5111 18.4663 18.7124 18.8345 18.9115C17.4456 19.4951 15.98 19.8759 14.4826 20.0424C15.0951 19.3197 15.4997 18.4442 15.653 17.5094C16.2585 17.7149 16.5374 17.605 17.7394 18.305ZM15.3594 9.04961C15.3565 9.06384 15.3545 9.07819 15.3534 9.09267C15.3033 9.54282 15.0818 9.95642 14.735 10.2477C14.6944 9.78645 14.7287 9.32174 14.8365 8.87147C14.8443 8.84194 14.8489 8.81167 14.8501 8.78116C14.8501 8.4623 14.841 8.20366 14.8323 8.01117C14.8442 7.91458 14.9124 7.69896 15.2894 7.69896C15.3024 7.69896 15.3297 7.70212 15.35 7.70282C15.4532 7.84001 15.4787 8.44869 15.3594 9.04891L15.3594 9.04961ZM10.0484 0.700014C12.4246 0.700014 13.3612 2.24561 13.3993 2.31C13.4618 2.41828 13.5774 2.48501 13.7024 2.48501H13.7966C13.8764 2.48989 15.7499 2.625 15.7499 5.17999C15.7462 5.80978 15.6043 6.43105 15.3341 6.99997C15.3115 6.99874 15.2888 6.99874 15.2662 6.99997C15.0935 7.00005 14.9224 7.0343 14.7629 7.10079C14.4521 4.3358 13.4249 3.68513 13.3014 3.61688C13.1375 3.5262 12.9312 3.58066 12.8334 3.74042C11.9112 5.24541 9.69669 5.46242 9.70547 5.46312H7.87847C6.79767 5.46312 6.12846 5.9923 6.08715 6.87606C6.08436 6.9282 6.0826 6.98738 6.08227 7.05108C6.04774 7.04013 6.01271 7.0309 5.97727 7.02343C5.73721 6.32867 5.60981 5.59999 5.59997 4.86499C5.59993 2.68521 7.72023 0.700014 10.0484 0.700014ZM5.64825 9.0937C5.64714 9.07856 5.64517 9.06347 5.6423 9.04854C5.51453 8.41259 5.55128 7.76475 5.65944 7.69264C5.8621 7.72238 6.08925 7.7063 6.11443 7.92295C6.13403 8.09796 6.126 8.26104 6.20753 9.0622C6.27763 9.4525 6.29715 9.85023 6.26565 10.2455C5.91956 9.95515 5.69849 9.5427 5.64825 9.0937ZM6.94606 10.8087C6.99983 10.2233 6.98741 9.63363 6.90894 9.051C6.83048 8.33942 6.78946 7.62419 6.7861 6.9083C6.79484 6.72349 6.82109 6.16001 7.87847 6.16001H9.7359C9.83389 6.15161 11.9934 5.94476 13.1845 4.45376C13.9839 5.46878 14.148 7.4347 14.1505 8.73112C14.0695 9.08443 14.026 9.44528 14.021 9.80774C14.021 10.9102 14.2985 11.6764 13.2429 12.6322C12.027 13.7368 12.0525 14.7 11.095 14.7C9.43489 14.7 9.44994 14.8463 8.78496 13.8688C8.53398 13.4861 8.24683 13.1284 7.92744 12.8006C7.28276 12.1566 6.96181 11.83 6.94606 10.808V10.8087ZM7.34994 16.1969V16.8C7.34994 16.9933 7.50666 17.15 7.69993 17.15C7.8932 17.15 8.04992 16.9933 8.04992 16.8V14.0371C8.56581 14.77 8.89447 15.4 9.90493 15.4C11.8341 15.4 11.8842 15.5544 12.9499 14.0371V16.8C12.9499 16.9933 13.1067 17.15 13.2999 17.15C13.4932 17.15 13.6499 16.9933 13.6499 16.8V16.1969C14.0606 16.5836 14.5113 16.9254 14.9943 17.2168C14.8658 18.0159 14.4269 19.7284 12.9961 20.2013C11.3358 20.3327 9.66782 20.3327 8.00755 20.2013C6.57253 19.7299 6.13399 18.0162 6.00553 17.2165C6.48845 16.9251 6.93909 16.5833 7.34994 16.1969ZM3.26298 18.3029C4.45859 17.6064 4.74455 17.7138 5.34686 17.5088C5.50018 18.4435 5.90476 19.3191 6.51724 20.0417C5.01993 19.8753 3.55427 19.4944 2.16536 18.9109C2.5336 18.7117 2.9004 18.5101 3.26298 18.3029Z"
        fill="white" />
</svg>
