<svg width="37" height="29" viewBox="0 0 37 29" fill="none" xmlns="http://www.w3.org/2000/svg">
<path d="M1.3024 24.6992H35.3237C35.6539 24.6992 35.9704 24.8798 36.2038 25.201C36.4373 25.5223 36.5684 25.9579 36.5684 26.4122C36.5684 26.8665 36.4373 27.3023 36.2038 27.6235C35.9704 27.9448 35.6539 28.1252 35.3237 28.1252H1.3024C0.972313 28.1252 0.655746 27.9448 0.422329 27.6235C0.188908 27.3023 0.0577202 26.8665 0.0577202 26.4122C0.0577202 25.9579 0.188908 25.5223 0.422329 25.201C0.655746 24.8798 0.972313 24.6992 1.3024 24.6992Z" fill="white"/>
<path d="M1.25841 1.60423L1.25839 1.60426C1.09578 1.82802 0.989388 2.15704 0.989388 2.52159C0.989388 2.88614 1.09578 3.21518 1.25841 3.439C1.41929 3.66042 1.59737 3.73459 1.73407 3.73459H35.7553C35.8919 3.73459 36.07 3.66044 36.2309 3.439L36.2309 3.43898C36.3936 3.21515 36.5 2.88611 36.5 2.52159C36.5 2.15706 36.3936 1.82805 36.231 1.60428L36.2309 1.60423C36.07 1.38276 35.8919 1.30859 35.7553 1.30859H1.73407C1.5974 1.30859 1.41932 1.38278 1.25841 1.60423Z" fill="white" stroke="white"/>
<path d="M35.7553 16.0884H1.30258C0.972404 16.0884 0.655842 15.9078 0.422421 15.5866C0.189003 15.2653 0.0578957 14.8296 0.0578957 14.3754C0.0578957 13.9211 0.189003 13.4853 0.422421 13.164C0.655842 12.8428 0.972404 12.6624 1.30258 12.6624H35.7553C36.0854 12.6624 36.402 12.8428 36.6354 13.164C36.8689 13.4853 37 13.9211 37 14.3754C37 14.8296 36.8689 15.2653 36.6354 15.5866C36.402 15.9078 36.0854 16.0884 35.7553 16.0884Z" fill="white"/>
</svg>
