<svg width="36" height="40" viewBox="0 0 36 40" fill="none" xmlns="http://www.w3.org/2000/svg">
<path d="M6.24026 12.2499H27.8403C28.3997 12.2499 28.8103 11.7551 28.8103 11.1999C28.8103 10.6447 28.3997 10.1499 27.8403 10.1499H6.24026C5.68078 10.1499 5.27026 10.6447 5.27026 11.1999C5.27026 11.7549 5.67991 12.2499 6.24026 12.2499Z" fill="white" stroke="white" stroke-width="0.5"/>
<path d="M6.24026 28.2499H27.8403C28.3997 28.2499 28.8103 27.7551 28.8103 27.1999C28.8103 26.6447 28.3997 26.1499 27.8403 26.1499H6.24026C5.68078 26.1499 5.27026 26.6447 5.27026 27.1999C5.27026 27.7549 5.67991 28.2499 6.24026 28.2499Z" fill="white" stroke="white" stroke-width="0.5"/>
<path d="M6.24026 20.2499H20.8403C21.3997 20.2499 21.8103 19.7551 21.8103 19.1999C21.8103 18.6447 21.3997 18.1499 20.8403 18.1499H6.24026C5.68078 18.1499 5.27026 18.6447 5.27026 19.1999C5.27026 19.7549 5.67991 20.2499 6.24026 20.2499Z" fill="white" stroke="white" stroke-width="0.5"/>
</svg>
