<svg width="37" height="17" viewBox="0 0 37 17" fill="none" xmlns="http://www.w3.org/2000/svg">
<path d="M30.8664 10.0229H27.2922V8.91699H30.8664V10.0229ZM34.6785 10.0229H31.1043V8.91699H34.6785V10.0229Z" fill="black"/>
<path d="M0.829361 13.7656H23.5063C23.7264 13.7656 23.9374 13.8912 24.093 14.1146C24.2485 14.3381 24.3359 14.6411 24.3359 14.9571C24.3359 15.2731 24.2485 15.5762 24.093 15.7996C23.9374 16.0231 23.7264 16.1486 23.5063 16.1486H0.829361C0.609339 16.1486 0.398333 16.0231 0.242746 15.7996C0.0871601 15.5762 -0.000284195 15.2731 -0.000284195 14.9571C-0.000284195 14.6411 0.0871601 14.3381 0.242746 14.1146C0.398333 13.8912 0.609339 13.7656 0.829361 13.7656Z" fill="black"/>
<path d="M0.941116 3.63469L0.941097 3.63472C0.8529 3.76136 0.787817 3.96071 0.787817 4.19148C0.787817 4.42223 0.852896 4.62159 0.941116 4.74829C1.02823 4.8734 1.10035 4.88295 1.11746 4.88295H23.7944C23.8114 4.88295 23.8836 4.87342 23.9707 4.74829L23.9707 4.74827C24.0589 4.62157 24.124 4.4222 24.124 4.19148C24.124 3.96074 24.0589 3.76139 23.9707 3.63474L23.9707 3.63469C23.8835 3.50952 23.8114 3.5 23.7944 3.5H1.11746C1.10039 3.5 1.02826 3.50954 0.941116 3.63469Z" fill="black" stroke="black"/>
<path d="M23.7944 10.7658H0.829853C0.609776 10.7658 0.398769 10.6402 0.243185 10.4167C0.0875988 10.1933 0.000209808 9.89027 0.000209808 9.57429C0.000209808 9.25831 0.0875988 8.9552 0.243185 8.73176C0.398769 8.50832 0.609776 8.38281 0.829853 8.38281H23.7944C24.0144 8.38281 24.2254 8.50832 24.381 8.73176C24.5366 8.9552 24.624 9.25831 24.624 9.57429C24.624 9.89027 24.5366 10.1933 24.381 10.4167C24.2254 10.6402 24.0144 10.7658 23.7944 10.7658Z" fill="black"/>
</svg>
