<svg width="30" height="24" viewBox="0 0 30 24" fill="none" xmlns="http://www.w3.org/2000/svg">
    <path
        d="M26.8325 12L29.5881 9.17824C30.1372 8.61586 30.1372 7.70416 29.5881 7.14178C29.0389 6.5794 28.1486 6.5794 27.5994 7.14178L24.8438 9.96352L22.0881 7.14178C21.5389 6.5794 20.6486 6.5794 20.0994 7.14178C19.5503 7.70416 19.5503 8.61586 20.0994 9.17824L22.855 12L20.0994 14.8217C19.5503 15.3841 19.5503 16.2958 20.0994 16.8582C20.374 17.1394 20.7338 17.28 21.0938 17.28C21.4537 17.28 21.8135 17.1394 22.0881 16.8582L24.8438 14.0364L27.5994 16.8582C27.874 17.1394 28.2338 17.28 28.5938 17.28C28.9537 17.28 29.3135 17.1394 29.5881 16.8582C30.1373 16.2958 30.1373 15.3841 29.5881 14.8218L26.8325 12ZM5.80078 6.23998H2.57812C1.15424 6.23998 0 7.42192 0 8.87998V15.12C0 16.578 1.15424 17.76 2.57812 17.76H5.80078C5.87848 17.76 5.953 17.7283 6.00794 17.6721C6.06288 17.6158 6.09375 17.5395 6.09375 17.46V6.53998C6.09375 6.46042 6.06288 6.38411 6.00794 6.32785C5.953 6.27159 5.87848 6.23998 5.80078 6.23998ZM16.4062 0H15C14.6912 -9.84554e-07 14.3911 0.104052 14.1458 0.296099L8.08377 5.04305C8.048 5.07105 8.01902 5.10712 7.99907 5.14845C7.97913 5.18978 7.96875 5.23526 7.96875 5.28137V18.7186C7.96875 18.8121 8.01129 18.9002 8.08377 18.957L14.1458 23.7038C14.3911 23.8959 14.6913 24 15.0001 24H16.4062C17.1829 24 17.8125 23.3553 17.8125 22.56V1.44C17.8125 0.644698 17.1829 0 16.4062 0Z"
        fill="#ffffff" />
</svg>
