<svg width="16" height="20" viewBox="0 0 16 20" fill="none" xmlns="http://www.w3.org/2000/svg">
<path d="M1.26377 0.760107C0.669926 0.875162 0.154027 1.4022 0.0389708 2.0183C-0.0129903 2.28925 -0.0129903 18.1522 0.0389708 18.4231C0.157739 19.0541 0.669926 19.5663 1.29717 19.6851C1.42336 19.7073 2.97477 19.7222 5.49859 19.7222H9.5033V19.2991C9.5033 17.885 9.84476 16.6156 10.5388 15.4428C10.6724 15.2127 10.7652 15.016 10.7652 14.9529C10.7652 14.8638 10.5796 14.6597 9.56268 13.639C8.77213 12.841 8.33418 12.3734 8.2785 12.2658C7.93705 11.5828 8.44181 10.7886 9.21009 10.7997C9.61464 10.8034 9.60722 10.7997 11.4073 12.5924L13.0663 14.2477L13.2965 14.0139L13.5303 13.7838L12.4614 12.7149L11.3962 11.6497V6.85439C11.3962 2.32265 11.3925 2.05171 11.3294 1.84386C11.1586 1.30198 10.7541 0.923412 10.1825 0.774952C10.0006 0.726704 9.3734 0.71928 5.69901 0.722992C3.35334 0.726704 1.35655 0.741549 1.26377 0.760107ZM10.2308 1.45045C10.5759 1.63602 10.7355 1.89954 10.7578 2.32265L10.7726 2.61215H5.70272H0.632811V2.41544C0.632811 1.9515 0.866636 1.57293 1.23779 1.42818C1.42707 1.35395 1.51615 1.35395 5.75468 1.36137L10.0786 1.36879L10.2308 1.45045ZM10.7652 7.12533V11.0076L10.4683 10.7329C10.305 10.5807 10.0786 10.4137 9.97095 10.358C9.42907 10.0834 8.73873 10.1205 8.25995 10.4471C7.69209 10.8368 7.41372 11.5606 7.58816 12.2064C7.70322 12.6369 7.7923 12.7483 8.94286 13.9137L10.0452 15.0271L9.84847 15.3797C9.31772 16.3336 9.00596 17.3802 8.90204 18.5605L8.8575 19.0912H5.15713C1.51986 19.0912 1.44934 19.0912 1.24892 19.017C0.989115 18.9168 0.770137 18.6867 0.692195 18.4194C0.651368 18.2821 0.632811 18.0705 0.632811 17.7105V17.1983H4.58556H8.53831V16.8829V16.5674H4.58556H0.632811V9.90525V3.2431H5.69901H10.7652V7.12533Z" fill="white"/>
<path d="M1.75 3.91124C1.56814 3.95578 1.44195 4.0597 1.34916 4.24528C1.26751 4.40116 1.26379 4.45312 1.26379 5.15459C1.26379 6.01937 1.29349 6.13443 1.56443 6.31258L1.72402 6.4165H2.52199C3.2977 6.4165 3.32739 6.41279 3.47585 6.32743C3.76535 6.16412 3.78762 6.07876 3.78762 5.15088C3.78762 4.39374 3.7839 4.33064 3.70967 4.21187C3.60575 4.04114 3.50183 3.95949 3.31625 3.91495C3.1381 3.8667 1.93929 3.8667 1.75 3.91124ZM3.15666 5.15459V5.80411L2.53684 5.79668L1.91331 5.78555L1.90217 5.19171C1.89846 4.86881 1.90217 4.57931 1.9096 4.55333C1.92444 4.51622 2.07661 4.50508 2.54426 4.50508H3.15666V5.15459Z" fill="white"/>
<path d="M4.90095 3.92237C4.71908 3.98176 4.63001 4.05599 4.53351 4.20816C4.45928 4.33064 4.45557 4.38631 4.45557 5.15088C4.45557 6.07876 4.47784 6.16412 4.76733 6.32743C4.91579 6.41279 4.94548 6.4165 5.72119 6.4165H6.51916L6.67504 6.31629C6.93856 6.13814 6.96083 6.07133 6.97196 5.24367C6.98681 4.47539 6.96083 4.28981 6.82722 4.11908C6.66391 3.91495 6.57855 3.89268 5.77315 3.88526C5.26467 3.87784 4.99002 3.89268 4.90095 3.92237ZM6.32987 5.15459V5.78555L5.71005 5.79668L5.08652 5.80411V5.15459V4.50508L5.71005 4.5125L6.32987 4.52364V5.15459Z" fill="white"/>
<path d="M8.04465 3.92975C7.86649 3.99284 7.72917 4.11532 7.66236 4.27121C7.58813 4.44194 7.58813 5.86715 7.66236 6.03788C7.72175 6.17892 7.90732 6.34965 8.04836 6.39047C8.17826 6.42388 9.56636 6.42388 9.69626 6.39047C9.8373 6.34965 10.0229 6.17892 10.0823 6.03788C10.1565 5.86715 10.1565 4.44194 10.0823 4.27121C10.0192 4.11532 9.8373 3.96315 9.65915 3.91119C9.45131 3.85552 8.21538 3.86665 8.04465 3.92975ZM9.50327 5.15454V5.80406H8.87231H8.24136V5.15454V4.50503H8.87231H9.50327V5.15454Z" fill="white"/>
<path d="M1.57925 7.15524C1.30088 7.32226 1.28233 7.38906 1.27119 8.26127C1.25634 9.14089 1.28604 9.26708 1.54584 9.46379L1.68317 9.57143L2.46258 9.58256C3.35705 9.59741 3.49067 9.57143 3.66882 9.3376L3.76903 9.2077L3.78017 8.35034C3.7913 7.50412 3.7913 7.48927 3.70594 7.36679C3.51665 7.08843 3.50551 7.08472 2.57022 7.07359C1.73513 7.06616 1.72771 7.06616 1.57925 7.15524ZM3.15663 8.32807V8.95903H2.52568H1.89472V8.32807V7.69712H2.52568H3.15663V8.32807Z" fill="white"/>
<path d="M4.80826 7.11812C4.67465 7.1738 4.50392 7.36679 4.47051 7.48927C4.45938 7.53381 4.45567 7.93837 4.46309 8.38746L4.47422 9.2077L4.57444 9.3376C4.75259 9.57143 4.8862 9.59741 5.78067 9.58256L6.56009 9.57143L6.69741 9.46379C6.95722 9.26708 6.98691 9.14089 6.97207 8.25755C6.96093 7.50783 6.95722 7.48556 6.86814 7.35195C6.68628 7.08472 6.60834 7.06616 5.71387 7.06616C5.13858 7.06987 4.88991 7.08101 4.80826 7.11812ZM6.34853 8.32807V8.95903H5.71758H5.08662V8.32807V7.69712H5.71758H6.34853V8.32807Z" fill="white"/>
<path d="M8.01862 7.092C7.885 7.14396 7.75139 7.26644 7.68458 7.40006C7.61777 7.52996 7.61035 7.62275 7.61035 8.30938C7.61035 9.14075 7.62891 9.23354 7.8182 9.41169C7.99264 9.575 8.08914 9.58984 8.87226 9.58984C9.65539 9.58984 9.75189 9.575 9.92633 9.41169C10.1156 9.23354 10.1342 9.14075 10.1342 8.30938C10.1342 7.45202 10.1082 7.34439 9.86694 7.16994C9.74818 7.08829 9.71848 7.08458 8.90938 7.07716C8.44915 7.07345 8.04831 7.08087 8.01862 7.092ZM9.50322 8.32793V8.95889H8.87226H8.24131V8.32793V7.69698H8.87226H9.50322V8.32793Z" fill="white"/>
<path d="M1.65357 10.2726C1.50511 10.3357 1.34922 10.5212 1.29726 10.6957C1.27128 10.781 1.26386 11.1039 1.27128 11.579C1.28242 12.3028 1.28613 12.3287 1.3752 12.4586C1.42345 12.5329 1.53109 12.6257 1.60532 12.6702C1.73893 12.7444 1.78718 12.7481 2.57773 12.737C3.50561 12.7259 3.51674 12.7222 3.70603 12.4438C3.79139 12.3213 3.79139 12.3065 3.78026 11.4565C3.76912 10.4804 3.7617 10.4619 3.45365 10.3023C3.29776 10.2243 3.2458 10.2206 2.52577 10.2206C1.97647 10.2243 1.73151 10.2354 1.65357 10.2726ZM3.15673 11.4825V12.1135H2.52577H1.89482V11.4825V10.8516H2.52577H3.15673V11.4825Z" fill="white"/>
<path d="M4.78974 10.3023C4.48169 10.4619 4.47427 10.4804 4.46313 11.4565C4.452 12.3065 4.452 12.3213 4.53736 12.4438C4.72665 12.7222 4.73778 12.7259 5.66566 12.737C6.45621 12.7481 6.50446 12.7444 6.63807 12.6702C6.7123 12.6257 6.81994 12.5329 6.86819 12.4586C6.95726 12.3287 6.96097 12.3028 6.97211 11.579C6.98695 10.7699 6.96468 10.6326 6.80509 10.4396C6.63436 10.2392 6.54157 10.2206 5.70649 10.2206C4.99759 10.2206 4.94563 10.2243 4.78974 10.3023ZM6.34858 11.4825V12.1135H5.71762H5.08666V11.4825V10.8516H5.71762H6.34858V11.4825Z" fill="white"/>
<path d="M1.75 13.4127C1.56814 13.4572 1.44195 13.5612 1.34916 13.7467C1.26751 13.9026 1.26379 13.9546 1.26379 14.6561C1.26379 15.5208 1.29349 15.6359 1.56443 15.814L1.72402 15.918H2.52199C3.2977 15.918 3.32739 15.9143 3.47585 15.8289C3.76535 15.6656 3.78762 15.5802 3.78762 14.6523C3.78762 13.8952 3.7839 13.8321 3.70967 13.7133C3.60575 13.5426 3.50183 13.461 3.31625 13.4164C3.1381 13.3682 1.93929 13.3682 1.75 13.4127ZM3.15666 14.6561V15.3056L2.53684 15.2981L1.91331 15.287L1.90217 14.6932C1.89846 14.3703 1.90217 14.0808 1.9096 14.0548C1.92444 14.0177 2.07661 14.0065 2.54426 14.0065H3.15666V14.6561Z" fill="white"/>
<path d="M4.90095 13.4238C4.71908 13.4832 4.63001 13.5575 4.53351 13.7096C4.45928 13.8321 4.45557 13.8878 4.45557 14.6523C4.45557 15.5802 4.47784 15.6656 4.76733 15.8289C4.91579 15.9143 4.94548 15.918 5.72119 15.918H6.51916L6.67504 15.8178C6.93856 15.6396 6.96083 15.5728 6.97196 14.7451C6.98681 13.9769 6.96083 13.7913 6.82722 13.6205C6.66391 13.4164 6.57855 13.3941 5.77315 13.3867C5.26467 13.3793 4.99002 13.3941 4.90095 13.4238ZM6.32987 14.6561V15.287L5.71005 15.2981L5.08652 15.3056V14.6561V14.0065L5.71005 14.014L6.32987 14.0251V14.6561Z" fill="white"/>
<path d="M5.38342 18.145V18.4604H5.6989H6.01438V18.145V17.8295H5.6989H5.38342V18.145Z" fill="white"/>
<path d="M12.1199 8.32786C12.0011 8.45034 11.9084 8.55426 11.9195 8.56168C12.1756 8.78066 13.8792 10.3543 14.0016 10.4917C14.1946 10.7032 14.4062 11.0892 14.5027 11.4084C14.5621 11.594 14.5658 12.006 14.5769 15.6655L14.5918 19.7222H14.9072H15.2227L15.2116 15.6284C15.1967 11.8018 15.193 11.5235 15.1299 11.2971C15.0334 10.9593 14.8145 10.5028 14.6215 10.2467C14.499 10.0797 12.4057 8.10517 12.3537 8.10517C12.3463 8.10517 12.2424 8.20538 12.1199 8.32786Z" fill="white"/>
</svg>
