<svg width="53" height="52" viewBox="0 0 53 52" fill="none" xmlns="http://www.w3.org/2000/svg">
<g filter="url(#filter0_d_9899_57)">
<rect x="7" y="4" width="35" height="34" rx="8" fill="#008ABD"/>
</g>
<path d="M31.5402 18L21.8802 12.46C21.3575 12.1582 20.7642 12.0001 20.1606 12.0017C19.557 12.0034 18.9646 12.1648 18.4435 12.4695C17.9225 12.7742 17.4914 13.2114 17.194 13.7366C16.8966 14.2619 16.7435 14.8565 16.7502 15.46V26.58C16.7502 27.4871 17.1105 28.357 17.7519 28.9983C18.3933 29.6397 19.2632 30 20.1702 30C20.7707 29.999 21.3603 29.8404 21.8802 29.54L31.5402 24C32.0593 23.6996 32.4902 23.268 32.7898 22.7485C33.0894 22.2289 33.2471 21.6397 33.2471 21.04C33.2471 20.4403 33.0894 19.8511 32.7898 19.3316C32.4902 18.8121 32.0593 18.3804 31.5402 18.08V18ZM30.5402 22.19L20.8802 27.81C20.6637 27.9327 20.4191 27.9972 20.1702 27.9972C19.9213 27.9972 19.6767 27.9327 19.4602 27.81C19.2443 27.6854 19.065 27.5061 18.9404 27.2902C18.8158 27.0743 18.7502 26.8293 18.7502 26.58V15.42C18.7502 15.1707 18.8158 14.9258 18.9404 14.7099C19.065 14.494 19.2443 14.3147 19.4602 14.19C19.6776 14.0692 19.9215 14.0039 20.1702 14C20.4187 14.0051 20.6624 14.0703 20.8802 14.19L30.5402 19.77C30.7562 19.8946 30.9356 20.0739 31.0603 20.2898C31.185 20.5057 31.2506 20.7507 31.2506 21C31.2506 21.2494 31.185 21.4943 31.0603 21.7102C30.9356 21.9262 30.7562 22.1054 30.5402 22.23V22.19Z" fill="white"/>
<defs>
<filter id="filter0_d_9899_57" x="0" y="0" width="53" height="52" filterUnits="userSpaceOnUse" color-interpolation-filters="sRGB">
<feFlood flood-opacity="0" result="BackgroundImageFix"/>
<feColorMatrix in="SourceAlpha" type="matrix" values="0 0 0 0 0 0 0 0 0 0 0 0 0 0 0 0 0 0 127 0" result="hardAlpha"/>
<feOffset dx="2" dy="5"/>
<feGaussianBlur stdDeviation="4.5"/>
<feComposite in2="hardAlpha" operator="out"/>
<feColorMatrix type="matrix" values="0 0 0 0 0.54375 0 0 0 0 0.803869 0 0 0 0 0.9 0 0 0 0.86 0"/>
<feBlend mode="normal" in2="BackgroundImageFix" result="effect1_dropShadow_9899_57"/>
<feBlend mode="normal" in="SourceGraphic" in2="effect1_dropShadow_9899_57" result="shape"/>
</filter>
</defs>
</svg>
