<svg width="25" height="29" viewBox="0 0 25 29" fill="none" xmlns="http://www.w3.org/2000/svg">
<path d="M15.4735 21.0543H12.5374C12.0117 21.0543 11.5758 20.6184 11.5758 20.0927C11.5758 19.567 12.0117 19.131 12.5374 19.131H15.4735C16.0248 19.131 16.4737 18.6823 16.4737 18.1309C16.4737 17.5796 16.0248 17.1308 15.4735 17.1308H12.5374C12.2297 17.1308 11.9348 16.977 11.7553 16.7333C11.5758 16.4897 11.5244 16.1564 11.627 15.8615L12.6014 12.9253C12.7296 12.5278 13.1016 12.2714 13.5119 12.2714H17.4354C17.961 12.2714 18.397 12.7073 18.397 13.233C18.397 13.7587 17.961 14.1946 17.4354 14.1946H14.2041L13.8708 15.2076H15.4735C17.089 15.2076 18.397 16.5154 18.397 18.1309C18.397 19.7465 17.0762 21.0543 15.4735 21.0543Z" fill="#008ABD"/>
<path d="M9.20383 21.0537C8.67813 21.0537 8.24219 20.6178 8.24219 20.0921V15.7456L7.99858 16.0276C7.63957 16.425 7.03694 16.4507 6.63947 16.1045C6.24199 15.7455 6.21635 15.1429 6.56254 14.7454L8.48581 12.6041C8.75506 12.3092 9.17821 12.2067 9.55004 12.3477C9.92191 12.4887 10.1654 12.8478 10.1654 13.2452V20.1049C10.1654 20.6306 9.74234 21.0537 9.20383 21.0537Z" fill="#008ABD"/>
<path d="M9.82091 6.05206C10.103 6.05206 10.3849 5.92388 10.5644 5.69309L13.1033 2.52607C13.4367 2.11577 13.3726 1.50034 12.9494 1.17979C12.5391 0.846427 11.9364 0.910523 11.603 1.33364L9.0643 4.50068C8.73093 4.91097 8.79504 5.52639 9.21816 5.84694C9.39767 5.97516 9.61576 6.05206 9.82091 6.05206Z" fill="#008ABD"/>
<path d="M12.36 28.5287C19.1684 28.5287 24.7202 22.9896 24.7202 16.1684C24.7202 9.34726 19.1812 3.80823 12.36 3.80823C11.4753 3.80823 10.5777 3.91081 9.60329 4.14161C9.09042 4.257 8.75705 4.78272 8.88527 5.29559C9.00067 5.80847 9.52636 6.14183 10.0392 6.01362C10.8598 5.82129 11.6291 5.7315 12.36 5.7315C18.117 5.7315 22.7969 10.4115 22.7969 16.1684C22.7969 21.9254 18.117 26.6055 12.36 26.6055C6.60299 26.6055 1.92303 21.9254 1.92303 16.1684C1.92303 13.9374 2.65388 11.7834 4.03863 9.93708C4.35917 9.51396 4.26942 8.91135 3.8463 8.59081C3.42319 8.27026 2.82056 8.35997 2.50002 8.78308C0.858826 10.9628 -0.000234604 13.5143 -0.000234604 16.1684C-0.000234604 22.9896 5.5516 28.5287 12.36 28.5287Z" fill="#008ABD"/>
</svg>
