<svg width="57" height="57" viewBox="0 0 57 57" fill="none" xmlns="http://www.w3.org/2000/svg">
<g filter="url(#filter0_d_3032_1511)">
<path d="M26.98 10.8175C23.5623 11.1493 20.4075 12.4077 17.6402 14.5372C16.2911 15.5743 14.5408 17.5241 13.5307 19.1143C13.0948 19.7988 12.2439 21.5411 11.9395 22.3708C11.6005 23.2973 11.2338 24.7215 11.0539 25.8209C10.8394 27.1691 10.8394 29.7273 11.0539 31.0755C11.3652 32.9838 11.8564 34.5187 12.6936 36.2265C13.6068 38.0863 14.5546 39.4069 16.0766 40.9349C17.6056 42.456 18.927 43.4032 20.788 44.3159C22.4969 45.1525 24.0327 45.6434 25.9422 45.9545C27.2913 46.1688 29.8511 46.1688 31.2001 45.9545C33.1096 45.6434 34.6455 45.1525 36.3543 44.3159C38.2154 43.4032 39.5368 42.456 41.0657 40.9349C42.5878 39.4069 43.5356 38.0863 44.4488 36.2265C45.0576 34.9889 45.362 34.1799 45.6941 32.9354C46.1299 31.276 46.2337 30.3703 46.2337 28.4482C46.2337 26.5261 46.1299 25.6204 45.6941 23.961C45.362 22.7165 45.0576 21.9075 44.4488 20.6699C43.5356 18.8101 42.5878 17.4895 41.0657 15.9615C39.5368 14.4404 38.2154 13.4932 36.3543 12.5805C34.6524 11.7439 33.075 11.2461 31.2347 10.9557C30.2177 10.7967 27.9485 10.7207 26.98 10.8175ZM25.4925 21.3337C27.4158 22.5091 35.7732 27.9573 35.8424 28.0818C35.9531 28.2823 35.9859 27.6351 35.8753 27.8356C35.7853 28.0015 26.0564 31.8588 25.5168 32.1008C25.157 32.2668 26.3198 33.6444 26.1261 33.3195C26.0016 33.1121 25.4925 34.4177 25.4925 27.8356C25.4925 20.327 25.6695 24.3871 26.1261 24.1797C26.4028 24.0621 25.0497 21.0709 25.4925 21.3337Z" fill="white" fill-opacity="0.9" shape-rendering="crispEdges"/>
</g>
<defs>
<filter id="filter0_d_3032_1511" x="0.893066" y="0.774414" width="55.3408" height="55.3408" filterUnits="userSpaceOnUse" color-interpolation-filters="sRGB">
<feFlood flood-opacity="0" result="BackgroundImageFix"/>
<feColorMatrix in="SourceAlpha" type="matrix" values="0 0 0 0 0 0 0 0 0 0 0 0 0 0 0 0 0 0 127 0" result="hardAlpha"/>
<feOffset/>
<feGaussianBlur stdDeviation="5"/>
<feComposite in2="hardAlpha" operator="out"/>
<feColorMatrix type="matrix" values="0 0 0 0 0 0 0 0 0 0 0 0 0 0 0 0 0 0 0.23 0"/>
<feBlend mode="normal" in2="BackgroundImageFix" result="effect1_dropShadow_3032_1511"/>
<feBlend mode="normal" in="SourceGraphic" in2="effect1_dropShadow_3032_1511" result="shape"/>
</filter>
</defs>
</svg>
