<svg width="24" height="27" viewBox="0 0 24 27" fill="none" xmlns="http://www.w3.org/2000/svg">
<path d="M14.882 19.8123H12.0586C11.5531 19.8123 11.1339 19.3931 11.1339 18.8875C11.1339 18.382 11.5531 17.9628 12.0586 17.9628H14.882C15.4122 17.9628 15.8439 17.5313 15.8439 17.0011C15.8439 16.4709 15.4122 16.0393 14.882 16.0393H12.0586C11.7627 16.0393 11.4791 15.8914 11.3065 15.6571C11.1339 15.4229 11.0844 15.1023 11.1831 14.8187L12.1201 11.9952C12.2434 11.6129 12.6011 11.3663 12.9957 11.3663H16.7686C17.2741 11.3663 17.6933 11.7855 17.6933 12.2911C17.6933 12.7966 17.2741 13.2158 16.7686 13.2158H13.6614L13.3408 14.1899H14.882C16.4356 14.1899 17.6933 15.4475 17.6933 17.0011C17.6933 18.5546 16.4232 19.8123 14.882 19.8123Z" fill="#008ABD"/>
<path d="M8.85298 19.8117C8.34745 19.8117 7.92824 19.3925 7.92824 18.887V14.7073L7.69397 14.9784C7.34873 15.3606 6.76923 15.3853 6.38701 15.0524C6.00478 14.7071 5.98012 14.1276 6.31303 13.7454L8.1625 11.6863C8.42143 11.4027 8.82834 11.3041 9.18591 11.4397C9.54351 11.5754 9.77765 11.9206 9.77765 12.3028V18.8993C9.77765 19.4048 9.37083 19.8117 8.85298 19.8117Z" fill="#008ABD"/>
<path d="M14.3277 5.38565C14.0564 5.38565 13.7853 5.26239 13.6127 5.04045L11.1713 1.99494C10.8507 1.60039 10.9123 1.00857 11.3192 0.700322C11.7138 0.379746 12.2934 0.441382 12.614 0.848267L15.0553 3.89379C15.3759 4.28835 15.3142 4.88015 14.9073 5.1884C14.7347 5.3117 14.525 5.38565 14.3277 5.38565Z" fill="#008ABD"/>
<path d="M11.886 26.9999C5.33884 26.9999 0 21.6733 0 15.1138C0 8.55441 5.32651 3.22791 11.886 3.22791C12.7368 3.22791 13.5998 3.32656 14.5369 3.54849C15.0301 3.65946 15.3507 4.16501 15.2274 4.6582C15.1164 5.1514 14.6109 5.47198 14.1177 5.34868C13.3286 5.16373 12.5888 5.07738 11.886 5.07738C6.34989 5.07738 1.84948 9.57779 1.84948 15.1138C1.84948 20.6499 6.34989 25.1505 11.886 25.1505C17.4221 25.1505 21.9225 20.6499 21.9225 15.1138C21.9225 12.9685 21.2197 10.8971 19.8881 9.12161C19.5798 8.71473 19.6661 8.13523 20.073 7.82699C20.4799 7.51874 21.0594 7.605 21.3677 8.01189C22.9459 10.108 23.772 12.5616 23.772 15.1138C23.772 21.6733 18.4332 26.9999 11.886 26.9999Z" fill="#008ABD"/>
</svg>
