<svg width="44" height="29" viewBox="0 0 44 29" fill="none" xmlns="http://www.w3.org/2000/svg">
<g filter="url(#filter0_d_2946_1315)">
<path d="M39.0015 9.27979V10.5542H31.6919V9.27979H39.0015ZM36.0278 6.16699V13.9307H34.6729V6.16699H36.0278Z" fill="black"/>
<path d="M4.8552 17.6191H28.2251C28.4519 17.6191 28.6693 17.7486 28.8297 17.9788C28.99 18.2091 29.0801 18.5214 29.0801 18.847C29.0801 19.1727 28.99 19.485 28.8297 19.7153C28.6693 19.9456 28.4519 20.0749 28.2251 20.0749H4.8552C4.62846 20.0749 4.411 19.9456 4.25066 19.7153C4.09032 19.485 4.0002 19.1727 4.0002 18.847C4.0002 18.5214 4.09032 18.2091 4.25066 17.9788C4.411 17.7486 4.62846 17.6191 4.8552 17.6191Z" fill="black"/>
<path d="M4.95684 1.35287L4.95682 1.3529C4.86387 1.48638 4.79612 1.69498 4.79612 1.9354C4.79612 2.17582 4.86387 2.38444 4.95684 2.51796L4.54652 2.80368L4.95684 2.51797C5.04871 2.6499 5.12728 2.66329 5.15111 2.66329H28.521C28.5448 2.66329 28.6233 2.64992 28.7152 2.51797L28.7152 2.51794C28.8082 2.38441 28.876 2.17579 28.876 1.9354C28.876 1.69501 28.8082 1.4864 28.7152 1.35292L28.7152 1.35287C28.6233 1.22088 28.5447 1.20752 28.521 1.20752H5.15111C5.12732 1.20752 5.04874 1.2209 4.95684 1.35287Z" fill="black" stroke="black"/>
<path d="M28.521 11.6189H4.85472C4.62791 11.6189 4.41046 11.4894 4.25012 11.2592C4.08978 11.0289 3.99972 10.7166 3.99972 10.391C3.99972 10.0653 4.08978 9.75296 4.25012 9.52269C4.41046 9.29242 4.62791 9.16309 4.85472 9.16309H28.521C28.7477 9.16309 28.9652 9.29242 29.1255 9.52269C29.2859 9.75296 29.376 10.0653 29.376 10.391C29.376 10.7166 29.2859 11.0289 29.1255 11.2592C28.9652 11.4894 28.7477 11.6189 28.521 11.6189Z" fill="black"/>
</g>
<defs>
<filter id="filter0_d_2946_1315" x="0" y="0.70752" width="43.002" height="27.3672" filterUnits="userSpaceOnUse" color-interpolation-filters="sRGB">
<feFlood flood-opacity="0" result="BackgroundImageFix"/>
<feColorMatrix in="SourceAlpha" type="matrix" values="0 0 0 0 0 0 0 0 0 0 0 0 0 0 0 0 0 0 127 0" result="hardAlpha"/>
<feOffset dy="4"/>
<feGaussianBlur stdDeviation="2"/>
<feComposite in2="hardAlpha" operator="out"/>
<feColorMatrix type="matrix" values="0 0 0 0 0 0 0 0 0 0 0 0 0 0 0 0 0 0 0.25 0"/>
<feBlend mode="normal" in2="BackgroundImageFix" result="effect1_dropShadow_2946_1315"/>
<feBlend mode="normal" in="SourceGraphic" in2="effect1_dropShadow_2946_1315" result="shape"/>
</filter>
</defs>
</svg>
