<svg width="18" height="18" viewBox="0 0 18 18" fill="none" xmlns="http://www.w3.org/2000/svg">
<g clip-path="url(#clip0_2214_717)">
<path d="M7.61127 0.780663C6.97494 0.850975 6.45815 1.26582 6.21908 1.89863C6.16987 2.02519 6.01869 3.13262 5.69526 5.6709C5.44565 7.64668 5.23119 9.31308 5.22065 9.37285C5.20307 9.47129 4.97104 9.68926 4.47182 10.0654C4.44018 10.09 4.37338 10.0478 4.23979 9.92129C3.99018 9.68574 3.81791 9.62949 3.60346 9.72441C3.42065 9.80176 0.165177 12.3049 0.0843181 12.4279C0.00697435 12.5439 -0.0141194 12.7338 0.0315837 12.8744C0.0597087 12.9553 0.689006 13.6584 2.0144 15.0822C3.75463 16.9561 3.96908 17.174 4.10268 17.2127C4.39096 17.2971 4.43315 17.2689 5.37182 16.3373C6.95385 14.7658 7.70268 13.9713 7.73432 13.8342C7.77651 13.6514 7.72026 13.4721 7.57963 13.3279C7.50932 13.2576 7.45307 13.1838 7.45307 13.1627C7.45307 13.1451 7.80112 12.783 8.22651 12.3576L8.99994 11.5842L9.77338 12.3576C10.1988 12.783 10.5468 13.1451 10.5468 13.1627C10.5468 13.1838 10.4906 13.2576 10.4203 13.3279C10.2796 13.4721 10.2234 13.6514 10.2656 13.8342C10.2972 13.9713 11.046 14.7658 12.6281 16.3373C13.5667 17.2689 13.6089 17.2971 13.8972 17.2127C14.0308 17.174 14.2453 16.9561 15.989 15.0822C17.448 13.5107 17.9402 12.9588 17.9718 12.8603C18.0246 12.6811 17.9789 12.4947 17.8488 12.3576C17.7855 12.2943 17.1738 11.8092 16.4882 11.2818C15.8027 10.7545 15.082 10.199 14.8886 10.0478C14.305 9.59433 14.1257 9.57324 13.7601 9.92129C13.6265 10.0478 13.5597 10.09 13.5281 10.0654C13.0289 9.68926 12.7968 9.47129 12.7792 9.37285C12.7687 9.31308 12.5542 7.64668 12.3046 5.66738C11.9847 3.14668 11.8265 2.02168 11.7808 1.89863C11.5101 1.18847 10.916 0.770115 10.1777 0.770115C9.75932 0.770115 9.38666 0.900192 9.12299 1.12871L8.99994 1.23769L8.8769 1.12871C8.56752 0.858006 8.08588 0.724411 7.61127 0.780663ZM8.13862 1.88808C8.2476 1.94785 8.3601 2.08144 8.41987 2.22207C8.46557 2.33808 8.4726 2.82676 8.4726 6.42324C8.4726 10.3291 8.46908 10.5014 8.4058 10.635C8.36362 10.7228 8.03666 11.0779 7.51635 11.5947L6.69721 12.4103L5.9308 11.6439L5.16088 10.874L5.62846 10.4908C5.8851 10.2799 6.12416 10.0584 6.1558 10.0021C6.20151 9.92129 6.3351 8.96855 6.69721 6.13496C6.96088 4.05019 7.19643 2.30644 7.22807 2.22558C7.33354 1.93379 7.62533 1.77207 7.94526 1.82832C8.01205 1.84238 8.09994 1.86699 8.13862 1.88808ZM10.4976 1.8916C10.6066 1.95136 10.7472 2.12363 10.7894 2.25722C10.807 2.32051 11.039 4.06426 11.3027 6.13496C11.6648 8.9791 11.7984 9.92129 11.8441 10.0021C11.8757 10.0584 12.1148 10.2799 12.3714 10.4908L12.839 10.874L12.0691 11.6439L11.3027 12.4103L10.4835 11.5947C9.96323 11.0779 9.63627 10.7228 9.59408 10.635C9.5308 10.5014 9.52729 10.3291 9.52729 6.41621C9.52729 2.53496 9.5308 2.33105 9.59408 2.19746C9.72065 1.91269 9.99135 1.77558 10.3007 1.82832C10.3675 1.84238 10.4589 1.87051 10.4976 1.8916ZM5.10463 12.3049C5.84643 13.0572 6.45112 13.69 6.45112 13.7041C6.45112 13.7217 5.95893 14.235 5.35776 14.8467L4.26791 15.9611L2.79135 14.3721C1.98276 13.5002 1.32182 12.7795 1.32533 12.7725C1.3394 12.7408 3.7019 10.9338 3.72651 10.9338C3.74408 10.9338 4.36283 11.549 5.10463 12.3049ZM15.4863 11.8443C16.1367 12.3471 16.664 12.7689 16.6605 12.7865C16.657 12.8006 15.9996 13.5213 15.1945 14.3861L13.732 15.9611L12.6421 14.8467C12.041 14.235 11.5488 13.7217 11.5488 13.7041C11.5488 13.6654 14.2347 10.9338 14.2769 10.9338C14.2945 10.9338 14.8394 11.3451 15.4863 11.8443Z" fill="white"/>
</g>
<defs>
<clipPath id="clip0_2214_717">
<rect width="18" height="18" fill="white"/>
</clipPath>
</defs>
</svg>
