<svg width="26" height="26" viewBox="0 0 26 26" fill="none" xmlns="http://www.w3.org/2000/svg">
    <circle cx="13" cy="13" r="12.5" fill="white" stroke="#006E97" />
    <path
        d="M12.8544 19.4718C11.2045 19.4718 9.5548 19.4724 7.90489 19.4715C6.81415 19.471 6.00099 18.6571 6.00059 17.5658C6.00019 14.2983 5.99959 11.0308 6.00039 7.76329C6.00059 6.79041 6.75515 5.97794 7.7221 5.91405C7.96768 5.89783 8.21507 5.90524 8.46166 5.90464C8.98163 5.90344 9.5016 5.90544 10.0216 5.90284C10.0952 5.90244 10.1196 5.92286 10.1182 5.99876C10.1136 6.23568 10.1132 6.47279 10.1184 6.7095C10.1202 6.79001 10.0938 6.81064 10.0164 6.81044C9.34321 6.80803 8.66985 6.80923 7.99668 6.80903C7.85669 6.80903 7.7165 6.80523 7.58031 6.84769C7.18173 6.97185 6.91874 7.31911 6.91774 7.73886C6.91534 8.8269 6.91714 9.91493 6.91714 11.003C6.91714 12.7419 6.91694 14.4806 6.91694 16.2195C6.91694 16.6801 6.91734 17.1407 6.91754 17.6013C6.91774 18.1618 7.31092 18.5622 7.87169 18.5656C8.46486 18.569 9.05822 18.567 9.65139 18.5672C12.371 18.5672 15.0909 18.567 17.8105 18.5676C18.1959 18.5676 18.4945 18.4156 18.6861 18.0745C18.7643 17.9353 18.7983 17.7829 18.7983 17.6229C18.7981 16.0276 18.7989 14.4321 18.7959 12.8368C18.7957 12.7433 18.8189 12.7116 18.9145 12.705C19.1553 12.6884 19.3878 12.6269 19.6094 12.5308C19.6958 12.4933 19.7148 12.512 19.7146 12.6023C19.7124 13.5367 19.7132 14.4713 19.7134 15.4058C19.7134 16.1233 19.7134 16.8409 19.714 17.5584C19.7144 18.015 19.5858 18.4286 19.2941 18.7824C18.9193 19.237 18.4311 19.4687 17.8443 19.4707C16.4244 19.4756 15.0047 19.472 13.5848 19.4718C13.341 19.4718 13.0978 19.4718 12.8544 19.4718Z"
        fill="black" />
    <path
        d="M11.8557 16.4138C11.7001 16.4142 11.6123 16.3009 11.6513 16.1611C11.6881 16.0295 11.7353 15.901 11.7779 15.771C12.0313 14.9978 12.2873 14.2252 12.5363 13.4505C12.5993 13.2547 12.6998 13.0941 12.8494 12.9503C14.5571 11.3101 16.2606 9.66573 17.9653 8.02256C18.0373 7.95307 18.1125 7.88658 18.1803 7.81328C18.2263 7.76362 18.2557 7.77062 18.3009 7.81508C18.6487 8.15573 18.9989 8.49418 19.3482 8.83323C19.7264 9.20011 20.1036 9.568 20.4842 9.93248C20.5422 9.98816 20.5488 10.0194 20.4864 10.0797C18.9947 11.5258 17.505 12.9741 16.015 14.422C15.6995 14.7288 15.3829 15.0348 15.0689 15.3432C14.9859 15.4247 14.8931 15.4818 14.7815 15.5161C13.836 15.807 12.891 16.1002 11.9459 16.3924C11.9111 16.4034 11.8749 16.4094 11.8557 16.4138ZM18.2119 8.78977C18.2127 8.72949 18.1791 8.66501 18.1273 8.62736C18.0303 8.55686 17.9243 8.57489 17.8157 8.68043C16.635 9.82834 15.4545 10.9763 14.2738 12.1244C14.0396 12.3521 13.8048 12.5794 13.5712 12.8077C13.4636 12.913 13.4516 13.0252 13.5348 13.1155C13.6232 13.2112 13.7484 13.2062 13.8608 13.1019C13.8754 13.0883 13.89 13.0744 13.9042 13.0606C14.7885 12.2009 15.6731 11.3413 16.5574 10.4814C17.076 9.97714 17.5944 9.47247 18.1133 8.96861C18.1649 8.91854 18.2103 8.86667 18.2119 8.78977ZM12.8854 13.8204C12.7584 14.2079 12.6375 14.578 12.5153 14.9475C12.5017 14.9886 12.5243 15.0086 12.5489 15.0324C12.719 15.1968 12.8898 15.3605 13.0576 15.5273C13.0994 15.5687 13.137 15.5739 13.1912 15.5557C13.3396 15.506 13.49 15.4626 13.6394 15.4161C13.858 15.3482 14.0766 15.2797 14.3124 15.2061C13.8324 14.74 13.3652 14.2862 12.8854 13.8204Z"
        fill="black" />
    <path
        d="M22 8.32873C21.9954 8.51558 21.9206 8.67599 21.7878 8.80756C21.527 9.0653 21.2616 9.31823 21.0012 9.57637C20.9544 9.62263 20.9301 9.61161 20.8897 9.57216C20.1569 8.85803 19.4234 8.14469 18.6882 7.43316C18.6366 7.38329 18.6392 7.35625 18.6894 7.30819C18.9474 7.06187 19.2014 6.81154 19.4576 6.56361C19.589 6.43645 19.7437 6.35854 19.9291 6.34953C20.0857 6.34192 20.2267 6.38198 20.3413 6.49332C20.8457 6.98336 21.3498 7.47361 21.8534 7.96445C21.9538 8.06258 21.9972 8.18614 22 8.32873Z"
        fill="black" />
    <path
        d="M11.48 10.4255C12.3566 10.4255 13.2329 10.4271 14.1095 10.4233C14.2061 10.4229 14.2343 10.4494 14.2313 10.5457C14.2245 10.7724 14.2257 10.9995 14.2309 11.2264C14.2329 11.3105 14.2057 11.3328 14.1235 11.3326C12.7506 11.3302 11.3774 11.3308 10.0045 11.3306C9.61454 11.3306 9.22476 11.3284 8.83479 11.332C8.75879 11.3326 8.73839 11.3089 8.73979 11.2352C8.74399 10.9983 8.74459 10.7614 8.73959 10.5245C8.73779 10.4444 8.76259 10.4243 8.84099 10.4245C9.72073 10.4273 10.6005 10.4263 11.4804 10.4263C11.48 10.4261 11.48 10.4259 11.48 10.4255Z"
        fill="black" />
    <path
        d="M10.3419 13.5911C9.83915 13.5911 9.33658 13.5893 8.83381 13.5929C8.75722 13.5935 8.73842 13.5707 8.73982 13.4972C8.74402 13.2573 8.74362 13.0172 8.74002 12.7773C8.73902 12.7078 8.75982 12.6863 8.83021 12.6865C9.83555 12.6884 10.8411 12.6886 11.8464 12.6855C11.9286 12.6853 11.946 12.7134 11.9446 12.7887C11.9404 13.0254 11.94 13.2621 11.9448 13.4986C11.9462 13.5735 11.9246 13.5941 11.85 13.5935C11.3473 13.5903 10.8447 13.5919 10.3419 13.5919C10.3419 13.5919 10.3419 13.5915 10.3419 13.5911Z"
        fill="black" />
    <path
        d="M13.0877 6.81295C12.7412 6.81295 12.3946 6.81095 12.048 6.81455C11.9682 6.81535 11.9376 6.79653 11.9398 6.71001C11.9458 6.46989 11.9442 6.22956 11.9404 5.98924C11.9394 5.92235 11.9616 5.90332 12.0256 5.90332C12.732 5.90492 13.4385 5.90492 14.1451 5.90392C14.2021 5.90392 14.2295 5.91734 14.2289 5.98163C14.2261 6.23196 14.2255 6.4821 14.2291 6.73244C14.2301 6.80494 14.1959 6.81275 14.1375 6.81235C13.7877 6.81075 13.4377 6.81155 13.0877 6.81155C13.0877 6.81215 13.0877 6.81255 13.0877 6.81295Z"
        fill="black" />
    <path
        d="M18.5995 6.06492C18.3003 6.2758 18.0729 6.54275 17.8203 6.78266C17.7901 6.8115 17.7559 6.8129 17.7189 6.8129C17.193 6.8127 16.667 6.8119 16.1412 6.8139C16.077 6.8141 16.0548 6.79568 16.0558 6.72879C16.0594 6.48227 16.0582 6.23555 16.0564 5.98882C16.056 5.93435 16.0632 5.90211 16.1304 5.90311C16.7594 5.91112 17.3887 5.88989 18.0175 5.91533C18.2151 5.92334 18.4031 5.97881 18.5995 6.06492Z"
        fill="black" />
    <path
        d="M15.5993 6.13308C15.5993 6.34656 15.6003 6.56024 15.5991 6.77372C15.5975 7.05689 15.4035 7.26195 15.1396 7.26135C14.8766 7.26075 14.6838 7.05488 14.6832 6.77031C14.6822 6.34316 14.6822 5.916 14.6836 5.48885C14.6846 5.20648 14.8818 4.99841 15.1432 5.00001C15.4055 5.00161 15.5983 5.20848 15.5997 5.49225C15.6009 5.70573 15.5999 5.91941 15.5999 6.13288C15.5997 6.13308 15.5995 6.13308 15.5993 6.13308Z"
        fill="black" />
    <path
        d="M11.4855 6.13473C11.4855 6.35161 11.4869 6.5685 11.4851 6.78539C11.4827 7.06155 11.2867 7.26302 11.0253 7.26122C10.769 7.25942 10.5736 7.05915 10.5724 6.78859C10.5702 6.34821 10.5708 5.90763 10.5738 5.46724C10.5758 5.19949 10.7778 4.99742 11.0325 5.00002C11.2887 5.00263 11.4819 5.2041 11.4841 5.47405C11.4859 5.69434 11.4845 5.91444 11.4845 6.13473C11.4849 6.13473 11.4853 6.13473 11.4855 6.13473Z"
        fill="black" />
</svg>
