<svg width="29" height="27" viewBox="0 0 29 27" fill="none" xmlns="http://www.w3.org/2000/svg">
<circle cx="16" cy="13" r="12.5" fill="white" stroke="#006E97"/>
<path d="M9.10357 21.3409C8.86168 21.3416 8.7252 21.1653 8.78582 20.948C8.84303 20.7435 8.91641 20.5436 8.98263 20.3415C9.37655 19.1394 9.77452 17.9383 10.1616 16.734C10.2595 16.4295 10.4159 16.1798 10.6485 15.9563C13.3034 13.4064 15.9517 10.85 18.6019 8.29545C18.7138 8.18741 18.8307 8.08405 18.9361 7.9701C19.0076 7.89288 19.0533 7.90378 19.1236 7.9729C19.6643 8.50249 20.2087 9.02865 20.7518 9.55575C21.3398 10.1261 21.9261 10.6981 22.5178 11.2647C22.608 11.3513 22.6182 11.3998 22.5212 11.4935C20.2021 13.7417 17.8862 15.9933 15.5699 18.2443C15.0793 18.7213 14.5871 19.197 14.099 19.6765C13.9699 19.8032 13.8257 19.892 13.6522 19.9452C12.1822 20.3976 10.7132 20.8534 9.24379 21.3076C9.1897 21.3247 9.13342 21.3341 9.10357 21.3409ZM18.9852 9.48819C18.9865 9.39448 18.9342 9.29423 18.8537 9.2357C18.7029 9.1261 18.5381 9.15412 18.3693 9.3182C16.5337 11.1028 14.6984 12.8874 12.8628 14.6723C12.4987 15.0263 12.1337 15.3797 11.7706 15.7346C11.6033 15.8984 11.5846 16.0727 11.714 16.2132C11.8514 16.362 12.046 16.3542 12.2208 16.192C12.2435 16.1708 12.2662 16.1493 12.2882 16.1278C13.6631 14.7913 15.0382 13.455 16.4131 12.1181C17.2193 11.3341 18.0251 10.5496 18.832 9.76622C18.9122 9.68839 18.9828 9.60775 18.9852 9.48819ZM10.7045 17.3091C10.507 17.9115 10.3189 18.4869 10.129 19.0613C10.1078 19.1251 10.1429 19.1563 10.1812 19.1933C10.4458 19.4489 10.7113 19.7033 10.9721 19.9626C11.0371 20.0271 11.0956 20.0352 11.1798 20.0068C11.4105 19.9296 11.6443 19.8621 11.8766 19.7898C12.2164 19.6843 12.5562 19.5778 12.9228 19.4632C12.1766 18.7387 11.4503 18.0332 10.7045 17.3091Z" fill="black"/>
<path d="M24.8743 8.77073C24.8671 9.06121 24.7508 9.31059 24.5444 9.51514C24.139 9.91583 23.7264 10.3091 23.3216 10.7104C23.2489 10.7823 23.2109 10.7652 23.1481 10.7038C22.009 9.5936 20.8686 8.48461 19.7257 7.37843C19.6455 7.30091 19.6495 7.25888 19.7275 7.18416C20.1286 6.80121 20.5235 6.41204 20.9217 6.0266C21.126 5.8289 21.3666 5.70779 21.6548 5.69378C21.8983 5.68195 22.1175 5.74422 22.2956 5.91732C23.0797 6.67917 23.8635 7.44132 24.6464 8.20441C24.8024 8.35697 24.8699 8.54906 24.8743 8.77073Z" fill="black"/>
</svg>
