<svg width="18" height="18" viewBox="0 0 18 18" fill="none" xmlns="http://www.w3.org/2000/svg">
<rect width="18" height="18" rx="9" fill="#008ABD"/>
<path d="M13.8332 3.25573C11.5573 4.74363 8.92613 7.17476 6.71357 9.83504C6.55528 10.0277 6.44271 10.1306 6.41809 10.1173C6.39347 10.1041 5.63367 9.60256 4.72613 9.00474L3.07638 7.91871L2.98492 7.98181C2.93568 8.01502 2.69296 8.23422 2.44673 8.47003L2 8.89514L2.54874 9.6092C3.88894 11.3495 5.39095 13.4053 6.06281 14.4117C6.26683 14.7205 6.44623 14.9862 6.4603 14.9995C6.47437 15.0128 6.65729 14.7504 6.86834 14.4183C8.79246 11.3395 11.209 8.05155 13.1508 5.85624C13.9492 4.95287 14.2869 4.60414 15.1769 3.77052L16 3H15.1101L14.2201 3.00332L13.8332 3.25573Z" fill="white"/>
</svg>
