<svg width="20" height="20" viewBox="0 0 20 20" fill="none" xmlns="http://www.w3.org/2000/svg">
    <g clip-path="url(#clip0_27_1036)">
        <path
            d="M0.00159404 4.11474e-06L3.35983 2.60675C5.12599 1.15981 7.39413 0.280892 9.8577 0.280892C15.4256 0.280892 20.0012 4.75154 20.0012 10.1908C20.0012 15.6305 15.4252 19.9997 9.8577 19.9997C5.49291 19.9997 1.74199 17.3194 0.323617 13.539L3.95787 12.6738C4.93045 14.9145 7.18428 16.4602 9.8577 16.4602C13.4364 16.4602 16.2753 13.6869 16.2753 10.1904C16.2753 6.69408 13.4366 3.81952 9.8577 3.81952C8.5299 3.81952 7.30985 4.22117 6.29245 4.89817L9.61616 7.48244L0.00148173 9.22402V-0.000610352L0.00159404 4.11474e-06Z"
            fill="white" />
    </g>
    <defs>
        <clipPath id="clip0_27_1036">
            <rect width="20" height="20" fill="white" transform="matrix(-1 0 0 1 20 0)" />
        </clipPath>
    </defs>
</svg>
