<svg width="17" height="17" viewBox="0 0 17 17" fill="none" xmlns="http://www.w3.org/2000/svg">
    <path
        d="M8.5007 0C3.8049 0 0 3.80552 0 8.50164C0 13.1949 3.8049 17.0002 8.5007 17.0002C13.1972 17.0002 17 13.1949 17 8.50164C17 3.80529 13.1972 0 8.5007 0ZM12.2178 10.9876C12.5415 11.3218 12.4415 11.9446 11.9928 12.3797C11.5442 12.8148 10.9185 12.8981 10.5942 12.5639L8.47559 10.3826L6.29338 12.501C5.95988 12.8246 5.337 12.7232 4.90187 12.2755C4.46674 11.8277 4.38413 11.2021 4.71763 10.8777L6.89984 8.75932L4.78124 6.57729C4.45759 6.24382 4.55921 5.62028 5.00701 5.18519C5.45411 4.7508 6.08122 4.66796 6.40416 5.00097L8.52277 7.18276L10.7057 5.06527C11.0399 4.74094 11.6628 4.84232 12.0972 5.29009C12.533 5.73785 12.6149 6.3642 12.2814 6.68853L10.0999 8.80625L12.2178 10.9876Z"
        fill="black" />
</svg>
