<svg width="52" height="74" viewBox="0 0 52 74" fill="none" xmlns="http://www.w3.org/2000/svg">
<path d="M12.94 57L11.918 55.145H11.631V57H10.434V52.086H12.443C12.8303 52.086 13.1593 52.1537 13.43 52.289C13.7053 52.4243 13.9107 52.611 14.046 52.849C14.1813 53.0823 14.249 53.3437 14.249 53.633C14.249 53.9597 14.1557 54.2513 13.969 54.508C13.787 54.7647 13.5163 54.9467 13.157 55.054L14.291 57H12.94ZM11.631 54.298H12.373C12.5923 54.298 12.7557 54.2443 12.863 54.137C12.975 54.0297 13.031 53.878 13.031 53.682C13.031 53.4953 12.975 53.3483 12.863 53.241C12.7557 53.1337 12.5923 53.08 12.373 53.08H11.631V54.298ZM16.1974 53.045V54.039H17.8004V54.963H16.1974V56.041H18.0104V57H15.0004V52.086H18.0104V53.045H16.1974ZM22.5325 53.668C22.5325 53.9527 22.4672 54.214 22.3365 54.452C22.2058 54.6853 22.0052 54.8743 21.7345 55.019C21.4638 55.1637 21.1278 55.236 20.7265 55.236H19.9845V57H18.7875V52.086H20.7265C21.1185 52.086 21.4498 52.1537 21.7205 52.289C21.9912 52.4243 22.1942 52.611 22.3295 52.849C22.4648 53.087 22.5325 53.36 22.5325 53.668ZM20.6355 54.284C20.8642 54.284 21.0345 54.2303 21.1465 54.123C21.2585 54.0157 21.3145 53.864 21.3145 53.668C21.3145 53.472 21.2585 53.3203 21.1465 53.213C21.0345 53.1057 20.8642 53.052 20.6355 53.052H19.9845V54.284H20.6355ZM25.4797 57.049C25.0177 57.049 24.593 56.9417 24.2057 56.727C23.823 56.5123 23.5173 56.2137 23.2887 55.831C23.0647 55.4437 22.9527 55.0097 22.9527 54.529C22.9527 54.0483 23.0647 53.6167 23.2887 53.234C23.5173 52.8513 23.823 52.5527 24.2057 52.338C24.593 52.1233 25.0177 52.016 25.4797 52.016C25.9417 52.016 26.364 52.1233 26.7467 52.338C27.134 52.5527 27.4373 52.8513 27.6567 53.234C27.8807 53.6167 27.9927 54.0483 27.9927 54.529C27.9927 55.0097 27.8807 55.4437 27.6567 55.831C27.4327 56.2137 27.1293 56.5123 26.7467 56.727C26.364 56.9417 25.9417 57.049 25.4797 57.049ZM25.4797 55.957C25.8717 55.957 26.1843 55.8263 26.4177 55.565C26.6557 55.3037 26.7747 54.9583 26.7747 54.529C26.7747 54.095 26.6557 53.7497 26.4177 53.493C26.1843 53.2317 25.8717 53.101 25.4797 53.101C25.083 53.101 24.7657 53.2293 24.5277 53.486C24.2943 53.7427 24.1777 54.0903 24.1777 54.529C24.1777 54.963 24.2943 55.3107 24.5277 55.572C24.7657 55.8287 25.083 55.957 25.4797 55.957ZM31.1646 57L30.1426 55.145H29.8556V57H28.6586V52.086H30.6676C31.0549 52.086 31.3839 52.1537 31.6546 52.289C31.9299 52.4243 32.1353 52.611 32.2706 52.849C32.4059 53.0823 32.4736 53.3437 32.4736 53.633C32.4736 53.9597 32.3803 54.2513 32.1936 54.508C32.0116 54.7647 31.7409 54.9467 31.3816 55.054L32.5156 57H31.1646ZM29.8556 54.298H30.5976C30.8169 54.298 30.9803 54.2443 31.0876 54.137C31.1996 54.0297 31.2556 53.878 31.2556 53.682C31.2556 53.4953 31.1996 53.3483 31.0876 53.241C30.9803 53.1337 30.8169 53.08 30.5976 53.08H29.8556V54.298ZM36.76 52.086V53.045H35.458V57H34.261V53.045H32.959V52.086H36.76Z" fill="#006E97"/>
<g filter="url(#filter0_d_10678_414)">
<ellipse cx="24" cy="24.5" rx="22" ry="22.5" fill="white"/>
<path d="M45.5 24.5C45.5 36.6609 35.8636 46.5 24 46.5C12.1364 46.5 2.5 36.6609 2.5 24.5C2.5 12.3391 12.1364 2.5 24 2.5C35.8636 2.5 45.5 12.3391 45.5 24.5Z" stroke="#008ABD"/>
</g>
<g clip-path="url(#clip0_10678_414)">
<path d="M16.027 32.2704H11.2702V27.5136H16.027V32.2704ZM23.1621 32.2704H18.4054V22.7569H23.1621V32.2704ZM30.2973 32.2704H25.5405V16.8109H30.2973V32.2704ZM37.4324 32.2704H32.6756V9.67578H37.4324V32.2704ZM38.6216 34.6488H10.0811V37.0271H38.6216V34.6488Z" fill="#006E97"/>
</g>
<defs>
<filter id="filter0_d_10678_414" x="0" y="0" width="52" height="53" filterUnits="userSpaceOnUse" color-interpolation-filters="sRGB">
<feFlood flood-opacity="0" result="BackgroundImageFix"/>
<feColorMatrix in="SourceAlpha" type="matrix" values="0 0 0 0 0 0 0 0 0 0 0 0 0 0 0 0 0 0 127 0" result="hardAlpha"/>
<feOffset dx="2" dy="2"/>
<feGaussianBlur stdDeviation="2"/>
<feComposite in2="hardAlpha" operator="out"/>
<feColorMatrix type="matrix" values="0 0 0 0 0 0 0 0 0 0.541177 0 0 0 0 0.741176 0 0 0 0.22 0"/>
<feBlend mode="normal" in2="BackgroundImageFix" result="effect1_dropShadow_10678_414"/>
<feBlend mode="normal" in="SourceGraphic" in2="effect1_dropShadow_10678_414" result="shape"/>
</filter>
<clipPath id="clip0_10678_414">
<rect width="28.5405" height="28.5405" fill="white" transform="translate(10.0811 9.67578)"/>
</clipPath>
</defs>
</svg>
