<svg width="25" height="25" viewBox="0 0 25 25" fill="none" xmlns="http://www.w3.org/2000/svg">
<circle cx="12.5" cy="12.5" r="11.5" stroke="#008ABD" stroke-width="2"/>
<path fill-rule="evenodd" clip-rule="evenodd" d="M7.64013 10.7248C7.36408 10.7552 7.15017 10.4859 7.23935 10.2204L8.56884 6.26048C8.66516 5.97375 9.03714 5.90747 9.22477 6.14357L10.2038 7.37556C11.086 6.92982 12.067 6.70545 13.0629 6.72854C14.3818 6.75922 15.6551 7.22245 16.6903 8.04835C17.7255 8.87425 18.4664 10.0179 18.8011 11.3065C19.1359 12.5951 19.0462 13.9588 18.5457 15.1914C18.0452 16.4241 17.1611 17.4588 16.0268 18.1393C14.8926 18.8197 13.5699 19.1089 12.2585 18.9632C10.9471 18.8175 9.71829 18.2448 8.75768 17.3316C7.88944 16.5063 7.28296 15.4433 7.00957 14.2771C6.96126 14.071 7.10126 13.8723 7.30802 13.8365L8.03657 13.7102C8.24334 13.6744 8.43811 13.8152 8.4906 14.0203C8.70625 14.8628 9.15382 15.6296 9.78506 16.2296C10.5087 16.9176 11.4344 17.349 12.4224 17.4587C13.4103 17.5685 14.4068 17.3506 15.2613 16.838C16.1158 16.3254 16.7819 15.5459 17.1589 14.6173C17.536 13.6887 17.6035 12.6613 17.3514 11.6905C17.0992 10.7197 16.541 9.85817 15.7611 9.236C14.9812 8.61376 14.022 8.26482 13.0284 8.24173C12.3879 8.22685 11.7556 8.34789 11.1708 8.59251L12.0116 9.6506C12.1992 9.88678 12.0546 10.2391 11.7564 10.2718L7.64013 10.7248Z" fill="#008ABD"/>
</svg>
