<svg width="25" height="22" viewBox="0 0 25 22" fill="none" xmlns="http://www.w3.org/2000/svg">
<path d="M21.0225 0.536112C17.1075 3.17093 12.5813 7.47605 8.77512 12.187C8.50282 12.5281 8.30919 12.7104 8.26683 12.6869C8.22447 12.6634 6.91744 11.7753 5.35626 10.7166L2.5183 8.79346L2.36097 8.9052C2.27625 8.96402 1.85873 9.35218 1.43515 9.76976L0.666664 10.5226L1.61063 11.787C3.9161 14.8688 6.49991 18.5094 7.65567 20.2914C8.00664 20.8384 8.31524 21.3089 8.33945 21.3324C8.36365 21.3559 8.67831 20.8913 9.04137 20.3032C12.3513 14.8512 16.5084 9.02871 19.8486 5.14117C21.2222 3.54146 21.8031 2.92392 23.334 1.44771L24.75 0.083252H23.2191L21.6881 0.0891323L21.0225 0.536112Z" fill="#009045"/>
</svg>
