<svg width="39" height="39" viewBox="0 0 39 39" fill="none" xmlns="http://www.w3.org/2000/svg">
<path d="M19.5 24.375C22.1924 24.375 24.375 22.1924 24.375 19.5C24.375 16.8076 22.1924 14.625 19.5 14.625C16.8076 14.625 14.625 16.8076 14.625 19.5C14.625 22.1924 16.8076 24.375 19.5 24.375Z" stroke="white" stroke-width="2" stroke-miterlimit="10" stroke-linecap="round" stroke-linejoin="round"/>
<path d="M33.8298 12.6336L32.6111 10.5227C31.9383 9.35634 30.4478 8.95781 29.2815 9.63056L28.6404 10.0011C26.2029 11.4075 23.156 9.64884 23.156 6.83475V6.09375C23.156 4.74703 22.0652 3.65625 20.7185 3.65625H18.281C16.9343 3.65625 15.8435 4.74703 15.8435 6.09375V6.83475C15.8435 9.64884 12.7967 11.4087 10.3592 10.0011L9.71809 9.63056C8.55175 8.95781 7.06122 9.35634 6.38847 10.5227L5.16972 12.6336C4.49697 13.7999 4.8955 15.2904 6.06184 15.9632L6.7029 16.3337C9.1404 17.7413 9.1404 21.2587 6.7029 22.6663L6.06184 23.0368C4.8955 23.7096 4.49697 25.2001 5.16972 26.3664L6.38847 28.4773C7.06122 29.6437 8.55175 30.0422 9.71809 29.3694L10.3592 28.9989C12.7967 27.5913 15.8435 29.3512 15.8435 32.1653V32.9062C15.8435 34.253 16.9343 35.3438 18.281 35.3438H20.7185C22.0652 35.3438 23.156 34.253 23.156 32.9062V32.1653C23.156 29.3512 26.2029 27.5913 28.6404 28.9989L29.2815 29.3694C30.4478 30.0422 31.9383 29.6437 32.6111 28.4773L33.8298 26.3664C34.5026 25.2001 34.1041 23.7096 32.9377 23.0368L32.2967 22.6663C29.8592 21.2587 29.8592 17.7413 32.2967 16.3337L32.9377 15.9632C34.1041 15.2904 34.5038 13.7999 33.8298 12.6336Z" stroke="white" stroke-width="2" stroke-miterlimit="10" stroke-linecap="round" stroke-linejoin="round"/>
</svg>
