<svg width="17" height="17" viewBox="0 0 17 17" fill="none" xmlns="http://www.w3.org/2000/svg">
<path d="M3.59615 11.0961C5.02997 11.0961 6.19231 9.93378 6.19231 8.49996C6.19231 7.06615 5.02997 5.90381 3.59615 5.90381C2.16234 5.90381 1 7.06615 1 8.49996C1 9.93378 2.16234 11.0961 3.59615 11.0961Z" stroke="white" stroke-width="1.5" stroke-linecap="round" stroke-linejoin="round"/>
<path d="M13.4039 15.9999C14.8377 15.9999 16 14.8376 16 13.4038C16 11.97 14.8377 10.8076 13.4039 10.8076C11.9701 10.8076 10.8077 11.97 10.8077 13.4038C10.8077 14.8376 11.9701 15.9999 13.4039 15.9999Z" stroke="white" stroke-width="1.5" stroke-linecap="round" stroke-linejoin="round"/>
<path d="M13.4039 6.19231C14.8377 6.19231 16 5.02997 16 3.59615C16 2.16234 14.8377 1 13.4039 1C11.9701 1 10.8077 2.16234 10.8077 3.59615C10.8077 5.02997 11.9701 6.19231 13.4039 6.19231Z" stroke="white" stroke-width="1.5" stroke-linecap="round" stroke-linejoin="round"/>
<path d="M5.91541 7.34615L11.0846 4.75" stroke="white" stroke-width="1.5" stroke-linecap="round" stroke-linejoin="round"/>
<path d="M5.91541 9.65381L11.0846 12.25" stroke="white" stroke-width="1.5" stroke-linecap="round" stroke-linejoin="round"/>
</svg>
