<svg width="25" height="25" viewBox="0 0 25 25" fill="none" xmlns="http://www.w3.org/2000/svg">
    <g clip-path="url(#clip0_2026_779)">
        <path
            d="M0.389748 14.0764C0.389748 15.4596 0.661936 16.8293 1.19077 18.1073C1.71961 19.3853 2.49474 20.5465 3.4719 21.5246C4.44906 22.5027 5.60912 23.2786 6.88584 23.808C8.16257 24.3373 9.53095 24.6098 10.9129 24.6098C12.2948 24.6098 13.6632 24.3373 14.9399 23.808C16.2166 23.2786 17.3767 22.5027 18.3538 21.5246C19.331 20.5465 20.1061 19.3853 20.635 18.1073C21.1638 16.8293 21.436 15.4596 21.436 14.0764C21.436 12.6931 21.1638 11.3234 20.635 10.0454C20.1061 8.76744 19.331 7.60624 18.3538 6.62813C17.3767 5.65001 16.2166 4.87413 14.9399 4.34478C13.6632 3.81542 12.2948 3.54297 10.9129 3.54297C9.53095 3.54297 8.16257 3.81542 6.88584 4.34478C5.60912 4.87413 4.44906 5.65001 3.4719 6.62813C2.49474 7.60624 1.71961 8.76744 1.19077 10.0454C0.661936 11.3234 0.389748 12.6931 0.389748 14.0764Z"
            fill="white" />
        <path
            d="M10.9129 24.9999C4.8913 24.9999 0 20.1038 0 14.0764C0 8.04891 4.8913 3.15283 10.9129 3.15283C16.9344 3.15283 21.8257 8.04891 21.8257 14.0764C21.8257 20.1038 16.9344 24.9999 10.9129 24.9999ZM10.9129 3.93308C5.32002 3.93308 0.77949 8.47805 0.77949 14.0764C0.77949 19.6747 5.32002 24.2196 10.9129 24.2196C16.5057 24.2196 21.0462 19.6747 21.0462 14.0764C21.0462 8.47805 16.5057 3.93308 10.9129 3.93308Z"
            fill="#191919" />
        <path
            d="M3.00104 14.0763C3.00104 15.1163 3.20568 16.1461 3.60329 17.107C4.0009 18.0678 4.58368 18.9409 5.31836 19.6763C6.05304 20.4117 6.92523 20.995 7.88514 21.393C8.84505 21.791 9.87387 21.9958 10.9129 21.9958C11.9519 21.9958 12.9807 21.791 13.9406 21.393C14.9005 20.995 15.7727 20.4117 16.5074 19.6763C17.242 18.9409 17.8248 18.0678 18.2224 17.107C18.62 16.1461 18.8247 15.1163 18.8247 14.0763C18.8247 13.0363 18.62 12.0065 18.2224 11.0456C17.8248 10.0848 17.242 9.21172 16.5074 8.47632C15.7727 7.74092 14.9005 7.15757 13.9406 6.75958C12.9807 6.36158 11.9519 6.15674 10.9129 6.15674C9.87387 6.15674 8.84505 6.36158 7.88514 6.75958C6.92523 7.15757 6.05304 7.74092 5.31836 8.47632C4.58368 9.21172 4.0009 10.0848 3.60329 11.0456C3.20568 12.0065 3.00104 13.0363 3.00104 14.0763Z"
            fill="#F86C6C" />
        <path
            d="M10.9129 22.4055C6.33336 22.4055 2.61129 18.6798 2.61129 14.0958C2.61129 9.51183 6.33336 5.78613 10.9129 5.78613C15.4924 5.78613 19.2144 9.51183 19.2144 14.0958C19.2144 18.6798 15.4924 22.4055 10.9129 22.4055ZM10.9129 6.54688C6.76207 6.54688 3.39078 9.92146 3.39078 14.0763C3.39078 18.2311 6.76207 21.6057 10.9129 21.6057C15.0636 21.6057 18.4349 18.2311 18.4349 14.0763C18.4349 9.92146 15.0636 6.54688 10.9129 6.54688Z"
            fill="#191919" />
        <path
            d="M5.82669 14.0765C5.82669 15.4267 6.36255 16.7217 7.3164 17.6765C8.27024 18.6312 9.56393 19.1676 10.9129 19.1676C12.2618 19.1676 13.5555 18.6312 14.5093 17.6765C15.4632 16.7217 15.999 15.4267 15.999 14.0765C15.999 12.7262 15.4632 11.4313 14.5093 10.4765C13.5555 9.52174 12.2618 8.98535 10.9129 8.98535C9.56393 8.98535 8.27024 9.52174 7.3164 10.4765C6.36255 11.4313 5.82669 12.7262 5.82669 14.0765Z"
            fill="white" />
        <path
            d="M10.9129 19.5773C7.89234 19.5773 5.43694 17.1195 5.43694 14.096C5.43694 11.0725 7.89234 8.59521 10.9129 8.59521C13.9334 8.59521 16.3888 11.053 16.3888 14.0765C16.3888 17.1 13.9334 19.5773 10.9129 19.5773ZM10.9129 9.37547C8.32106 9.37547 6.21643 11.4821 6.21643 14.0765C6.21643 16.6708 8.32106 18.7775 10.9129 18.7775C13.5047 18.7775 15.6093 16.6708 15.6093 14.0765C15.6093 11.4821 13.5047 9.37547 10.9129 9.37547Z"
            fill="#191919" />
        <path
            d="M8.43798 14.0764C8.43798 14.4017 8.502 14.7239 8.62637 15.0244C8.75074 15.325 8.93304 15.5981 9.16286 15.8281C9.39267 16.0582 9.6655 16.2406 9.96577 16.3651C10.266 16.4896 10.5879 16.5537 10.9129 16.5537C11.2379 16.5537 11.5597 16.4896 11.86 16.3651C12.1602 16.2406 12.4331 16.0582 12.6629 15.8281C12.8927 15.5981 13.075 15.325 13.1994 15.0244C13.3237 14.7239 13.3877 14.4017 13.3877 14.0764C13.3877 13.4194 13.127 12.7893 12.6629 12.3247C12.1987 11.8601 11.5692 11.5991 10.9129 11.5991C10.2565 11.5991 9.62699 11.8601 9.16286 12.3247C8.69873 12.7893 8.43798 13.4194 8.43798 14.0764Z"
            fill="#F86C6C" />
        <path
            d="M10.9129 16.9438C9.33439 16.9438 8.04823 15.6564 8.04823 14.0764C8.04823 12.4964 9.33439 11.209 10.9129 11.209C12.4913 11.209 13.7775 12.4964 13.7775 14.0764C13.7775 15.6759 12.4913 16.9438 10.9129 16.9438ZM10.9129 12.0087C9.76311 12.0087 8.82772 12.945 8.82772 14.0959C8.82772 15.2468 9.76311 16.1636 10.9129 16.1636C12.0626 16.1636 12.998 15.2273 12.998 14.0764C12.998 12.9255 12.0626 12.0087 10.9129 12.0087Z"
            fill="#191919" />
        <path d="M24.5929 2.80162L21.436 5.94213L18.9806 6.00065L19.0391 3.54286L22.196 0.402344L22.0986 2.89915L24.5929 2.80162Z" fill="#C2CDDC" />
        <path
            d="M19.0001 6.391C18.9026 6.391 18.8052 6.35199 18.7273 6.27397C18.6493 6.19594 18.6103 6.09841 18.6103 5.98137L18.6688 3.52358C18.6688 3.42605 18.7078 3.32852 18.7857 3.25049L21.9426 0.10998C22.0596 -0.00705817 22.235 -0.0265644 22.3714 0.0319544C22.5273 0.0904733 22.6052 0.246524 22.6052 0.402574L22.5273 2.47024L24.5929 2.39222C24.7488 2.39222 24.9047 2.47024 24.9632 2.62629C25.0216 2.78234 25.0021 2.93839 24.8852 3.05543L21.7283 6.19594C21.6503 6.27397 21.5529 6.31298 21.4555 6.31298L19.0001 6.391ZM19.4288 3.71864L19.3898 5.61075L21.2801 5.57174L23.6186 3.23099L22.118 3.2895C22.0011 3.2895 21.9037 3.25049 21.8257 3.17247C21.7478 3.09444 21.7088 2.99691 21.7088 2.87987L21.7673 1.37789L19.4288 3.71864Z"
            fill="#191919" />
        <path
            d="M11.1077 14.174C11.0103 14.174 10.9129 14.135 10.8349 14.0569C10.679 13.9009 10.679 13.6668 10.8349 13.5108L23.6575 0.675631C23.8134 0.519581 24.0473 0.519581 24.2032 0.675631C24.3591 0.831682 24.3591 1.06576 24.2032 1.22181L11.3806 14.0569C11.3026 14.135 11.2052 14.174 11.1077 14.174Z"
            fill="#191919" />
        <path
            d="M22.995 4.59667H20.676C20.4616 4.59667 20.2862 4.42111 20.2862 4.20654V1.92431C20.2862 1.70974 20.4616 1.53418 20.676 1.53418C20.8903 1.53418 21.0657 1.70974 21.0657 1.92431V3.81641H22.995C23.2093 3.81641 23.3847 3.99197 23.3847 4.20654C23.3847 4.42111 23.2093 4.59667 22.995 4.59667Z"
            fill="#191919" />
    </g>
    <defs>
        <clipPath id="clip0_2026_779">
            <rect width="25" height="25" fill="white" />
        </clipPath>
    </defs>
</svg>
