<svg width="9" height="6" viewBox="0 0 9 6" fill="none" xmlns="http://www.w3.org/2000/svg">
<path d="M4.95 1.71429H0.45C0.2025 1.71429 0 1.90714 0 2.14286C0 2.37857 0.2025 2.57143 0.45 2.57143H4.95C5.1975 2.57143 5.4 2.37857 5.4 2.14286C5.4 1.90714 5.1975 1.71429 4.95 1.71429ZM4.95 0H0.45C0.2025 0 0 0.192857 0 0.428571C0 0.664286 0.2025 0.857143 0.45 0.857143H4.95C5.1975 0.857143 5.4 0.664286 5.4 0.428571C5.4 0.192857 5.1975 0 4.95 0ZM7.2 3.42857V2.14286C7.2 1.90714 6.9975 1.71429 6.75 1.71429C6.5025 1.71429 6.3 1.90714 6.3 2.14286V3.42857H4.95C4.7025 3.42857 4.5 3.62143 4.5 3.85714C4.5 4.09286 4.7025 4.28571 4.95 4.28571H6.3V5.57143C6.3 5.80714 6.5025 6 6.75 6C6.9975 6 7.2 5.80714 7.2 5.57143V4.28571H8.55C8.7975 4.28571 9 4.09286 9 3.85714C9 3.62143 8.7975 3.42857 8.55 3.42857H7.2ZM0.45 4.28571H3.15C3.3975 4.28571 3.6 4.09286 3.6 3.85714C3.6 3.62143 3.3975 3.42857 3.15 3.42857H0.45C0.2025 3.42857 0 3.62143 0 3.85714C0 4.09286 0.2025 4.28571 0.45 4.28571Z" fill="black"/>
</svg>
