<svg width="26" height="26" viewBox="0 0 26 26" fill="none" xmlns="http://www.w3.org/2000/svg">
<path d="M13 26C20.1797 26 26 20.1797 26 13C26 5.8203 20.1797 0 13 0C5.8203 0 0 5.8203 0 13C0 20.1797 5.8203 26 13 26Z" fill="#25D366"/>
<path fill-rule="evenodd" clip-rule="evenodd" d="M13.4285 20.2325H13.4253C12.1315 20.2321 10.8603 19.9075 9.7312 19.2916L5.6333 20.3666L6.72997 16.3609C6.05349 15.1885 5.69753 13.8587 5.69811 12.4963C5.69981 8.23419 9.16758 4.7666 13.4284 4.7666C15.4963 4.76749 17.4372 5.57253 18.8967 7.0337C20.3561 8.4948 21.1594 10.4369 21.1586 12.5024C21.1569 16.7636 17.6905 20.2308 13.4285 20.2325ZM9.92106 17.8922L10.1557 18.0315C11.1422 18.6168 12.2729 18.9266 13.4259 18.927H13.4285C16.9698 18.927 19.852 16.0447 19.8534 12.502C19.8541 10.7852 19.1864 9.17094 17.9734 7.95647C16.7603 6.742 15.1471 6.07285 13.431 6.07225C9.88697 6.07225 7.00468 8.95428 7.00327 12.4968C7.00277 13.7108 7.34246 14.8931 7.98562 15.9161L8.13838 16.1592L7.48931 18.5301L9.92106 17.8922ZM17.0584 14.1667C17.1931 14.2318 17.284 14.2758 17.3229 14.3406C17.3712 14.4212 17.3712 14.8079 17.2103 15.2591C17.0493 15.7103 16.2776 16.1221 15.9065 16.1775C15.5737 16.2273 15.1526 16.248 14.6899 16.101C14.4094 16.012 14.0496 15.8931 13.5888 15.6941C11.7781 14.9122 10.5544 13.1572 10.3231 12.8255C10.3069 12.8023 10.2955 12.786 10.2892 12.7776L10.2877 12.7755C10.1855 12.6391 9.50054 11.7253 9.50054 10.7795C9.50054 9.88982 9.93757 9.42348 10.1387 9.20882C10.1525 9.19411 10.1652 9.18059 10.1766 9.16819C10.3536 8.97481 10.5629 8.92647 10.6916 8.92647C10.8204 8.92647 10.9493 8.92766 11.0618 8.93331C11.0757 8.93401 11.0901 8.93392 11.1051 8.93384C11.2176 8.93318 11.358 8.93235 11.4964 9.26488C11.5497 9.39285 11.6276 9.58256 11.7098 9.78266C11.876 10.1873 12.0596 10.6344 12.0919 10.699C12.1402 10.7957 12.1724 10.9085 12.108 11.0375C12.0984 11.0568 12.0894 11.075 12.0809 11.0925C12.0325 11.1912 11.9969 11.2638 11.9149 11.3596C11.8826 11.3973 11.8492 11.4379 11.8159 11.4786C11.7494 11.5595 11.683 11.6404 11.6251 11.6981C11.5284 11.7944 11.4278 11.8989 11.5405 12.0922C11.6531 12.2856 12.0408 12.9181 12.615 13.4303C13.2322 13.9808 13.7687 14.2135 14.0406 14.3315C14.0937 14.3545 14.1367 14.3732 14.1683 14.389C14.3614 14.4857 14.474 14.4695 14.5867 14.3406C14.6994 14.2117 15.0695 13.7766 15.1983 13.5833C15.327 13.39 15.4559 13.4222 15.6329 13.4866C15.81 13.5511 16.7596 14.0183 16.9527 14.115C16.9904 14.1339 17.0257 14.1509 17.0584 14.1667Z" fill="#FDFDFD"/>
</svg>
