<svg width="44" height="44" viewBox="0 0 44 44" fill="none" xmlns="http://www.w3.org/2000/svg">
    <path
        d="M25.3645 21.1107L20.2941 17.308C19.873 16.9943 19.2801 17.0803 18.9621 17.4971C18.8375 17.6604 18.773 17.8623 18.773 18.0686V25.674C18.773 26.1982 19.1984 26.6236 19.7227 26.6236C19.9289 26.6236 20.1266 26.5549 20.2941 26.4346L25.3645 22.6318C25.7855 22.3182 25.8715 21.7209 25.5535 21.2998C25.502 21.2311 25.4375 21.1666 25.3645 21.1107ZM10.6348 35.1787H33.4469C35.548 35.1787 37.2496 33.4771 37.2496 31.376V12.3666C37.2496 10.2654 35.548 8.56387 33.4469 8.56387H10.6348C8.53359 8.56387 6.83203 10.2654 6.83203 12.3666V31.376C6.83203 33.4771 8.53789 35.1787 10.6348 35.1787ZM29.6441 33.2752H14.4375V10.4631H29.6441V33.2752ZM8.73555 27.5732H12.5383V33.2752H10.6391C9.59063 33.2752 8.73984 32.4244 8.73984 31.376V27.5732H8.73555ZM35.3461 27.5732V31.376C35.3461 32.4244 34.4953 33.2752 33.4469 33.2752H31.5477V27.5732H35.3461ZM8.73555 16.1693V12.3666C8.73555 11.3182 9.58633 10.4674 10.6348 10.4674H12.534V16.1693H8.73555ZM8.73555 18.0686H12.5383V25.674H8.73555V18.0686ZM35.3461 16.1693H31.5434V10.4674H33.4426C34.491 10.4674 35.3418 11.3182 35.3418 12.3666V16.1693H35.3461ZM35.3461 18.0686V25.674H31.5434V18.0686H35.3461Z"
        fill="white" />
</svg>
